<svg width="52" height="53" viewBox="0 0 52 53" fill="none" xmlns="http://www.w3.org/2000/svg">
<path d="M41.1227 44.4942C41.1227 43.4278 40.6758 42.4224 39.843 41.5794C39.325 41.0106 38.7664 40.4622 38.218 39.9442C37.9438 39.6802 37.6594 39.406 37.3953 39.1317L35.0188 36.7552C33.1906 34.9271 30.8242 34.9271 28.9859 36.7552C28.7422 36.9989 28.4883 37.2427 28.2445 37.4864C27.5945 38.1364 26.9141 38.7966 26.2539 39.5075C25.0758 38.9794 23.918 38.2481 22.5469 37.1513C21.1859 36.0442 16.2297 31.088 15.1125 29.7169C14.0258 28.3458 13.2945 27.1778 12.7563 26.0099C13.4672 25.3599 14.1274 24.6794 14.7774 24.0192C15.0211 23.7755 15.2649 23.5216 15.5086 23.2778C17.3367 21.4497 17.3367 19.0833 15.5086 17.245L13.132 14.8685C12.8578 14.5942 12.5836 14.32 12.3195 14.0458C11.7914 13.5075 11.243 12.9489 10.6844 12.4208C9.84141 11.588 8.82579 11.1411 7.76954 11.1411C6.71329 11.1411 5.68751 11.5981 4.81407 12.431L4.79376 12.4513L3.6461 13.6294C2.54923 14.706 1.87891 16.1481 1.75704 17.6817C1.54376 20.2208 2.29532 22.5974 2.87423 24.1411C4.27579 27.9497 6.38829 31.4739 9.52657 35.2622C10.6641 36.613 11.8828 37.9028 13.1727 39.1013C14.3711 40.3911 15.6508 41.6099 17.0117 42.7372C20.7899 45.8856 24.3242 47.988 28.1328 49.3997C29.6867 49.9786 32.0531 50.72 34.5922 50.5169C36.1258 50.395 37.568 49.7247 38.6445 48.6278L39.8227 47.47L39.843 47.4497C40.6758 46.5864 41.1227 45.5606 41.1227 44.4942Z" fill="#8CAEEC"/>
<path d="M51.7461 24.1005C51.7461 10.8263 40.95 0.0200195 27.6758 0.0200195C22.1 0.0200195 16.6867 1.95986 12.3805 5.50439C11.7609 6.02236 11.6695 6.94658 12.1875 7.56611C12.7055 8.18565 13.6195 8.27705 14.2391 7.76924C18.0273 4.66143 22.7703 2.95518 27.6758 2.95518C39.3453 2.95518 48.8312 12.4411 48.8312 24.1106C48.8211 30.5192 45.9164 36.5825 40.9297 40.6044L40.9094 40.5841C40.3609 39.995 39.782 39.4263 39.2437 38.9083L39.2234 38.8981C38.9695 38.6646 38.7156 38.4106 38.4719 38.1567L36.0547 35.7396C34.8766 34.5614 33.475 33.9419 32.0023 33.9419C30.5297 33.9419 29.1281 34.5614 27.95 35.7396L27.6047 36.0849C27.493 36.1966 27.3406 36.3388 27.2187 36.4606L27.0359 36.6333C26.6805 36.9888 26.3148 37.3442 25.9391 37.72C25.0656 37.2224 24.2328 36.6536 23.4609 36.0239C22.1508 34.9575 17.3266 30.1231 16.25 28.813C15.6203 28.031 15.0516 27.2083 14.5437 26.3349C14.9195 25.9692 15.275 25.6036 15.6305 25.2481L15.8031 25.0653C15.9351 24.9333 16.0672 24.8013 16.1891 24.6692C16.3008 24.5575 16.4125 24.4356 16.5344 24.3239C18.9211 21.9372 18.9211 18.6161 16.5344 16.2294L15.3867 15.0817C15.8437 14.4622 16.3414 13.8833 16.8898 13.345C22.8312 7.40361 32.4898 7.40361 38.4211 13.345C42.9812 17.9153 44.1695 24.8622 41.3969 30.6919C41.0516 31.4231 41.3562 32.2966 42.0875 32.6419C42.8187 32.9872 43.6922 32.6825 44.0375 31.9513C47.3484 25.0044 45.9367 16.7271 40.493 11.2833C33.4141 4.20439 21.8969 4.20439 14.8281 11.2833C14.2898 11.8216 13.782 12.3903 13.3148 12.9896C12.807 12.4614 12.2687 11.913 11.6898 11.3849C10.5828 10.2677 9.22187 9.68877 7.76952 9.68877C6.31718 9.68877 4.94609 10.2677 3.79843 11.3747L3.77812 11.395L3.7578 11.4153L3.74765 11.4255L2.59999 12.6036C1.25937 13.9239 0.43671 15.681 0.294523 17.5599C0.060929 20.3833 0.873429 22.963 1.49296 24.6489C2.96562 28.6302 5.15937 32.2966 8.40937 36.1966C9.56718 37.588 10.8164 38.8981 12.1367 40.1372C13.3758 41.4575 14.6859 42.7067 16.0773 43.8747C19.9773 47.1145 23.6437 49.3083 27.6148 50.781C29.057 51.3091 31.2508 52.02 33.7086 52.02C34.0437 52.02 34.3891 52.0099 34.7242 51.9794C36.6031 51.8271 38.3601 51.0145 39.6703 49.6739L40.8484 48.5263L40.8586 48.5161L40.8789 48.4958L40.8992 48.4755C42.0062 47.3278 42.5851 45.9466 42.5851 44.5044C42.5851 44.0474 42.5242 43.5903 42.4023 43.1435C48.293 38.5731 51.7359 31.545 51.7461 24.1005ZM38.7969 46.4341L37.6289 47.5919L37.6187 47.6021C36.7859 48.4552 35.6687 48.9833 34.4805 49.0645C34.2266 49.0849 33.9726 49.095 33.7187 49.095C31.7383 49.095 29.8797 48.4856 28.6508 48.0388C24.9945 46.6778 21.5922 44.6466 17.9664 41.6302C16.6562 40.5333 15.4172 39.3653 14.2492 38.1161C14.2289 38.0856 14.1984 38.0653 14.1781 38.045C12.9289 36.8872 11.7609 35.6481 10.6641 34.338C7.63749 30.6919 5.59609 27.2896 4.23515 23.6333C3.70702 22.2013 3.02655 20.0481 3.20937 17.8036C3.30077 16.6052 3.81874 15.488 4.68202 14.6552L4.69218 14.645L5.83984 13.4771C6.4289 12.9083 7.09921 12.6138 7.77968 12.6138C8.46015 12.6138 9.09999 12.9083 9.66874 13.4669L9.70937 13.5075C10.2476 14.0052 10.7859 14.5536 11.2836 15.0614C11.5476 15.3356 11.8117 15.6099 12.0758 15.8739L14.493 18.2911C15.7523 19.5505 15.7523 20.9927 14.493 22.2521L14.1273 22.6177C14.0055 22.7396 13.8836 22.8716 13.7516 23.0036L13.5586 23.1864C12.9898 23.7653 12.3906 24.3646 11.7711 24.9333C11.3039 25.3599 11.1617 26.0403 11.4258 26.6091C12.0047 27.8989 12.8172 29.1685 13.9648 30.6208L13.975 30.6411C15.1633 32.1036 20.1601 37.1005 21.6226 38.2888L21.6328 38.2989C23.0851 39.4466 24.3648 40.2591 25.6445 40.838C26.2234 41.1021 26.8937 40.9599 27.3203 40.4927C27.8891 39.8731 28.4883 39.2739 29.0773 38.7052L29.2703 38.5224C29.3922 38.4005 29.5141 38.2786 29.6461 38.1567C29.7781 38.0349 29.8898 37.913 30.0117 37.7911C30.6312 37.1716 31.3117 36.8466 31.9922 36.8466C32.6726 36.8466 33.3531 37.1716 33.9726 37.7911L36.3898 40.2083C36.6539 40.4724 36.9281 40.7364 37.2023 41.0005C37.7101 41.4981 38.2586 42.0263 38.7562 42.5747L38.7969 42.6153C39.193 43.0114 39.65 43.6614 39.65 44.5044C39.6601 45.1747 39.3656 45.845 38.7969 46.4341Z" fill="#343F52"/>
<path d="M28.1633 26.2638H24.4563C24.4664 25.8169 25.157 25.3498 25.9492 24.8115C27.3102 23.8771 28.9961 22.7193 28.9961 20.7083C28.9961 18.6365 27.1578 17.5193 25.4313 17.5193C23.7453 17.5193 21.968 18.5552 21.968 20.4849C21.968 21.3685 22.3641 21.8255 23.1461 21.8255C24.0195 21.8255 24.4969 21.3177 24.4969 20.8404C24.4969 20.0482 25.0148 19.8857 25.4516 19.8857C26.1727 19.8857 26.4266 20.3732 26.4266 20.7794C26.4266 21.5919 25.4211 22.3232 24.3547 23.1052C23.0953 24.0294 21.7953 24.9841 21.7953 26.274V27.6958C21.7953 28.224 22.4656 28.549 22.943 28.549H28.1734C28.6203 28.549 29.0063 28.0107 29.0063 27.3912C29.0063 26.7716 28.6203 26.2638 28.1633 26.2638Z" fill="#343F52"/>
<path d="M35.9937 23.877H35.5062V22.9934C35.5062 22.4856 34.9984 22.1606 34.2164 22.1606C33.4344 22.1606 32.9266 22.4856 32.9266 22.9934V23.877H32.043L34.5414 18.87C34.5922 18.7684 34.6226 18.6465 34.6226 18.5348C34.6226 17.9051 33.7898 17.5192 33.3328 17.5192C32.8656 17.509 32.4391 17.7731 32.2461 18.1895L28.8539 24.8419C28.7726 24.9942 28.7219 25.1669 28.7219 25.3497C28.7219 25.9083 29.0875 26.2942 29.6359 26.2942H32.9266V27.7059C32.9266 28.295 33.5969 28.559 34.2164 28.559C34.8359 28.559 35.5062 28.295 35.5062 27.7059V26.2942H35.9937C36.4305 26.2942 36.8469 25.7051 36.8469 25.0856C36.8469 24.5067 36.5828 23.877 35.9937 23.877Z" fill="#343F52"/>
</svg>
