<svg width="275" height="153" viewBox="0 0 275 153" fill="none" xmlns="http://www.w3.org/2000/svg">
<path d="M102.648 110.41L113.688 83.3302H99.848V81.6102H115.488V83.3302L104.448 110.41H102.648ZM128.786 111.01C127.266 111.01 125.872 110.703 124.606 110.09C123.339 109.463 122.266 108.61 121.386 107.53C120.506 106.437 119.879 105.197 119.506 103.81L121.106 103.37C121.412 104.583 121.952 105.637 122.726 106.53C123.499 107.41 124.412 108.09 125.466 108.57C126.519 109.05 127.626 109.29 128.786 109.29C130.292 109.29 131.639 108.93 132.826 108.21C134.026 107.477 134.972 106.51 135.666 105.31C136.359 104.11 136.706 102.797 136.706 101.37C136.706 99.8768 136.339 98.5368 135.606 97.3502C134.872 96.1502 133.906 95.2035 132.706 94.5102C131.506 93.8035 130.199 93.4502 128.786 93.4502C127.266 93.4502 125.926 93.8102 124.766 94.5302C123.606 95.2502 122.666 96.2102 121.946 97.4102L120.226 96.4102L121.106 81.6102H136.306V83.2902H121.546L122.786 82.1302L121.906 96.3702L121.266 95.4502C122.132 94.3302 123.219 93.4368 124.526 92.7702C125.832 92.1035 127.252 91.7702 128.786 91.7702C130.532 91.7702 132.132 92.2035 133.586 93.0702C135.039 93.9368 136.199 95.0968 137.066 96.5502C137.946 98.0035 138.386 99.6102 138.386 101.37C138.386 103.103 137.952 104.703 137.086 106.17C136.219 107.623 135.059 108.797 133.606 109.69C132.152 110.57 130.546 111.01 128.786 111.01ZM148.236 110.41V83.5702L142.796 86.8102V84.8502L148.236 81.6102H149.916V110.41H148.236ZM165.892 111.01C164.159 111.01 162.632 110.67 161.312 109.99C160.006 109.31 158.979 108.343 158.232 107.09C157.499 105.837 157.132 104.343 157.132 102.61C157.132 100.69 157.606 99.0235 158.552 97.6102C159.512 96.1835 160.999 95.1435 163.012 94.4902V95.4102C161.279 95.0502 159.972 94.2102 159.092 92.8902C158.212 91.5568 157.772 90.0902 157.772 88.4902C157.772 86.9168 158.119 85.5768 158.812 84.4702C159.519 83.3502 160.479 82.4968 161.692 81.9102C162.919 81.3102 164.319 81.0102 165.892 81.0102C167.466 81.0102 168.859 81.3102 170.072 81.9102C171.299 82.4968 172.259 83.3502 172.952 84.4702C173.659 85.5768 174.012 86.9168 174.012 88.4902C174.012 90.0902 173.586 91.5502 172.732 92.8702C171.892 94.1768 170.599 95.0102 168.852 95.3702L168.692 94.4902C170.719 95.1435 172.226 96.1835 173.212 97.6102C174.199 99.0235 174.692 100.69 174.692 102.61C174.692 104.343 174.319 105.837 173.572 107.09C172.826 108.343 171.792 109.31 170.472 109.99C169.152 110.67 167.626 111.01 165.892 111.01ZM165.892 109.33C167.972 109.33 169.659 108.75 170.952 107.59C172.246 106.43 172.892 104.77 172.892 102.61C172.892 100.41 172.252 98.7435 170.972 97.6102C169.706 96.4635 168.012 95.8902 165.892 95.8902C163.772 95.8902 162.072 96.4635 160.792 97.6102C159.526 98.7435 158.892 100.41 158.892 102.61C158.892 104.77 159.539 106.43 160.832 107.59C162.126 108.75 163.812 109.33 165.892 109.33ZM165.892 94.2102C167.772 94.2102 169.292 93.7302 170.452 92.7702C171.626 91.7968 172.212 90.3702 172.212 88.4902C172.212 86.6102 171.626 85.1968 170.452 84.2502C169.292 83.2902 167.772 82.8102 165.892 82.8102C164.012 82.8102 162.486 83.2902 161.312 84.2502C160.152 85.1968 159.572 86.6102 159.572 88.4902C159.572 90.3702 160.152 91.7968 161.312 92.7702C162.486 93.7302 164.012 94.2102 165.892 94.2102Z" fill="#343F52"/>
<path d="M72.3824 145.05C71.2357 145.05 70.2784 144.794 69.5104 144.282C68.7477 143.77 68.1744 143.063 67.7904 142.162C67.4064 141.261 67.2144 140.223 67.2144 139.05C67.2144 137.877 67.4064 136.839 67.7904 135.938C68.1744 135.037 68.7477 134.33 69.5104 133.818C70.2784 133.306 71.2357 133.05 72.3824 133.05C73.7264 133.05 74.809 133.402 75.6304 134.106C76.4517 134.805 77.0064 135.738 77.2944 136.906L76.5904 137.066C76.3344 136.047 75.8544 135.237 75.1504 134.634C74.4517 134.026 73.529 133.722 72.3824 133.722C71.3957 133.722 70.5744 133.949 69.9184 134.402C69.2677 134.855 68.777 135.485 68.4464 136.29C68.1157 137.09 67.945 138.01 67.9344 139.05C67.9237 140.09 68.0837 141.01 68.4144 141.81C68.745 142.61 69.241 143.239 69.9024 143.698C70.569 144.151 71.3957 144.378 72.3824 144.378C73.529 144.378 74.4517 144.074 75.1504 143.466C75.8544 142.858 76.3344 142.047 76.5904 141.034L77.2944 141.194C77.0064 142.362 76.4517 143.298 75.6304 144.002C74.809 144.701 73.7264 145.05 72.3824 145.05ZM82.5295 145.05C81.6761 145.05 80.9561 144.855 80.3695 144.466C79.7828 144.077 79.3375 143.538 79.0335 142.85C78.7295 142.162 78.5775 141.37 78.5775 140.474C78.5775 139.567 78.7321 138.773 79.0415 138.09C79.3508 137.407 79.7988 136.877 80.3855 136.498C80.9775 136.119 81.6921 135.93 82.5295 135.93C83.3881 135.93 84.1108 136.125 84.6975 136.514C85.2841 136.898 85.7268 137.431 86.0255 138.114C86.3295 138.797 86.4815 139.583 86.4815 140.474C86.4815 141.386 86.3295 142.186 86.0255 142.874C85.7215 143.557 85.2735 144.09 84.6815 144.474C84.0948 144.858 83.3775 145.05 82.5295 145.05ZM82.5295 144.378C83.6175 144.378 84.4281 144.018 84.9615 143.298C85.4948 142.573 85.7615 141.631 85.7615 140.474C85.7615 139.295 85.4921 138.357 84.9535 137.658C84.4201 136.954 83.6121 136.602 82.5295 136.602C81.7988 136.602 81.1935 136.767 80.7135 137.098C80.2388 137.429 79.8841 137.885 79.6495 138.466C79.4148 139.047 79.2975 139.717 79.2975 140.474C79.2975 141.647 79.5695 142.591 80.1135 143.306C80.6628 144.021 81.4681 144.378 82.5295 144.378ZM98.501 144.81L98.517 138.858C98.517 138.138 98.3063 137.573 97.885 137.162C97.4636 136.746 96.9436 136.538 96.325 136.538C95.9836 136.538 95.637 136.615 95.285 136.77C94.9383 136.925 94.645 137.186 94.405 137.554C94.1703 137.922 94.053 138.426 94.053 139.066H93.461C93.4343 138.431 93.5436 137.879 93.789 137.41C94.0396 136.941 94.389 136.578 94.837 136.322C95.285 136.061 95.797 135.93 96.373 135.93C97.189 135.93 97.861 136.186 98.389 136.698C98.9223 137.21 99.189 137.914 99.189 138.81L99.173 144.81H98.501ZM88.245 144.81V136.17H88.869V137.93H88.917V144.81H88.245ZM93.381 144.81L93.397 138.97C93.397 138.223 93.189 137.631 92.773 137.194C92.3623 136.757 91.829 136.538 91.173 136.538C90.501 136.538 89.957 136.767 89.541 137.226C89.125 137.685 88.917 138.298 88.917 139.066L88.325 138.81C88.325 138.255 88.4503 137.762 88.701 137.33C88.9516 136.893 89.2956 136.551 89.733 136.306C90.1756 136.055 90.6823 135.93 91.253 135.93C91.7383 135.93 92.1943 136.034 92.621 136.242C93.0476 136.445 93.3916 136.762 93.653 137.194C93.9196 137.626 94.053 138.181 94.053 138.858L94.037 144.81H93.381ZM104.972 145.05C104.21 145.05 103.562 144.847 103.028 144.442C102.495 144.037 102.087 143.49 101.804 142.802C101.527 142.109 101.388 141.333 101.388 140.474C101.388 139.599 101.53 138.821 101.812 138.138C102.095 137.45 102.511 136.911 103.06 136.522C103.615 136.127 104.295 135.93 105.1 135.93C105.874 135.93 106.53 136.133 107.068 136.538C107.612 136.938 108.026 137.482 108.308 138.17C108.591 138.858 108.732 139.626 108.732 140.474C108.732 141.338 108.588 142.117 108.3 142.81C108.012 143.498 107.588 144.045 107.028 144.45C106.474 144.85 105.788 145.05 104.972 145.05ZM101.276 148.65V136.17H101.9V142.97H101.948V148.65H101.276ZM104.972 144.378C105.639 144.378 106.196 144.207 106.644 143.866C107.098 143.525 107.439 143.061 107.668 142.474C107.898 141.882 108.012 141.215 108.012 140.474C108.012 139.738 107.9 139.079 107.676 138.498C107.458 137.911 107.124 137.45 106.676 137.114C106.228 136.773 105.66 136.602 104.972 136.602C104.3 136.602 103.735 136.767 103.276 137.098C102.823 137.429 102.479 137.887 102.244 138.474C102.015 139.055 101.9 139.722 101.9 140.474C101.9 141.215 102.015 141.882 102.244 142.474C102.474 143.061 102.815 143.525 103.268 143.866C103.727 144.207 104.295 144.378 104.972 144.378ZM110.655 144.81V133.05H111.327V144.81H110.655ZM117.201 145.05C116.385 145.05 115.681 144.866 115.089 144.498C114.503 144.13 114.049 143.605 113.729 142.922C113.409 142.239 113.249 141.429 113.249 140.49C113.249 139.546 113.407 138.733 113.721 138.05C114.041 137.367 114.495 136.845 115.081 136.482C115.673 136.114 116.38 135.93 117.201 135.93C118.028 135.93 118.735 136.117 119.321 136.49C119.908 136.863 120.356 137.405 120.665 138.114C120.98 138.823 121.137 139.679 121.137 140.682H120.417V140.458C120.385 139.215 120.092 138.263 119.537 137.602C118.988 136.935 118.209 136.602 117.201 136.602C116.177 136.602 115.383 136.943 114.817 137.626C114.252 138.303 113.969 139.258 113.969 140.49C113.969 141.722 114.252 142.679 114.817 143.362C115.383 144.039 116.177 144.378 117.201 144.378C117.916 144.378 118.543 144.21 119.081 143.874C119.62 143.538 120.049 143.055 120.369 142.426L120.929 142.746C120.577 143.482 120.079 144.05 119.433 144.45C118.788 144.85 118.044 145.05 117.201 145.05ZM113.681 140.682V140.01H120.721V140.682H113.681ZM127.365 144.81C126.933 144.906 126.507 144.941 126.085 144.914C125.664 144.893 125.288 144.794 124.957 144.618C124.627 144.437 124.379 144.165 124.213 143.802C124.085 143.519 124.013 143.234 123.997 142.946C123.981 142.653 123.973 142.319 123.973 141.946V133.77H124.645V141.946C124.645 142.319 124.648 142.621 124.653 142.85C124.664 143.079 124.72 143.295 124.821 143.498C125.013 143.882 125.317 144.119 125.733 144.21C126.149 144.295 126.693 144.282 127.365 144.17V144.81ZM121.941 136.842V136.17H127.365V136.842H121.941ZM132.201 145.05C131.385 145.05 130.681 144.866 130.089 144.498C129.503 144.13 129.049 143.605 128.729 142.922C128.409 142.239 128.249 141.429 128.249 140.49C128.249 139.546 128.407 138.733 128.721 138.05C129.041 137.367 129.495 136.845 130.081 136.482C130.673 136.114 131.38 135.93 132.201 135.93C133.028 135.93 133.735 136.117 134.321 136.49C134.908 136.863 135.356 137.405 135.665 138.114C135.98 138.823 136.137 139.679 136.137 140.682H135.417V140.458C135.385 139.215 135.092 138.263 134.537 137.602C133.988 136.935 133.209 136.602 132.201 136.602C131.177 136.602 130.383 136.943 129.817 137.626C129.252 138.303 128.969 139.258 128.969 140.49C128.969 141.722 129.252 142.679 129.817 143.362C130.383 144.039 131.177 144.378 132.201 144.378C132.916 144.378 133.543 144.21 134.081 143.874C134.62 143.538 135.049 143.055 135.369 142.426L135.929 142.746C135.577 143.482 135.079 144.05 134.433 144.45C133.788 144.85 133.044 145.05 132.201 145.05ZM128.681 140.682V140.01H135.721V140.682H128.681ZM141.181 145.05C140.365 145.05 139.677 144.85 139.117 144.45C138.563 144.045 138.141 143.498 137.853 142.81C137.565 142.117 137.421 141.338 137.421 140.474C137.421 139.626 137.563 138.858 137.845 138.17C138.128 137.482 138.539 136.938 139.077 136.538C139.621 136.133 140.28 135.93 141.053 135.93C141.859 135.93 142.536 136.127 143.085 136.522C143.64 136.911 144.059 137.45 144.341 138.138C144.624 138.821 144.765 139.599 144.765 140.474C144.765 141.333 144.624 142.109 144.341 142.802C144.064 143.49 143.659 144.037 143.125 144.442C142.592 144.847 141.944 145.05 141.181 145.05ZM141.181 144.378C141.859 144.378 142.424 144.207 142.877 143.866C143.336 143.525 143.68 143.061 143.909 142.474C144.139 141.882 144.253 141.215 144.253 140.474C144.253 139.722 144.136 139.055 143.901 138.474C143.672 137.887 143.328 137.429 142.869 137.098C142.416 136.767 141.853 136.602 141.181 136.602C140.493 136.602 139.923 136.773 139.469 137.114C139.021 137.45 138.688 137.911 138.469 138.498C138.251 139.079 138.141 139.738 138.141 140.474C138.141 141.215 138.256 141.882 138.485 142.474C138.715 143.061 139.053 143.525 139.501 143.866C139.955 144.207 140.515 144.378 141.181 144.378ZM144.253 144.81V138.01H144.205V133.29H144.877V144.81H144.253ZM150.323 144.81V133.29H154.563C154.675 133.29 154.79 133.295 154.907 133.306C155.024 133.311 155.155 133.327 155.299 133.354C155.854 133.439 156.334 133.642 156.739 133.962C157.15 134.277 157.464 134.677 157.683 135.162C157.907 135.642 158.019 136.17 158.019 136.746C158.019 137.322 157.907 137.853 157.683 138.338C157.464 138.818 157.15 139.218 156.739 139.538C156.334 139.853 155.854 140.053 155.299 140.138C155.155 140.159 155.024 140.175 154.907 140.186C154.79 140.197 154.675 140.202 154.563 140.202H150.995V144.81H150.323ZM150.995 139.53H154.563C154.654 139.53 154.76 139.525 154.883 139.514C155.011 139.503 155.139 139.487 155.267 139.466C155.71 139.381 156.08 139.205 156.379 138.938C156.683 138.671 156.912 138.349 157.067 137.97C157.222 137.586 157.299 137.178 157.299 136.746C157.299 136.314 157.222 135.909 157.067 135.53C156.912 135.146 156.683 134.821 156.379 134.554C156.08 134.287 155.71 134.111 155.267 134.026C155.139 133.999 155.011 133.983 154.883 133.978C154.76 133.967 154.654 133.962 154.563 133.962H150.995V139.53ZM159.62 144.81V136.17H160.244V138.234L160.036 137.962C160.127 137.727 160.241 137.509 160.38 137.306C160.519 137.103 160.655 136.938 160.788 136.81C161.023 136.581 161.3 136.407 161.62 136.29C161.945 136.167 162.271 136.098 162.596 136.082C162.921 136.061 163.209 136.09 163.46 136.17V136.81C163.103 136.73 162.724 136.717 162.324 136.77C161.924 136.818 161.551 137.002 161.204 137.322C160.9 137.605 160.684 137.93 160.556 138.298C160.433 138.666 160.359 139.047 160.332 139.442C160.305 139.831 160.292 140.202 160.292 140.554V144.81H159.62ZM168.295 145.05C167.442 145.05 166.722 144.855 166.135 144.466C165.548 144.077 165.103 143.538 164.799 142.85C164.495 142.162 164.343 141.37 164.343 140.474C164.343 139.567 164.498 138.773 164.807 138.09C165.116 137.407 165.564 136.877 166.151 136.498C166.743 136.119 167.458 135.93 168.295 135.93C169.154 135.93 169.876 136.125 170.463 136.514C171.05 136.898 171.492 137.431 171.791 138.114C172.095 138.797 172.247 139.583 172.247 140.474C172.247 141.386 172.095 142.186 171.791 142.874C171.487 143.557 171.039 144.09 170.447 144.474C169.86 144.858 169.143 145.05 168.295 145.05ZM168.295 144.378C169.383 144.378 170.194 144.018 170.727 143.298C171.26 142.573 171.527 141.631 171.527 140.474C171.527 139.295 171.258 138.357 170.719 137.658C170.186 136.954 169.378 136.602 168.295 136.602C167.564 136.602 166.959 136.767 166.479 137.098C166.004 137.429 165.65 137.885 165.415 138.466C165.18 139.047 165.063 139.717 165.063 140.474C165.063 141.647 165.335 142.591 165.879 143.306C166.428 144.021 167.234 144.378 168.295 144.378ZM172.731 148.65V147.962H173.275C173.611 147.962 173.904 147.866 174.155 147.674C174.411 147.487 174.539 147.146 174.539 146.65V136.17H175.211V146.57C175.211 147.306 175.059 147.837 174.755 148.162C174.456 148.487 173.957 148.65 173.259 148.65H172.731ZM174.539 134.314V133.29H175.211V134.314H174.539ZM181.076 145.05C180.26 145.05 179.556 144.866 178.964 144.498C178.378 144.13 177.924 143.605 177.604 142.922C177.284 142.239 177.124 141.429 177.124 140.49C177.124 139.546 177.282 138.733 177.596 138.05C177.916 137.367 178.37 136.845 178.956 136.482C179.548 136.114 180.255 135.93 181.076 135.93C181.903 135.93 182.61 136.117 183.196 136.49C183.783 136.863 184.231 137.405 184.54 138.114C184.855 138.823 185.012 139.679 185.012 140.682H184.292V140.458C184.26 139.215 183.967 138.263 183.412 137.602C182.863 136.935 182.084 136.602 181.076 136.602C180.052 136.602 179.258 136.943 178.692 137.626C178.127 138.303 177.844 139.258 177.844 140.49C177.844 141.722 178.127 142.679 178.692 143.362C179.258 144.039 180.052 144.378 181.076 144.378C181.791 144.378 182.418 144.21 182.956 143.874C183.495 143.538 183.924 143.055 184.244 142.426L184.804 142.746C184.452 143.482 183.954 144.05 183.308 144.45C182.663 144.85 181.919 145.05 181.076 145.05ZM177.556 140.682V140.01H184.596V140.682H177.556ZM190.248 145.05C189.39 145.05 188.67 144.858 188.088 144.474C187.507 144.09 187.067 143.557 186.768 142.874C186.47 142.186 186.312 141.391 186.296 140.49C186.312 139.567 186.47 138.765 186.768 138.082C187.072 137.399 187.515 136.871 188.096 136.498C188.678 136.119 189.395 135.93 190.248 135.93C191.048 135.93 191.76 136.122 192.384 136.506C193.014 136.885 193.459 137.407 193.72 138.074L193.08 138.346C192.84 137.791 192.47 137.362 191.968 137.058C191.472 136.754 190.899 136.602 190.248 136.602C189.523 136.602 188.923 136.767 188.448 137.098C187.974 137.423 187.619 137.879 187.384 138.466C187.15 139.047 187.027 139.722 187.016 140.49C187.032 141.663 187.31 142.605 187.848 143.314C188.387 144.023 189.187 144.378 190.248 144.378C190.883 144.378 191.446 144.231 191.936 143.938C192.427 143.645 192.803 143.215 193.064 142.65L193.72 142.938C193.363 143.631 192.891 144.157 192.304 144.514C191.718 144.871 191.032 145.05 190.248 145.05ZM199.865 144.81C199.433 144.906 199.007 144.941 198.585 144.914C198.164 144.893 197.788 144.794 197.457 144.618C197.127 144.437 196.879 144.165 196.713 143.802C196.585 143.519 196.513 143.234 196.497 142.946C196.481 142.653 196.473 142.319 196.473 141.946V133.77H197.145V141.946C197.145 142.319 197.148 142.621 197.153 142.85C197.164 143.079 197.22 143.295 197.321 143.498C197.513 143.882 197.817 144.119 198.233 144.21C198.649 144.295 199.193 144.282 199.865 144.17V144.81ZM194.441 136.842V136.17H199.865V136.842H194.441ZM204.616 145.034C203.64 145.034 202.829 144.831 202.184 144.426C201.538 144.015 201.138 143.45 200.984 142.73L201.672 142.602C201.816 143.135 202.152 143.562 202.68 143.882C203.213 144.202 203.864 144.362 204.632 144.362C205.416 144.362 206.037 144.194 206.496 143.858C206.96 143.522 207.192 143.066 207.192 142.49C207.192 142.175 207.122 141.919 206.984 141.722C206.845 141.519 206.573 141.335 206.168 141.17C205.768 141.005 205.176 140.815 204.392 140.602C203.57 140.378 202.93 140.162 202.472 139.954C202.018 139.741 201.698 139.503 201.512 139.242C201.33 138.975 201.24 138.65 201.24 138.266C201.24 137.807 201.376 137.402 201.648 137.05C201.92 136.698 202.296 136.423 202.776 136.226C203.256 136.029 203.81 135.93 204.44 135.93C205.074 135.93 205.645 136.037 206.152 136.25C206.664 136.458 207.074 136.751 207.384 137.13C207.698 137.503 207.88 137.935 207.928 138.426L207.24 138.554C207.138 137.951 206.829 137.477 206.312 137.13C205.8 136.778 205.16 136.602 204.392 136.602C203.672 136.591 203.082 136.738 202.624 137.042C202.17 137.346 201.944 137.743 201.944 138.234C201.944 138.506 202.021 138.741 202.176 138.938C202.33 139.13 202.6 139.306 202.984 139.466C203.368 139.626 203.901 139.791 204.584 139.962C205.448 140.181 206.12 140.402 206.6 140.626C207.085 140.85 207.424 141.111 207.616 141.41C207.813 141.709 207.912 142.079 207.912 142.522C207.912 143.306 207.618 143.922 207.032 144.37C206.445 144.813 205.64 145.034 204.616 145.034Z" fill="#60697B"/>
<path d="M137.5 60.4103C120.962 60.4103 107.5 46.9484 107.5 30.4103C107.5 23.1007 110.166 16.0402 115 10.5617C115.645 9.82926 116.758 9.75601 117.49 10.4005C118.223 11.0451 118.296 12.1584 117.651 12.8908C113.389 17.7248 111.03 23.9503 111.03 30.3957C111.03 44.9855 122.91 56.8654 137.5 56.8654C152.09 56.8654 163.97 44.9855 163.97 30.3957C163.97 15.8058 152.09 3.94058 137.5 3.94058C133.501 3.92594 129.561 4.83414 125.972 6.5773C125.093 7.00211 124.038 6.6359 123.613 5.75699C123.188 4.87808 123.555 3.8234 124.434 3.39859C128.506 1.42105 132.974 0.395663 137.5 0.410311C154.038 0.410311 167.5 13.8722 167.5 30.4103C167.5 46.9484 154.038 60.4103 137.5 60.4103Z" fill="#343F52"/>
<path d="M158.682 30.4102C158.682 42.0996 149.204 51.5918 137.5 51.5918C125.796 51.5918 116.318 42.0996 116.318 30.4102C116.318 18.7207 125.811 9.22852 137.5 9.22852C149.189 9.22852 158.682 18.7207 158.682 30.4102Z" fill="#8CAEEC"/>
<path d="M137.5 53.3496C124.844 53.3496 114.561 43.0664 114.561 30.4102C114.561 17.7539 124.844 7.4707 137.5 7.4707C150.156 7.4707 160.439 17.7539 160.439 30.4102C160.439 43.0664 150.156 53.3496 137.5 53.3496ZM137.5 11.001C126.792 11.001 118.091 19.7021 118.091 30.4102C118.091 41.1182 126.792 49.8193 137.5 49.8193C148.208 49.8193 156.909 41.1035 156.909 30.4102C156.909 19.7168 148.208 11.001 137.5 11.001Z" fill="#343F52"/>
<path d="M136.929 36.5481C135.64 36.5481 134.409 36.0354 133.486 35.1272L128.74 30.3665C128.052 29.678 128.052 28.5647 128.74 27.8762C129.429 27.1877 130.542 27.1877 131.23 27.8762L135.991 32.637C136.519 33.1497 137.354 33.1497 137.866 32.637L145.161 25.3274C145.85 24.6389 146.963 24.6389 147.651 25.3274C148.34 26.0159 148.34 27.1292 147.651 27.8176L140.371 35.1272C139.463 36.0354 138.218 36.5481 136.929 36.5481Z" fill="#343F52"/>
</svg>
