<svg width="275" height="153" viewBox="0 0 275 153" fill="none" xmlns="http://www.w3.org/2000/svg">
<path d="M104.957 111.01C103.543 111.01 102.263 110.777 101.117 110.31C99.9699 109.843 98.9899 109.17 98.1765 108.29C97.3632 107.397 96.7565 106.33 96.3565 105.09L97.9165 104.53C98.5032 106.143 99.4165 107.357 100.657 108.17C101.897 108.983 103.317 109.37 104.917 109.33C106.423 109.29 107.697 108.957 108.737 108.33C109.777 107.703 110.563 106.837 111.097 105.73C111.643 104.61 111.917 103.29 111.917 101.77C111.917 99.4502 111.27 97.6168 109.977 96.2702C108.697 94.9235 106.983 94.2502 104.837 94.2502C104.263 94.2502 103.637 94.3302 102.957 94.4902C102.29 94.6502 101.677 94.8635 101.117 95.1302L100.117 93.7702L112.317 82.0502L112.837 83.2902H97.5165V81.6102H113.477V83.3302L102.397 93.8902L102.357 92.8902C104.517 92.3835 106.45 92.4368 108.157 93.0502C109.877 93.6635 111.23 94.7302 112.217 96.2502C113.217 97.7568 113.717 99.5968 113.717 101.77C113.717 103.637 113.35 105.263 112.617 106.65C111.883 108.037 110.857 109.11 109.537 109.87C108.23 110.63 106.703 111.01 104.957 111.01ZM132.084 110.41V104.29H118.124V102.61L128.044 81.6102H129.884L119.964 102.61H132.084V93.6102H133.764V102.61H137.204V104.29H133.764V110.41H132.084ZM143.61 110.41L154.65 83.3302H140.81V81.6102H156.45V83.3302L145.41 110.41H143.61ZM160.467 110.41L160.507 108.73L173.987 96.4502C175.214 95.3435 176.007 94.2835 176.367 93.2702C176.727 92.2435 176.907 91.1302 176.907 89.9302C176.907 88.5968 176.581 87.3835 175.927 86.2902C175.274 85.1968 174.401 84.3235 173.307 83.6702C172.214 83.0168 171.001 82.6902 169.667 82.6902C168.294 82.6902 167.061 83.0235 165.967 83.6902C164.874 84.3568 164.007 85.2435 163.367 86.3502C162.741 87.4435 162.427 88.6368 162.427 89.9302H160.747C160.747 88.2902 161.147 86.7968 161.947 85.4502C162.761 84.0902 163.841 83.0102 165.187 82.2102C166.534 81.4102 168.027 81.0102 169.667 81.0102C171.347 81.0102 172.861 81.4235 174.207 82.2502C175.554 83.0635 176.621 84.1502 177.407 85.5102C178.194 86.8568 178.587 88.3302 178.587 89.9302C178.587 91.0235 178.467 92.0168 178.227 92.9102C178.001 93.8035 177.627 94.6368 177.107 95.4102C176.601 96.1835 175.934 96.9435 175.107 97.6902L161.667 109.93L161.187 108.73H178.587V110.41H160.467Z" fill="#343F52"/>
<path d="M70.013 145.05C69.2343 145.05 68.533 144.925 67.909 144.674C67.2903 144.418 66.7756 144.058 66.365 143.594C65.9596 143.13 65.6876 142.581 65.549 141.946L66.221 141.818C66.429 142.607 66.8716 143.231 67.549 143.69C68.2263 144.149 69.0476 144.378 70.013 144.378C70.685 144.378 71.2716 144.271 71.773 144.058C72.2743 143.845 72.6636 143.546 72.941 143.162C73.2183 142.773 73.357 142.319 73.357 141.802C73.357 141.413 73.285 141.087 73.141 140.826C72.997 140.565 72.813 140.354 72.589 140.194C72.3703 140.029 72.141 139.898 71.901 139.802C71.661 139.706 71.4476 139.631 71.261 139.578L68.381 138.714C67.965 138.591 67.605 138.442 67.301 138.266C67.0023 138.09 66.757 137.89 66.565 137.666C66.373 137.442 66.229 137.197 66.133 136.93C66.0423 136.663 65.997 136.378 65.997 136.074C65.997 135.487 66.1543 134.967 66.469 134.514C66.789 134.055 67.2316 133.698 67.797 133.442C68.3623 133.181 69.0156 133.05 69.757 133.05C70.509 133.05 71.1836 133.189 71.781 133.466C72.3783 133.743 72.8663 134.135 73.245 134.642C73.629 135.143 73.869 135.733 73.965 136.41L73.293 136.538C73.2183 135.978 73.021 135.487 72.701 135.066C72.381 134.639 71.9676 134.309 71.461 134.074C70.9543 133.839 70.3863 133.722 69.757 133.722C69.1543 133.722 68.6236 133.826 68.165 134.034C67.7116 134.242 67.357 134.522 67.101 134.874C66.845 135.226 66.717 135.621 66.717 136.058C66.717 136.517 66.8396 136.885 67.085 137.162C67.3356 137.434 67.6396 137.647 67.997 137.802C68.3543 137.951 68.6956 138.074 69.021 138.17L71.405 138.89C71.6076 138.949 71.8556 139.037 72.149 139.154C72.4423 139.266 72.7303 139.429 73.013 139.642C73.301 139.855 73.5383 140.138 73.725 140.49C73.917 140.837 74.013 141.274 74.013 141.802C74.013 142.298 73.9196 142.746 73.733 143.146C73.5463 143.546 73.277 143.887 72.925 144.17C72.573 144.453 72.1516 144.669 71.661 144.818C71.1703 144.973 70.621 145.05 70.013 145.05ZM78.1228 145.05C77.4508 145.05 76.8935 144.933 76.4508 144.698C76.0082 144.463 75.6775 144.154 75.4588 143.77C75.2402 143.386 75.1308 142.97 75.1308 142.522C75.1308 142.015 75.2402 141.597 75.4588 141.266C75.6828 140.93 75.9735 140.666 76.3308 140.474C76.6882 140.282 77.0722 140.143 77.4828 140.058C77.9842 139.957 78.5202 139.869 79.0908 139.794C79.6668 139.714 80.1975 139.647 80.6828 139.594C81.1682 139.541 81.5308 139.498 81.7708 139.466L81.5308 139.626C81.5575 138.607 81.3708 137.85 80.9708 137.354C80.5762 136.853 79.8775 136.602 78.8748 136.602C78.1495 136.602 77.5655 136.765 77.1228 137.09C76.6855 137.41 76.3788 137.903 76.2028 138.57L75.4668 138.378C75.6588 137.578 76.0508 136.97 76.6428 136.554C77.2402 136.138 77.9948 135.93 78.9068 135.93C79.7068 135.93 80.3735 136.093 80.9068 136.418C81.4402 136.743 81.8028 137.183 81.9948 137.738C82.0695 137.951 82.1228 138.21 82.1548 138.514C82.1868 138.818 82.2028 139.114 82.2028 139.402V144.81H81.5788V142.442L81.8988 142.458C81.6695 143.279 81.2135 143.917 80.5308 144.37C79.8482 144.823 79.0455 145.05 78.1228 145.05ZM78.0908 144.378C78.7148 144.378 79.2642 144.266 79.7388 144.042C80.2188 143.818 80.6055 143.495 80.8988 143.074C81.1975 142.647 81.3868 142.138 81.4668 141.546C81.5095 141.247 81.5308 140.927 81.5308 140.586C81.5308 140.245 81.5308 139.999 81.5308 139.85L81.8828 140.122C81.6002 140.149 81.2082 140.186 80.7068 140.234C80.2108 140.277 79.6855 140.335 79.1308 140.41C78.5762 140.479 78.0748 140.57 77.6268 140.682C77.3655 140.746 77.0962 140.847 76.8188 140.986C76.5415 141.125 76.3068 141.319 76.1148 141.57C75.9282 141.821 75.8348 142.143 75.8348 142.538C75.8348 142.815 75.9042 143.095 76.0428 143.378C76.1815 143.661 76.4135 143.898 76.7388 144.09C77.0695 144.282 77.5202 144.378 78.0908 144.378ZM88.7467 144.81C88.3147 144.906 87.888 144.941 87.4667 144.914C87.0454 144.893 86.6694 144.794 86.3387 144.618C86.008 144.437 85.76 144.165 85.5947 143.802C85.4667 143.519 85.3947 143.234 85.3787 142.946C85.3627 142.653 85.3547 142.319 85.3547 141.946V133.77H86.0267V141.946C86.0267 142.319 86.0294 142.621 86.0347 142.85C86.0454 143.079 86.1014 143.295 86.2027 143.498C86.3947 143.882 86.6987 144.119 87.1147 144.21C87.5307 144.295 88.0747 144.282 88.7467 144.17V144.81ZM83.3227 136.842V136.17H88.7467V136.842H83.3227ZM90.5052 134.314V133.29H91.1772V134.314H90.5052ZM90.5052 144.81V136.17H91.1772V144.81H90.5052ZM96.7316 145.034C95.7556 145.034 94.9449 144.831 94.2996 144.426C93.6542 144.015 93.2542 143.45 93.0996 142.73L93.7876 142.602C93.9316 143.135 94.2676 143.562 94.7956 143.882C95.3289 144.202 95.9796 144.362 96.7476 144.362C97.5316 144.362 98.1529 144.194 98.6116 143.858C99.0756 143.522 99.3076 143.066 99.3076 142.49C99.3076 142.175 99.2382 141.919 99.0996 141.722C98.9609 141.519 98.6889 141.335 98.2836 141.17C97.8836 141.005 97.2916 140.815 96.5076 140.602C95.6862 140.378 95.0462 140.162 94.5876 139.954C94.1342 139.741 93.8142 139.503 93.6276 139.242C93.4462 138.975 93.3556 138.65 93.3556 138.266C93.3556 137.807 93.4916 137.402 93.7636 137.05C94.0356 136.698 94.4116 136.423 94.8916 136.226C95.3716 136.029 95.9262 135.93 96.5556 135.93C97.1902 135.93 97.7609 136.037 98.2676 136.25C98.7796 136.458 99.1902 136.751 99.4996 137.13C99.8142 137.503 99.9956 137.935 100.044 138.426L99.3556 138.554C99.2542 137.951 98.9449 137.477 98.4276 137.13C97.9156 136.778 97.2756 136.602 96.5076 136.602C95.7876 136.591 95.1982 136.738 94.7396 137.042C94.2862 137.346 94.0596 137.743 94.0596 138.234C94.0596 138.506 94.1369 138.741 94.2916 138.938C94.4462 139.13 94.7156 139.306 95.0996 139.466C95.4836 139.626 96.0169 139.791 96.6996 139.962C97.5636 140.181 98.2356 140.402 98.7156 140.626C99.2009 140.85 99.5396 141.111 99.7316 141.41C99.9289 141.709 100.028 142.079 100.028 142.522C100.028 143.306 99.7342 143.922 99.1476 144.37C98.5609 144.813 97.7556 145.034 96.7316 145.034ZM102.726 144.81V135.194C102.726 134.97 102.74 134.765 102.766 134.578C102.798 134.386 102.852 134.21 102.926 134.05C103.001 133.89 103.105 133.738 103.238 133.594C103.366 133.461 103.508 133.354 103.662 133.274C103.822 133.194 103.998 133.138 104.19 133.106C104.382 133.069 104.593 133.05 104.822 133.05H105.942V133.658H104.902C104.401 133.658 104.025 133.778 103.774 134.018C103.524 134.258 103.398 134.671 103.398 135.258V144.81H102.726ZM101.158 136.842V136.17H105.942V136.842H101.158ZM107.622 134.314V133.29H108.294V134.314H107.622ZM107.622 144.81V136.17H108.294V144.81H107.622ZM114.161 145.05C113.345 145.05 112.641 144.866 112.049 144.498C111.462 144.13 111.009 143.605 110.689 142.922C110.369 142.239 110.209 141.429 110.209 140.49C110.209 139.546 110.366 138.733 110.681 138.05C111.001 137.367 111.454 136.845 112.041 136.482C112.633 136.114 113.34 135.93 114.161 135.93C114.988 135.93 115.694 136.117 116.281 136.49C116.868 136.863 117.316 137.405 117.625 138.114C117.94 138.823 118.097 139.679 118.097 140.682H117.377V140.458C117.345 139.215 117.052 138.263 116.497 137.602C115.948 136.935 115.169 136.602 114.161 136.602C113.137 136.602 112.342 136.943 111.777 137.626C111.212 138.303 110.929 139.258 110.929 140.49C110.929 141.722 111.212 142.679 111.777 143.362C112.342 144.039 113.137 144.378 114.161 144.378C114.876 144.378 115.502 144.21 116.041 143.874C116.58 143.538 117.009 143.055 117.329 142.426L117.889 142.746C117.537 143.482 117.038 144.05 116.393 144.45C115.748 144.85 115.004 145.05 114.161 145.05ZM110.641 140.682V140.01H117.681V140.682H110.641ZM123.141 145.05C122.325 145.05 121.637 144.85 121.077 144.45C120.522 144.045 120.101 143.498 119.813 142.81C119.525 142.117 119.381 141.338 119.381 140.474C119.381 139.626 119.522 138.858 119.805 138.17C120.087 137.482 120.498 136.938 121.037 136.538C121.581 136.133 122.239 135.93 123.013 135.93C123.818 135.93 124.495 136.127 125.045 136.522C125.599 136.911 126.018 137.45 126.301 138.138C126.583 138.821 126.725 139.599 126.725 140.474C126.725 141.333 126.583 142.109 126.301 142.802C126.023 143.49 125.618 144.037 125.085 144.442C124.551 144.847 123.903 145.05 123.141 145.05ZM123.141 144.378C123.818 144.378 124.383 144.207 124.837 143.866C125.295 143.525 125.639 143.061 125.869 142.474C126.098 141.882 126.213 141.215 126.213 140.474C126.213 139.722 126.095 139.055 125.861 138.474C125.631 137.887 125.287 137.429 124.829 137.098C124.375 136.767 123.813 136.602 123.141 136.602C122.453 136.602 121.882 136.773 121.429 137.114C120.981 137.45 120.647 137.911 120.429 138.498C120.21 139.079 120.101 139.738 120.101 140.474C120.101 141.215 120.215 141.882 120.445 142.474C120.674 143.061 121.013 143.525 121.461 143.866C121.914 144.207 122.474 144.378 123.141 144.378ZM126.213 144.81V138.01H126.165V133.29H126.837V144.81H126.213ZM136.811 145.05C135.664 145.05 134.707 144.794 133.939 144.282C133.176 143.77 132.603 143.063 132.219 142.162C131.835 141.261 131.643 140.223 131.643 139.05C131.643 137.877 131.835 136.839 132.219 135.938C132.603 135.037 133.176 134.33 133.939 133.818C134.707 133.306 135.664 133.05 136.811 133.05C138.155 133.05 139.237 133.402 140.059 134.106C140.88 134.805 141.435 135.738 141.723 136.906L141.019 137.066C140.763 136.047 140.283 135.237 139.579 134.634C138.88 134.026 137.957 133.722 136.811 133.722C135.824 133.722 135.003 133.949 134.347 134.402C133.696 134.855 133.205 135.485 132.875 136.29C132.544 137.09 132.373 138.01 132.363 139.05C132.352 140.09 132.512 141.01 132.843 141.81C133.173 142.61 133.669 143.239 134.331 143.698C134.997 144.151 135.824 144.378 136.811 144.378C137.957 144.378 138.88 144.074 139.579 143.466C140.283 142.858 140.763 142.047 141.019 141.034L141.723 141.194C141.435 142.362 140.88 143.298 140.059 144.002C139.237 144.701 138.155 145.05 136.811 145.05ZM146.83 145.002C146.392 145.002 145.99 144.941 145.622 144.818C145.259 144.695 144.934 144.519 144.646 144.29C144.363 144.055 144.123 143.77 143.926 143.434C143.728 143.098 143.579 142.717 143.478 142.29C143.376 141.858 143.326 141.386 143.326 140.874V136.17H143.998V140.746C143.998 141.359 144.059 141.893 144.182 142.346C144.31 142.799 144.496 143.175 144.742 143.474C144.987 143.767 145.283 143.986 145.63 144.13C145.982 144.274 146.382 144.346 146.83 144.346C147.358 144.346 147.806 144.255 148.174 144.074C148.547 143.887 148.848 143.634 149.078 143.314C149.307 142.994 149.475 142.626 149.582 142.21C149.688 141.794 149.742 141.354 149.742 140.89L150.366 140.874C150.366 141.861 150.203 142.658 149.878 143.266C149.552 143.869 149.12 144.309 148.582 144.586C148.048 144.863 147.464 145.002 146.83 145.002ZM149.79 144.81V143.05H149.742V136.17H150.414V144.81H149.79ZM155.81 145.034C154.834 145.034 154.023 144.831 153.378 144.426C152.732 144.015 152.332 143.45 152.178 142.73L152.866 142.602C153.01 143.135 153.346 143.562 153.874 143.882C154.407 144.202 155.058 144.362 155.826 144.362C156.61 144.362 157.231 144.194 157.69 143.858C158.154 143.522 158.386 143.066 158.386 142.49C158.386 142.175 158.316 141.919 158.178 141.722C158.039 141.519 157.767 141.335 157.362 141.17C156.962 141.005 156.37 140.815 155.586 140.602C154.764 140.378 154.124 140.162 153.666 139.954C153.212 139.741 152.892 139.503 152.706 139.242C152.524 138.975 152.434 138.65 152.434 138.266C152.434 137.807 152.57 137.402 152.842 137.05C153.114 136.698 153.49 136.423 153.97 136.226C154.45 136.029 155.004 135.93 155.634 135.93C156.268 135.93 156.839 136.037 157.346 136.25C157.858 136.458 158.268 136.751 158.578 137.13C158.892 137.503 159.074 137.935 159.122 138.426L158.434 138.554C158.332 137.951 158.023 137.477 157.506 137.13C156.994 136.778 156.354 136.602 155.586 136.602C154.866 136.591 154.276 136.738 153.818 137.042C153.364 137.346 153.138 137.743 153.138 138.234C153.138 138.506 153.215 138.741 153.37 138.938C153.524 139.13 153.794 139.306 154.178 139.466C154.562 139.626 155.095 139.791 155.778 139.962C156.642 140.181 157.314 140.402 157.794 140.626C158.279 140.85 158.618 141.111 158.81 141.41C159.007 141.709 159.106 142.079 159.106 142.522C159.106 143.306 158.812 143.922 158.226 144.37C157.639 144.813 156.834 145.034 155.81 145.034ZM165.34 144.81C164.908 144.906 164.482 144.941 164.06 144.914C163.639 144.893 163.263 144.794 162.932 144.618C162.602 144.437 162.354 144.165 162.188 143.802C162.06 143.519 161.988 143.234 161.972 142.946C161.956 142.653 161.948 142.319 161.948 141.946V133.77H162.62V141.946C162.62 142.319 162.623 142.621 162.628 142.85C162.639 143.079 162.695 143.295 162.796 143.498C162.988 143.882 163.292 144.119 163.708 144.21C164.124 144.295 164.668 144.282 165.34 144.17V144.81ZM159.916 136.842V136.17H165.34V136.842H159.916ZM170.177 145.05C169.323 145.05 168.603 144.855 168.017 144.466C167.43 144.077 166.985 143.538 166.681 142.85C166.377 142.162 166.225 141.37 166.225 140.474C166.225 139.567 166.379 138.773 166.689 138.09C166.998 137.407 167.446 136.877 168.033 136.498C168.625 136.119 169.339 135.93 170.177 135.93C171.035 135.93 171.758 136.125 172.345 136.514C172.931 136.898 173.374 137.431 173.673 138.114C173.977 138.797 174.129 139.583 174.129 140.474C174.129 141.386 173.977 142.186 173.673 142.874C173.369 143.557 172.921 144.09 172.329 144.474C171.742 144.858 171.025 145.05 170.177 145.05ZM170.177 144.378C171.265 144.378 172.075 144.018 172.609 143.298C173.142 142.573 173.409 141.631 173.409 140.474C173.409 139.295 173.139 138.357 172.601 137.658C172.067 136.954 171.259 136.602 170.177 136.602C169.446 136.602 168.841 136.767 168.361 137.098C167.886 137.429 167.531 137.885 167.297 138.466C167.062 139.047 166.945 139.717 166.945 140.474C166.945 141.647 167.217 142.591 167.761 143.306C168.31 144.021 169.115 144.378 170.177 144.378ZM186.148 144.81L186.164 138.858C186.164 138.138 185.953 137.573 185.532 137.162C185.111 136.746 184.591 136.538 183.972 136.538C183.631 136.538 183.284 136.615 182.932 136.77C182.585 136.925 182.292 137.186 182.052 137.554C181.817 137.922 181.7 138.426 181.7 139.066H181.108C181.081 138.431 181.191 137.879 181.436 137.41C181.687 136.941 182.036 136.578 182.484 136.322C182.932 136.061 183.444 135.93 184.02 135.93C184.836 135.93 185.508 136.186 186.036 136.698C186.569 137.21 186.836 137.914 186.836 138.81L186.82 144.81H186.148ZM175.892 144.81V136.17H176.516V137.93H176.564V144.81H175.892ZM181.028 144.81L181.044 138.97C181.044 138.223 180.836 137.631 180.42 137.194C180.009 136.757 179.476 136.538 178.82 136.538C178.148 136.538 177.604 136.767 177.188 137.226C176.772 137.685 176.564 138.298 176.564 139.066L175.972 138.81C175.972 138.255 176.097 137.762 176.348 137.33C176.599 136.893 176.943 136.551 177.38 136.306C177.823 136.055 178.329 135.93 178.9 135.93C179.385 135.93 179.841 136.034 180.268 136.242C180.695 136.445 181.039 136.762 181.3 137.194C181.567 137.626 181.7 138.181 181.7 138.858L181.684 144.81H181.028ZM192.395 145.05C191.579 145.05 190.875 144.866 190.283 144.498C189.697 144.13 189.243 143.605 188.923 142.922C188.603 142.239 188.443 141.429 188.443 140.49C188.443 139.546 188.601 138.733 188.915 138.05C189.235 137.367 189.689 136.845 190.275 136.482C190.867 136.114 191.574 135.93 192.395 135.93C193.222 135.93 193.929 136.117 194.515 136.49C195.102 136.863 195.55 137.405 195.859 138.114C196.174 138.823 196.331 139.679 196.331 140.682H195.611V140.458C195.579 139.215 195.286 138.263 194.731 137.602C194.182 136.935 193.403 136.602 192.395 136.602C191.371 136.602 190.577 136.943 190.011 137.626C189.446 138.303 189.163 139.258 189.163 140.49C189.163 141.722 189.446 142.679 190.011 143.362C190.577 144.039 191.371 144.378 192.395 144.378C193.11 144.378 193.737 144.21 194.275 143.874C194.814 143.538 195.243 143.055 195.563 142.426L196.123 142.746C195.771 143.482 195.273 144.05 194.627 144.45C193.982 144.85 193.238 145.05 192.395 145.05ZM188.875 140.682V140.01H195.915V140.682H188.875ZM198.095 144.81V136.17H198.719V138.234L198.511 137.962C198.602 137.727 198.717 137.509 198.855 137.306C198.994 137.103 199.13 136.938 199.263 136.81C199.498 136.581 199.775 136.407 200.095 136.29C200.421 136.167 200.746 136.098 201.071 136.082C201.397 136.061 201.685 136.09 201.935 136.17V136.81C201.578 136.73 201.199 136.717 200.799 136.77C200.399 136.818 200.026 137.002 199.679 137.322C199.375 137.605 199.159 137.93 199.031 138.298C198.909 138.666 198.834 139.047 198.807 139.442C198.781 139.831 198.767 140.202 198.767 140.554V144.81H198.095ZM206.294 145.034C205.318 145.034 204.507 144.831 203.862 144.426C203.217 144.015 202.817 143.45 202.662 142.73L203.35 142.602C203.494 143.135 203.83 143.562 204.358 143.882C204.891 144.202 205.542 144.362 206.31 144.362C207.094 144.362 207.715 144.194 208.174 143.858C208.638 143.522 208.87 143.066 208.87 142.49C208.87 142.175 208.801 141.919 208.662 141.722C208.523 141.519 208.251 141.335 207.846 141.17C207.446 141.005 206.854 140.815 206.07 140.602C205.249 140.378 204.609 140.162 204.15 139.954C203.697 139.741 203.377 139.503 203.19 139.242C203.009 138.975 202.918 138.65 202.918 138.266C202.918 137.807 203.054 137.402 203.326 137.05C203.598 136.698 203.974 136.423 204.454 136.226C204.934 136.029 205.489 135.93 206.118 135.93C206.753 135.93 207.323 136.037 207.83 136.25C208.342 136.458 208.753 136.751 209.062 137.13C209.377 137.503 209.558 137.935 209.606 138.426L208.918 138.554C208.817 137.951 208.507 137.477 207.99 137.13C207.478 136.778 206.838 136.602 206.07 136.602C205.35 136.591 204.761 136.738 204.302 137.042C203.849 137.346 203.622 137.743 203.622 138.234C203.622 138.506 203.699 138.741 203.854 138.938C204.009 139.13 204.278 139.306 204.662 139.466C205.046 139.626 205.579 139.791 206.262 139.962C207.126 140.181 207.798 140.402 208.278 140.626C208.763 140.85 209.102 141.111 209.294 141.41C209.491 141.709 209.59 142.079 209.59 142.522C209.59 143.306 209.297 143.922 208.71 144.37C208.123 144.813 207.318 145.034 206.294 145.034Z" fill="#60697B"/>
<path d="M141.508 53.9648C139.762 53.0156 138.684 51.1875 138.684 49.207V33.8789C141.789 35.1797 145.375 34.4531 147.719 32.0508C145.492 28.9805 141.941 27.1758 138.156 27.1758H125.195C118.668 27.1758 113.371 32.4727 113.371 39V58.6758H149.98V58.582L141.508 53.9648Z" fill="#8CAEEC"/>
<path d="M161.629 32.1445C160.668 32.1445 159.895 32.918 159.883 33.8789V49.1953C159.883 50.543 159.145 51.7852 157.961 52.4297L150.145 56.6836L142.34 52.4297C141.156 51.7852 140.418 50.543 140.418 49.1953V36.1523C140.898 36.2227 141.379 36.2578 141.859 36.2578C142.012 36.2578 142.152 36.2578 142.305 36.2461H142.422C142.551 36.2344 142.68 36.2344 142.82 36.2227L143.008 36.1992L143.195 36.1758C144.953 35.9414 146.629 35.2383 148.012 34.125L148.141 34.0195L148.293 33.8906C148.398 33.8086 148.492 33.7148 148.586 33.6328L148.633 33.5859C148.75 33.4805 148.855 33.375 148.961 33.2695C149.406 32.8125 149.805 32.3203 150.145 31.793C150.988 33.0703 152.113 34.125 153.426 34.8984C154.258 35.3789 155.324 35.1094 155.805 34.2773C156.285 33.4453 156.016 32.3789 155.184 31.8984C154.012 31.207 153.086 30.1641 152.535 28.9102C152.254 28.2773 151.633 27.8789 150.941 27.8672H149.359C148.668 27.8672 148.047 28.2773 147.766 28.9102C147.707 29.0273 147.66 29.1445 147.602 29.2617C146.102 27.8086 144.273 26.7188 142.281 26.0742C144.32 24.1406 145.469 21.457 145.469 18.6562V10.6641C145.445 9.70312 144.648 8.94141 143.688 8.96484C142.762 8.98828 142.012 9.73828 141.988 10.6641V18.668C141.988 22.3711 139 25.3945 135.297 25.4414H128.031C124.328 25.3828 121.352 22.3711 121.352 18.668V10.6641C121.352 6.92578 124.387 3.89062 128.125 3.89062H135.215C136.176 3.86719 136.938 3.07031 136.914 2.10938C136.891 1.18359 136.141 0.433594 135.215 0.410156H128.125C122.477 0.421875 117.883 5.00391 117.883 10.6641V18.668C117.883 21.4688 119.031 24.1523 121.07 26.0859C115.457 27.8906 111.648 33.1055 111.637 39V58.6758C111.637 59.6367 112.41 60.4102 113.371 60.4102H150.156C150.449 60.4102 150.73 60.3398 150.988 60.1992L159.637 55.4883C161.934 54.2344 163.375 51.8203 163.375 49.207V33.8789C163.363 32.918 162.59 32.1445 161.629 32.1445ZM115.117 56.9297V39C115.129 33.4336 119.629 28.9336 125.195 28.9219H129.93V45.8086C129.93 46.7695 130.703 47.543 131.664 47.543C132.625 47.543 133.398 46.7695 133.398 45.8086V28.9219H138.133C140.781 28.9219 143.324 29.9766 145.211 31.8281C144.473 32.2852 143.652 32.5781 142.797 32.707H142.809C142.68 32.7305 142.539 32.7422 142.398 32.7539L142.328 32.7656C142.188 32.7773 142.035 32.7773 141.895 32.7773H141.871C141.016 32.7773 140.16 32.6133 139.363 32.2734C138.484 31.8984 137.453 32.3086 137.09 33.1992C136.996 33.4102 136.949 33.6445 136.949 33.8789V49.1953C136.949 51.8203 138.379 54.2227 140.676 55.4883L143.324 56.9297H115.117Z" fill="#343F52"/>
<path d="M149.98 47.9767C149.688 47.9767 149.395 47.9064 149.137 47.754L146.219 46.1251C145.375 45.6564 145.082 44.6017 145.551 43.7579C146.02 42.9142 147.074 42.6212 147.918 43.09L149.758 44.1095L153.754 40.5822C154.469 39.9494 155.57 40.008 156.215 40.7345C156.848 41.4494 156.789 42.5509 156.063 43.1955L151.141 47.5431C150.813 47.8244 150.402 47.9767 149.98 47.9767Z" fill="#343F52"/>
</svg>
