<svg width="275" height="153" viewBox="0 0 275 153" fill="none" xmlns="http://www.w3.org/2000/svg">
<path d="M98.7372 110.41L98.7772 108.73L112.257 96.4502C113.484 95.3435 114.277 94.2835 114.637 93.2702C114.997 92.2435 115.177 91.1302 115.177 89.9302C115.177 88.5968 114.851 87.3835 114.197 86.2902C113.544 85.1968 112.671 84.3235 111.577 83.6702C110.484 83.0168 109.271 82.6902 107.937 82.6902C106.564 82.6902 105.331 83.0235 104.237 83.6902C103.144 84.3568 102.277 85.2435 101.637 86.3502C101.011 87.4435 100.697 88.6368 100.697 89.9302H99.0172C99.0172 88.2902 99.4172 86.7968 100.217 85.4502C101.031 84.0902 102.111 83.0102 103.457 82.2102C104.804 81.4102 106.297 81.0102 107.937 81.0102C109.617 81.0102 111.131 81.4235 112.477 82.2502C113.824 83.0635 114.891 84.1502 115.677 85.5102C116.464 86.8568 116.857 88.3302 116.857 89.9302C116.857 91.0235 116.737 92.0168 116.497 92.9102C116.271 93.8035 115.897 94.6368 115.377 95.4102C114.871 96.1835 114.204 96.9435 113.377 97.6902L99.9372 109.93L99.4572 108.73H116.857V110.41H98.7372ZM126.687 110.41V83.5702L121.247 86.8102V84.8502L126.687 81.6102H128.367V110.41H126.687ZM144.342 111.01C142.609 111.01 141.082 110.67 139.762 109.99C138.456 109.31 137.429 108.343 136.682 107.09C135.949 105.837 135.582 104.343 135.582 102.61C135.582 100.69 136.056 99.0235 137.002 97.6102C137.962 96.1835 139.449 95.1435 141.462 94.4902V95.4102C139.729 95.0502 138.422 94.2102 137.542 92.8902C136.662 91.5568 136.222 90.0902 136.222 88.4902C136.222 86.9168 136.569 85.5768 137.262 84.4702C137.969 83.3502 138.929 82.4968 140.142 81.9102C141.369 81.3102 142.769 81.0102 144.342 81.0102C145.916 81.0102 147.309 81.3102 148.522 81.9102C149.749 82.4968 150.709 83.3502 151.402 84.4702C152.109 85.5768 152.462 86.9168 152.462 88.4902C152.462 90.0902 152.036 91.5502 151.182 92.8702C150.342 94.1768 149.049 95.0102 147.302 95.3702L147.142 94.4902C149.169 95.1435 150.676 96.1835 151.662 97.6102C152.649 99.0235 153.142 100.69 153.142 102.61C153.142 104.343 152.769 105.837 152.022 107.09C151.276 108.343 150.242 109.31 148.922 109.99C147.602 110.67 146.076 111.01 144.342 111.01ZM144.342 109.33C146.422 109.33 148.109 108.75 149.402 107.59C150.696 106.43 151.342 104.77 151.342 102.61C151.342 100.41 150.702 98.7435 149.422 97.6102C148.156 96.4635 146.462 95.8902 144.342 95.8902C142.222 95.8902 140.522 96.4635 139.242 97.6102C137.976 98.7435 137.342 100.41 137.342 102.61C137.342 104.77 137.989 106.43 139.282 107.59C140.576 108.75 142.262 109.33 144.342 109.33ZM144.342 94.2102C146.222 94.2102 147.742 93.7302 148.902 92.7702C150.076 91.7968 150.662 90.3702 150.662 88.4902C150.662 86.6102 150.076 85.1968 148.902 84.2502C147.742 83.2902 146.222 82.8102 144.342 82.8102C142.462 82.8102 140.936 83.2902 139.762 84.2502C138.602 85.1968 138.022 86.6102 138.022 88.4902C138.022 90.3702 138.602 91.7968 139.762 92.7702C140.936 93.7302 142.462 94.2102 144.342 94.2102ZM171.486 110.41V104.29H157.526V102.61L167.446 81.6102H169.286L159.366 102.61H171.486V93.6102H173.166V102.61H176.606V104.29H173.166V110.41H171.486Z" fill="#343F52"/>
<path d="M74.8846 144.81V133.29H81.9246V133.962H75.5566V138.714H80.9646V139.386H75.5566V144.138H81.9246V144.81H74.8846ZM82.8777 144.81L86.3977 140.442L82.9577 136.17H83.7897L86.7977 139.946L89.7897 136.17H90.6217L87.1817 140.442L90.7017 144.81H89.8537L86.7977 140.938L83.7257 144.81H82.8777ZM95.6744 145.05C94.9117 145.05 94.2637 144.847 93.7304 144.442C93.197 144.037 92.789 143.49 92.5064 142.802C92.229 142.109 92.0904 141.333 92.0904 140.474C92.0904 139.599 92.2317 138.821 92.5144 138.138C92.797 137.45 93.213 136.911 93.7624 136.522C94.317 136.127 94.997 135.93 95.8024 135.93C96.5757 135.93 97.2317 136.133 97.7704 136.538C98.3144 136.938 98.7277 137.482 99.0104 138.17C99.293 138.858 99.4344 139.626 99.4344 140.474C99.4344 141.338 99.2904 142.117 99.0024 142.81C98.7144 143.498 98.2904 144.045 97.7304 144.45C97.1757 144.85 96.4904 145.05 95.6744 145.05ZM91.9784 148.65V136.17H92.6024V142.97H92.6504V148.65H91.9784ZM95.6744 144.378C96.341 144.378 96.8984 144.207 97.3464 143.866C97.7997 143.525 98.141 143.061 98.3704 142.474C98.5997 141.882 98.7144 141.215 98.7144 140.474C98.7144 139.738 98.6024 139.079 98.3784 138.498C98.1597 137.911 97.8264 137.45 97.3784 137.114C96.9304 136.773 96.3624 136.602 95.6744 136.602C95.0024 136.602 94.437 136.767 93.9784 137.098C93.525 137.429 93.181 137.887 92.9464 138.474C92.717 139.055 92.6024 139.722 92.6024 140.474C92.6024 141.215 92.717 141.882 92.9464 142.474C93.1757 143.061 93.517 143.525 93.9704 143.866C94.429 144.207 94.997 144.378 95.6744 144.378ZM104.669 145.05C103.853 145.05 103.149 144.866 102.557 144.498C101.97 144.13 101.517 143.605 101.197 142.922C100.877 142.239 100.717 141.429 100.717 140.49C100.717 139.546 100.874 138.733 101.189 138.05C101.509 137.367 101.962 136.845 102.549 136.482C103.141 136.114 103.848 135.93 104.669 135.93C105.496 135.93 106.202 136.117 106.789 136.49C107.376 136.863 107.824 137.405 108.133 138.114C108.448 138.823 108.605 139.679 108.605 140.682H107.885V140.458C107.853 139.215 107.56 138.263 107.005 137.602C106.456 136.935 105.677 136.602 104.669 136.602C103.645 136.602 102.85 136.943 102.285 137.626C101.72 138.303 101.437 139.258 101.437 140.49C101.437 141.722 101.72 142.679 102.285 143.362C102.85 144.039 103.645 144.378 104.669 144.378C105.384 144.378 106.01 144.21 106.549 143.874C107.088 143.538 107.517 143.055 107.837 142.426L108.397 142.746C108.045 143.482 107.546 144.05 106.901 144.45C106.256 144.85 105.512 145.05 104.669 145.05ZM101.149 140.682V140.01H108.189V140.682H101.149ZM110.369 144.81V136.17H110.993V138.234L110.785 137.962C110.876 137.727 110.99 137.509 111.129 137.306C111.268 137.103 111.404 136.938 111.537 136.81C111.772 136.581 112.049 136.407 112.369 136.29C112.694 136.167 113.02 136.098 113.345 136.082C113.67 136.061 113.958 136.09 114.209 136.17V136.81C113.852 136.73 113.473 136.717 113.073 136.77C112.673 136.818 112.3 137.002 111.953 137.322C111.649 137.605 111.433 137.93 111.305 138.298C111.182 138.666 111.108 139.047 111.081 139.442C111.054 139.831 111.041 140.202 111.041 140.554V144.81H110.369ZM120.192 144.81C119.76 144.906 119.334 144.941 118.912 144.914C118.491 144.893 118.115 144.794 117.784 144.618C117.454 144.437 117.206 144.165 117.04 143.802C116.912 143.519 116.84 143.234 116.824 142.946C116.808 142.653 116.8 142.319 116.8 141.946V133.77H117.472V141.946C117.472 142.319 117.475 142.621 117.48 142.85C117.491 143.079 117.547 143.295 117.648 143.498C117.84 143.882 118.144 144.119 118.56 144.21C118.976 144.295 119.52 144.282 120.192 144.17V144.81ZM114.768 136.842V136.17H120.192V136.842H114.768ZM124.994 144.81V133.29H132.034V133.962H125.666V138.714H131.074V139.386H125.666V144.138H132.034V144.81H124.994ZM144.203 144.81L144.219 138.858C144.219 138.138 144.008 137.573 143.587 137.162C143.166 136.746 142.646 136.538 142.027 136.538C141.686 136.538 141.339 136.615 140.987 136.77C140.64 136.925 140.347 137.186 140.107 137.554C139.872 137.922 139.755 138.426 139.755 139.066H139.163C139.136 138.431 139.246 137.879 139.491 137.41C139.742 136.941 140.091 136.578 140.539 136.322C140.987 136.061 141.499 135.93 142.075 135.93C142.891 135.93 143.563 136.186 144.091 136.698C144.624 137.21 144.891 137.914 144.891 138.81L144.875 144.81H144.203ZM133.947 144.81V136.17H134.571V137.93H134.619V144.81H133.947ZM139.083 144.81L139.099 138.97C139.099 138.223 138.891 137.631 138.475 137.194C138.064 136.757 137.531 136.538 136.875 136.538C136.203 136.538 135.659 136.767 135.243 137.226C134.827 137.685 134.619 138.298 134.619 139.066L134.027 138.81C134.027 138.255 134.152 137.762 134.403 137.33C134.654 136.893 134.998 136.551 135.435 136.306C135.878 136.055 136.384 135.93 136.955 135.93C137.44 135.93 137.896 136.034 138.323 136.242C138.75 136.445 139.094 136.762 139.355 137.194C139.622 137.626 139.755 138.181 139.755 138.858L139.739 144.81H139.083ZM150.674 145.05C149.912 145.05 149.264 144.847 148.73 144.442C148.197 144.037 147.789 143.49 147.506 142.802C147.229 142.109 147.09 141.333 147.09 140.474C147.09 139.599 147.232 138.821 147.514 138.138C147.797 137.45 148.213 136.911 148.762 136.522C149.317 136.127 149.997 135.93 150.802 135.93C151.576 135.93 152.232 136.133 152.77 136.538C153.314 136.938 153.728 137.482 154.01 138.17C154.293 138.858 154.434 139.626 154.434 140.474C154.434 141.338 154.29 142.117 154.002 142.81C153.714 143.498 153.29 144.045 152.73 144.45C152.176 144.85 151.49 145.05 150.674 145.05ZM146.978 148.65V136.17H147.602V142.97H147.65V148.65H146.978ZM150.674 144.378C151.341 144.378 151.898 144.207 152.346 143.866C152.8 143.525 153.141 143.061 153.37 142.474C153.6 141.882 153.714 141.215 153.714 140.474C153.714 139.738 153.602 139.079 153.378 138.498C153.16 137.911 152.826 137.45 152.378 137.114C151.93 136.773 151.362 136.602 150.674 136.602C150.002 136.602 149.437 136.767 148.978 137.098C148.525 137.429 148.181 137.887 147.946 138.474C147.717 139.055 147.602 139.722 147.602 140.474C147.602 141.215 147.717 141.882 147.946 142.474C148.176 143.061 148.517 143.525 148.97 143.866C149.429 144.207 149.997 144.378 150.674 144.378ZM156.357 144.81V133.05H157.029V144.81H156.357ZM162.903 145.05C162.05 145.05 161.33 144.855 160.743 144.466C160.157 144.077 159.711 143.538 159.407 142.85C159.103 142.162 158.951 141.37 158.951 140.474C158.951 139.567 159.106 138.773 159.415 138.09C159.725 137.407 160.173 136.877 160.759 136.498C161.351 136.119 162.066 135.93 162.903 135.93C163.762 135.93 164.485 136.125 165.071 136.514C165.658 136.898 166.101 137.431 166.399 138.114C166.703 138.797 166.855 139.583 166.855 140.474C166.855 141.386 166.703 142.186 166.399 142.874C166.095 143.557 165.647 144.09 165.055 144.474C164.469 144.858 163.751 145.05 162.903 145.05ZM162.903 144.378C163.991 144.378 164.802 144.018 165.335 143.298C165.869 142.573 166.135 141.631 166.135 140.474C166.135 139.295 165.866 138.357 165.327 137.658C164.794 136.954 163.986 136.602 162.903 136.602C162.173 136.602 161.567 136.767 161.087 137.098C160.613 137.429 160.258 137.885 160.023 138.466C159.789 139.047 159.671 139.717 159.671 140.474C159.671 141.647 159.943 142.591 160.487 143.306C161.037 144.021 161.842 144.378 162.903 144.378ZM169.602 148.65L171.282 144.138L171.298 145.482L167.506 136.17H168.242L171.634 144.554H171.122L174.162 136.17H174.882L170.354 148.65H169.602ZM179.56 145.05C178.744 145.05 178.04 144.866 177.448 144.498C176.861 144.13 176.408 143.605 176.088 142.922C175.768 142.239 175.608 141.429 175.608 140.49C175.608 139.546 175.765 138.733 176.08 138.05C176.4 137.367 176.853 136.845 177.44 136.482C178.032 136.114 178.738 135.93 179.56 135.93C180.386 135.93 181.093 136.117 181.68 136.49C182.266 136.863 182.714 137.405 183.024 138.114C183.338 138.823 183.496 139.679 183.496 140.682H182.776V140.458C182.744 139.215 182.45 138.263 181.896 137.602C181.346 136.935 180.568 136.602 179.56 136.602C178.536 136.602 177.741 136.943 177.176 137.626C176.61 138.303 176.328 139.258 176.328 140.49C176.328 141.722 176.61 142.679 177.176 143.362C177.741 144.039 178.536 144.378 179.56 144.378C180.274 144.378 180.901 144.21 181.44 143.874C181.978 143.538 182.408 143.055 182.728 142.426L183.288 142.746C182.936 143.482 182.437 144.05 181.792 144.45C181.146 144.85 180.402 145.05 179.56 145.05ZM176.04 140.682V140.01H183.08V140.682H176.04ZM188.732 145.05C187.916 145.05 187.212 144.866 186.62 144.498C186.033 144.13 185.58 143.605 185.26 142.922C184.94 142.239 184.78 141.429 184.78 140.49C184.78 139.546 184.937 138.733 185.252 138.05C185.572 137.367 186.025 136.845 186.612 136.482C187.204 136.114 187.91 135.93 188.732 135.93C189.558 135.93 190.265 136.117 190.852 136.49C191.438 136.863 191.886 137.405 192.196 138.114C192.51 138.823 192.668 139.679 192.668 140.682H191.948V140.458C191.916 139.215 191.622 138.263 191.068 137.602C190.518 136.935 189.74 136.602 188.732 136.602C187.708 136.602 186.913 136.943 186.348 137.626C185.782 138.303 185.5 139.258 185.5 140.49C185.5 141.722 185.782 142.679 186.348 143.362C186.913 144.039 187.708 144.378 188.732 144.378C189.446 144.378 190.073 144.21 190.612 143.874C191.15 143.538 191.58 143.055 191.9 142.426L192.46 142.746C192.108 143.482 191.609 144.05 190.964 144.45C190.318 144.85 189.574 145.05 188.732 145.05ZM185.212 140.682V140.01H192.252V140.682H185.212ZM197.583 145.034C196.607 145.034 195.797 144.831 195.151 144.426C194.506 144.015 194.106 143.45 193.951 142.73L194.639 142.602C194.783 143.135 195.119 143.562 195.647 143.882C196.181 144.202 196.831 144.362 197.599 144.362C198.383 144.362 199.005 144.194 199.463 143.858C199.927 143.522 200.159 143.066 200.159 142.49C200.159 142.175 200.09 141.919 199.951 141.722C199.813 141.519 199.541 141.335 199.135 141.17C198.735 141.005 198.143 140.815 197.359 140.602C196.538 140.378 195.898 140.162 195.439 139.954C194.986 139.741 194.666 139.503 194.479 139.242C194.298 138.975 194.207 138.65 194.207 138.266C194.207 137.807 194.343 137.402 194.615 137.05C194.887 136.698 195.263 136.423 195.743 136.226C196.223 136.029 196.778 135.93 197.407 135.93C198.042 135.93 198.613 136.037 199.119 136.25C199.631 136.458 200.042 136.751 200.351 137.13C200.666 137.503 200.847 137.935 200.895 138.426L200.207 138.554C200.106 137.951 199.797 137.477 199.279 137.13C198.767 136.778 198.127 136.602 197.359 136.602C196.639 136.591 196.05 136.738 195.591 137.042C195.138 137.346 194.911 137.743 194.911 138.234C194.911 138.506 194.989 138.741 195.143 138.938C195.298 139.13 195.567 139.306 195.951 139.466C196.335 139.626 196.869 139.791 197.551 139.962C198.415 140.181 199.087 140.402 199.567 140.626C200.053 140.85 200.391 141.111 200.583 141.41C200.781 141.709 200.879 142.079 200.879 142.522C200.879 143.306 200.586 143.922 199.999 144.37C199.413 144.813 198.607 145.034 197.583 145.034Z" fill="#60697B"/>
<path d="M151.431 17.8564H147.944V10.7959C147.944 8.14453 145.806 6.00586 143.154 6.00586H131.846C129.209 6.00586 127.056 8.15918 127.056 10.7959V17.8564H123.569V10.7959C123.584 6.22559 127.275 2.51953 131.846 2.51953H143.154C147.725 2.51953 151.416 6.22559 151.431 10.7959V17.8564Z" fill="#343F52"/>
<path d="M160.308 58.3008H114.692C110.723 58.3008 107.515 55.0781 107.5 51.1084V19.9658C107.5 15.9961 110.723 12.7734 114.692 12.7734H160.322C164.292 12.7734 167.5 15.9961 167.515 19.9658V51.123C167.5 55.0928 164.277 58.3008 160.308 58.3008ZM114.692 16.2598C112.642 16.2598 110.986 17.915 110.986 19.9658V51.123C110.986 53.1738 112.642 54.8291 114.692 54.8291H160.322C162.373 54.8291 164.028 53.1738 164.028 51.123V19.9658C164.028 17.915 162.373 16.2598 160.322 16.2598H114.692Z" fill="#343F52"/>
<path d="M114.707 14.4873C112.012 14.4873 109.829 16.6553 109.829 19.3506C109.829 19.7461 109.873 20.127 109.961 20.5078C112.686 31.5088 122.676 39.7266 134.482 39.7266H140.518C152.324 39.7266 162.314 31.5088 165.024 20.5078C165.654 17.9004 164.058 15.2637 161.436 14.6191C161.055 14.5313 160.674 14.4873 160.278 14.4873H114.707Z" fill="#8CAEEC"/>
<path d="M140.518 41.4697H134.482C128.403 41.4551 122.5 39.3896 117.739 35.6103C113.066 31.8896 109.741 26.7187 108.291 20.918C107.427 17.373 109.595 13.7988 113.154 12.9346C113.667 12.8027 114.194 12.7441 114.722 12.7441H160.293C163.94 12.7441 166.914 15.7031 166.914 19.3506C166.914 19.8779 166.855 20.4053 166.724 20.918C165.273 26.7187 161.948 31.875 157.275 35.5957C152.5 39.3896 146.597 41.4551 140.518 41.4697ZM114.707 16.2305C113.74 16.2305 112.817 16.6699 112.231 17.4316C111.631 18.1787 111.426 19.1602 111.66 20.0977C114.238 30.6152 123.657 38.0127 134.482 37.998H140.518C151.343 38.0127 160.776 30.6152 163.34 20.0977C163.574 19.1748 163.354 18.1934 162.769 17.4463C162.168 16.6846 161.26 16.2305 160.293 16.2451L114.707 16.2305Z" fill="#343F52"/>
<path d="M126.323 44.7803H124.302C122.998 44.7803 121.943 43.7256 121.943 42.4219V35.3467C121.943 34.043 122.998 32.9883 124.302 32.9883H126.323C127.627 32.9883 128.682 34.043 128.682 35.3467V42.4219C128.682 43.7256 127.627 44.7803 126.323 44.7803Z" fill="#8CAEEC"/>
<path d="M126.323 46.5234H124.302C122.031 46.5234 120.2 44.6924 120.2 42.4219V35.3467C120.2 33.0762 122.031 31.2451 124.302 31.2451H126.323C128.594 31.2451 130.425 33.0762 130.425 35.3467V42.4219C130.425 44.6924 128.594 46.5234 126.323 46.5234ZM124.302 34.7314C123.965 34.7314 123.687 35.0098 123.687 35.3467V42.4219C123.687 42.7588 123.965 43.0371 124.302 43.0371H126.323C126.66 43.0371 126.938 42.7588 126.938 42.4219V35.3467C126.938 35.0098 126.66 34.7314 126.323 34.7314H124.302Z" fill="#343F52"/>
<path d="M150.698 44.7803H148.677C147.373 44.7803 146.318 43.7256 146.318 42.4219V35.3467C146.318 34.043 147.373 32.9883 148.677 32.9883H150.698C152.002 32.9883 153.057 34.043 153.057 35.3467V42.4219C153.057 43.7256 152.002 44.7803 150.698 44.7803Z" fill="#8CAEEC"/>
<path d="M150.698 46.5234H148.677C146.406 46.5234 144.575 44.6924 144.575 42.4219V35.3467C144.575 33.0762 146.406 31.2451 148.677 31.2451H150.698C152.969 31.2451 154.8 33.0762 154.8 35.3467V42.4219C154.8 44.6924 152.969 46.5234 150.698 46.5234ZM148.677 34.7314C148.34 34.7314 148.062 35.0098 148.062 35.3467V42.4219C148.062 42.7588 148.34 43.0371 148.677 43.0371H150.698C151.035 43.0371 151.313 42.7588 151.313 42.4219V35.3467C151.313 35.0098 151.035 34.7314 150.698 34.7314H148.677Z" fill="#343F52"/>
</svg>
