<svg width="14" height="14" viewBox="0 0 14 14" fill="none" xmlns="http://www.w3.org/2000/svg">
<path d="M13.0938 0.591309C12.9271 0.414226 12.724 0.273601 12.4844 0.169434C12.2448 0.0652666 11.9896 0.0131836 11.7188 0.0131836C11.6146 0.0131836 11.5078 0.0236006 11.3984 0.0444336C11.2891 0.0652666 11.1875 0.0913086 11.0938 0.122559L1.67188 3.27881C1.27604 3.40381 0.953125 3.63298 0.703125 3.96631C0.453125 4.29964 0.328125 4.67985 0.328125 5.10693C0.328125 5.5236 0.445312 5.89339 0.679688 6.21631C0.914062 6.53923 1.21354 6.7736 1.57812 6.91943H1.59375L5.07812 8.24756C5.16146 8.27881 5.23438 8.32568 5.29688 8.38818C5.35938 8.45068 5.40625 8.51839 5.4375 8.59131L6.76562 12.0913C6.90104 12.4663 7.13281 12.771 7.46094 13.0054C7.78906 13.2397 8.15625 13.3569 8.5625 13.3569C8.5625 13.3569 8.5651 13.3569 8.57031 13.3569C8.57552 13.3569 8.57812 13.3569 8.57812 13.3569H8.625C9.04167 13.3465 9.41146 13.2163 9.73438 12.9663C10.0573 12.7163 10.2812 12.4038 10.4062 12.0288V12.0132L13.5625 2.57568C13.5938 2.48193 13.6198 2.38298 13.6406 2.27881C13.6615 2.17464 13.6719 2.06527 13.6719 1.95068C13.6719 1.69027 13.6198 1.44287 13.5156 1.2085C13.4115 0.974121 13.2708 0.768392 13.0938 0.591309ZM12.3281 2.15381L9.14062 11.6069C9.10938 11.7215 9.04167 11.8179 8.9375 11.896C8.83333 11.9741 8.71875 12.0132 8.59375 12.0132C8.58333 12.0132 8.57812 12.0132 8.57812 12.0132C8.45312 12.0132 8.33854 11.9793 8.23438 11.9116C8.13021 11.8439 8.05729 11.7528 8.01562 11.6382H8L6.67188 8.13818C6.56771 7.87777 6.42188 7.6512 6.23438 7.4585C6.04688 7.26579 5.82812 7.11735 5.57812 7.01318H5.5625L2.0625 5.68506C1.94792 5.63298 1.85417 5.55745 1.78125 5.4585C1.70833 5.35954 1.67188 5.24756 1.67188 5.12256C1.67188 5.11214 1.67188 5.10693 1.67188 5.10693C1.67188 5.10693 1.67188 5.10173 1.67188 5.09131C1.67188 4.96631 1.70833 4.85173 1.78125 4.74756C1.85417 4.64339 1.95312 4.57568 2.07812 4.54443L11.5312 1.38818C11.5625 1.36735 11.599 1.35433 11.6406 1.34912C11.6823 1.34391 11.724 1.34131 11.7656 1.34131C11.9323 1.34131 12.0755 1.4012 12.1953 1.521C12.3151 1.64079 12.375 1.78402 12.375 1.95068C12.375 1.98193 12.3698 2.01579 12.3594 2.05225C12.349 2.0887 12.3385 2.12256 12.3281 2.15381Z" fill="#60697B"/>
</svg>
