<svg width="36" height="37" viewBox="0 0 36 37" fill="none" xmlns="http://www.w3.org/2000/svg">
<path d="M30.8133 16.6043V17.6844C30.8124 17.9041 30.7682 18.1215 30.6832 18.3241C30.5983 18.5267 30.4742 18.7106 30.3181 18.8652C30.162 19.0199 29.977 19.1422 29.7736 19.2253C29.5702 19.3084 29.3525 19.3506 29.1327 19.3495H26.3721C25.562 19.3495 24.6844 18.749 24.6844 17.4144V16.6043H30.8133ZM34.5036 8.05363C34.5061 9.04898 34.2849 10.0322 33.8565 10.9306C33.4281 11.8291 32.8034 12.6198 32.0284 13.2445C31.4322 13.7082 31.018 14.3668 30.8583 15.1051H24.6619C24.5401 14.3914 24.1477 13.7521 23.5664 13.3204C22.7456 12.6842 22.0859 11.8639 21.6403 10.9259C21.1947 9.98784 20.9758 8.95821 21.0012 7.92002C21.0757 4.34927 24.0614 1.39451 27.6462 1.3481C28.5463 1.32796 29.441 1.49056 30.2764 1.82607C31.1118 2.16159 31.8705 2.66305 32.5066 3.30013C33.1419 3.91725 33.6462 4.65617 33.9893 5.47268C34.3325 6.2892 34.5074 7.16654 34.5036 8.05222V8.05363Z" fill="#B2C9F3"/>
<path d="M0.738342 17.8503C0.54161 17.8536 0.354037 17.934 0.215963 18.0742C0.077889 18.2144 0.000343155 18.4031 2.63381e-06 18.5999V32.4722C-0.000182397 32.5217 0.00938341 32.5708 0.0281539 32.6166C0.0469244 32.6624 0.0745319 32.704 0.1094 32.7391C0.144268 32.7743 0.185715 32.8022 0.231372 32.8213C0.27703 32.8404 0.326005 32.8503 0.375501 32.8505H3.93781C4.1009 32.8506 4.25959 32.7976 4.38979 32.6993C4.51999 32.6011 4.6146 32.4631 4.65927 32.3063L7.97828 20.6082C8.08245 20.2429 8.04413 19.8518 7.87106 19.5138C7.69798 19.1757 7.40306 18.9159 7.04587 18.7869C5.68591 18.2919 3.60028 17.8025 0.738342 17.8503ZM33.003 26.1C30.0033 26.1 24.0023 29.8972 21.0026 29.8972C18.0028 29.8972 14.6261 27.5978 14.6261 27.5978C14.6261 27.5978 18.668 28.3502 21.0012 28.3502C23.3343 28.3502 24.0009 27.5542 24.0009 26.4755C24.0009 23.8498 19.54 23.4434 17.2856 23.1002C15.072 21.8683 13.9216 20.8937 10.2538 20.5828C10.2329 20.7984 10.1948 21.0119 10.1399 21.2213L7.12603 31.8393C10.5393 33.3863 16.415 35.8517 19.502 35.8517C24.0023 35.8517 36.0014 29.8508 36.0014 28.3516C36.0014 26.8524 34.5022 26.1 33.003 26.1Z" fill="#3F78E0"/>
</svg>
