<svg width="20" height="21" viewBox="0 0 20 21" fill="none" xmlns="http://www.w3.org/2000/svg">
<rect y="0.670044" width="20" height="20" rx="10" fill="#DCE7F9"/>
<path d="M14.4688 7.48254C14.4062 7.42004 14.3359 7.37056 14.2578 7.33411C14.1797 7.29765 14.0938 7.27942 14 7.27942C13.9062 7.27942 13.8203 7.29765 13.7422 7.33411C13.6641 7.37056 13.5938 7.42004 13.5312 7.48254L8.5625 12.4513L6.46875 10.3575C6.40625 10.295 6.33594 10.2482 6.25781 10.2169C6.17969 10.1857 6.09375 10.17 6 10.17C5.8125 10.17 5.65104 10.2351 5.51562 10.3654C5.38021 10.4956 5.3125 10.6544 5.3125 10.8419C5.3125 10.9461 5.33333 11.0398 5.375 11.1232C5.41667 11.2065 5.46875 11.2794 5.53125 11.3419L8.09375 13.9044C8.14583 13.9565 8.21354 14.0008 8.29688 14.0372C8.38021 14.0737 8.46875 14.0919 8.5625 14.0919C8.65625 14.0919 8.74219 14.0737 8.82031 14.0372C8.89844 14.0008 8.96875 13.9565 9.03125 13.9044L14.4688 8.45129C14.5417 8.38879 14.5964 8.31588 14.6328 8.23254C14.6693 8.14921 14.6875 8.06067 14.6875 7.96692C14.6875 7.87317 14.6693 7.78202 14.6328 7.69348C14.5964 7.60494 14.5417 7.53463 14.4688 7.48254Z" fill="#3F78E0"/>
</svg>
