<svg width="53" height="53" viewBox="0 0 53 53" fill="none" xmlns="http://www.w3.org/2000/svg">
<path d="M43.0496 41.0957H35.699C34.9373 41.0703 34.3279 40.4356 34.3533 39.6739C34.3787 38.9375 34.9627 38.3535 35.699 38.3282H43.0496C46.8328 38.3282 49.8924 35.2686 49.8924 31.4854C49.8924 28.1973 47.5438 25.3789 44.3192 24.7696C43.5701 24.6299 43.075 23.9063 43.2147 23.1573C43.2147 23.1319 43.2274 23.0938 43.2401 23.0684C44.8397 16.8604 41.1072 10.5381 34.8992 8.92581C30.0369 7.66897 24.908 9.68753 22.2039 13.9278C21.8358 14.5117 21.0867 14.7276 20.4647 14.4483C16.6434 12.7217 12.1365 14.4229 10.41 18.2442C9.96564 19.2344 9.73712 20.3008 9.73712 21.3799C9.73712 21.9639 9.81329 22.5606 9.94025 23.1319C10.118 23.8809 9.64825 24.6172 8.91193 24.7949C8.89923 24.7949 8.88654 24.7949 8.88654 24.8076C5.16681 25.5694 2.80548 29.2002 3.5799 32.8946C4.25275 36.0557 7.03302 38.3282 10.2703 38.3282H17.659C18.4207 38.3535 19.0301 38.9883 19.0047 39.75C18.9793 40.4864 18.3953 41.0703 17.659 41.0957H10.2703C4.96368 41.0957 0.659973 36.792 0.659973 31.4854C0.659973 27.4356 3.19904 23.8174 7.00763 22.4463C6.96954 22.0908 6.95685 21.7227 6.94415 21.3672C6.94415 15.6416 11.5906 10.9951 17.3289 10.9951C18.408 10.9951 19.4744 11.1602 20.5027 11.4903C25.2762 5.1426 34.2899 3.87307 40.6248 8.64651C44.8904 11.8584 47.0233 17.1397 46.1854 22.3955C51.2 24.1221 53.866 29.5938 52.1395 34.6084C50.7938 38.4932 47.1502 41.0957 43.0496 41.0957Z" fill="#343F52"/>
<path d="M32.4744 34.2402L27.4852 27.4355C27.1424 26.9785 26.4949 26.8769 26.0379 27.207C25.949 27.2705 25.8729 27.3466 25.8094 27.4355L20.8455 34.2402C20.5027 34.6972 20.6043 35.3447 21.0613 35.6875C21.2391 35.8144 21.4549 35.8906 21.6834 35.8906H23.0418V42.5175C23.0418 43.8251 24.0955 44.8789 25.4031 44.8789H27.9168C29.2244 44.8789 30.2781 43.8251 30.2781 42.5175V35.8779H31.6365C32.2078 35.8779 32.6776 35.4209 32.6776 34.8496C32.6902 34.6337 32.6141 34.4179 32.4744 34.2402Z" fill="#FAB9AD"/>
<path d="M27.9168 46.2754H25.4031C23.3338 46.2754 21.658 44.5996 21.658 42.5303V37.2871C20.325 37.2744 19.2459 36.1699 19.2586 34.8369C19.2586 34.3291 19.4236 33.8467 19.7283 33.4404L24.7176 26.6358C25.5047 25.5567 27.0027 25.3154 28.0818 26.1025C28.285 26.2549 28.4627 26.4326 28.615 26.6358L33.6043 33.4404C34.3914 34.5195 34.1629 36.0303 33.0838 36.8174C32.6775 37.1094 32.1824 37.2744 31.6873 37.2871V42.5303C31.6746 44.5869 29.9861 46.2627 27.9168 46.2754ZM22.3689 34.5068H23.0418C23.8035 34.5068 24.4256 35.1289 24.4256 35.8906V42.5176C24.4256 43.0635 24.8699 43.4951 25.4031 43.4951H27.9168C28.4627 43.4951 28.8943 43.0508 28.8943 42.5176V35.8906C28.8943 35.1289 29.5164 34.5068 30.2781 34.5068H30.951L26.6473 28.6416L22.3689 34.5068Z" fill="#343F52"/>
</svg>
