<svg width="14" height="15" viewBox="0 0 14 15" fill="none" xmlns="http://www.w3.org/2000/svg">
<path d="M7 11.998C7.16406 11.998 7.30306 11.9411 7.41699 11.8271C7.53092 11.7132 7.58789 11.5742 7.58789 11.4102C7.58789 11.2461 7.53092 11.1071 7.41699 10.9932C7.30306 10.8792 7.16406 10.8223 7 10.8223C6.83594 10.8223 6.69694 10.8792 6.58301 10.9932C6.46908 11.1071 6.41211 11.2461 6.41211 11.4102C6.41211 11.5742 6.46908 11.7132 6.58301 11.8271C6.69694 11.9411 6.83594 11.998 7 11.998ZM9.91211 11.998C10.0762 11.998 10.2152 11.9411 10.3291 11.8271C10.443 11.7132 10.5 11.5742 10.5 11.4102C10.5 11.2461 10.443 11.1071 10.3291 10.9932C10.2152 10.8792 10.0762 10.8223 9.91211 10.8223C9.75716 10.8223 9.62272 10.8792 9.50879 10.9932C9.39486 11.1071 9.33789 11.2461 9.33789 11.4102C9.33789 11.5742 9.39486 11.7132 9.50879 11.8271C9.62272 11.9411 9.75716 11.998 9.91211 11.998ZM9.91211 9.66016C10.0762 9.66016 10.2152 9.60319 10.3291 9.48926C10.443 9.37533 10.5 9.23633 10.5 9.07227C10.5 8.91732 10.443 8.78288 10.3291 8.66895C10.2152 8.55501 10.0762 8.49805 9.91211 8.49805C9.75716 8.49805 9.62272 8.55501 9.50879 8.66895C9.39486 8.78288 9.33789 8.91732 9.33789 9.07227C9.33789 9.23633 9.39486 9.37533 9.50879 9.48926C9.62272 9.60319 9.75716 9.66016 9.91211 9.66016ZM7 9.66016C7.16406 9.66016 7.30306 9.60319 7.41699 9.48926C7.53092 9.37533 7.58789 9.23633 7.58789 9.07227C7.58789 8.91732 7.53092 8.78288 7.41699 8.66895C7.30306 8.55501 7.16406 8.49805 7 8.49805C6.83594 8.49805 6.69694 8.55501 6.58301 8.66895C6.46908 8.78288 6.41211 8.91732 6.41211 9.07227C6.41211 9.23633 6.46908 9.37533 6.58301 9.48926C6.69694 9.60319 6.83594 9.66016 7 9.66016ZM11.0879 2.66016H10.5V2.07227C10.5 1.91732 10.443 1.78288 10.3291 1.66895C10.2152 1.55501 10.0762 1.49805 9.91211 1.49805C9.75716 1.49805 9.62272 1.55501 9.50879 1.66895C9.39486 1.78288 9.33789 1.91732 9.33789 2.07227V2.66016H4.66211V2.07227C4.66211 1.91732 4.60514 1.78288 4.49121 1.66895C4.37728 1.55501 4.24284 1.49805 4.08789 1.49805C3.92383 1.49805 3.78483 1.55501 3.6709 1.66895C3.55697 1.78288 3.5 1.91732 3.5 2.07227V2.66016H2.91211C2.42904 2.66016 2.0166 2.83105 1.6748 3.17285C1.33301 3.51465 1.16211 3.92708 1.16211 4.41016V12.5723C1.16211 13.0553 1.33301 13.4678 1.6748 13.8096C2.0166 14.1514 2.42904 14.3223 2.91211 14.3223H11.0879C11.571 14.3223 11.9834 14.1514 12.3252 13.8096C12.667 13.4678 12.8379 13.0553 12.8379 12.5723V4.41016C12.8379 3.92708 12.667 3.51465 12.3252 3.17285C11.9834 2.83105 11.571 2.66016 11.0879 2.66016ZM11.6621 12.5723C11.6621 12.7363 11.6051 12.8753 11.4912 12.9893C11.3773 13.1032 11.2428 13.1602 11.0879 13.1602H2.91211C2.75716 13.1602 2.62272 13.1032 2.50879 12.9893C2.39486 12.8753 2.33789 12.7363 2.33789 12.5723V7.32227H11.6621V12.5723ZM11.6621 6.16016H2.33789V4.41016C2.33789 4.24609 2.39486 4.1071 2.50879 3.99316C2.62272 3.87923 2.75716 3.82227 2.91211 3.82227H3.5V4.41016C3.5 4.57422 3.55697 4.71322 3.6709 4.82715C3.78483 4.94108 3.92383 4.99805 4.08789 4.99805C4.24284 4.99805 4.37728 4.94108 4.49121 4.82715C4.60514 4.71322 4.66211 4.57422 4.66211 4.41016V3.82227H9.33789V4.41016C9.33789 4.57422 9.39486 4.71322 9.50879 4.82715C9.62272 4.94108 9.75716 4.99805 9.91211 4.99805C10.0762 4.99805 10.2152 4.94108 10.3291 4.82715C10.443 4.71322 10.5 4.57422 10.5 4.41016V3.82227H11.0879C11.2428 3.82227 11.3773 3.87923 11.4912 3.99316C11.6051 4.1071 11.6621 4.24609 11.6621 4.41016V6.16016ZM4.08789 9.66016C4.24284 9.66016 4.37728 9.60319 4.49121 9.48926C4.60514 9.37533 4.66211 9.23633 4.66211 9.07227C4.66211 8.91732 4.60514 8.78288 4.49121 8.66895C4.37728 8.55501 4.24284 8.49805 4.08789 8.49805C3.92383 8.49805 3.78483 8.55501 3.6709 8.66895C3.55697 8.78288 3.5 8.91732 3.5 9.07227C3.5 9.23633 3.55697 9.37533 3.6709 9.48926C3.78483 9.60319 3.92383 9.66016 4.08789 9.66016ZM4.08789 11.998C4.24284 11.998 4.37728 11.9411 4.49121 11.8271C4.60514 11.7132 4.66211 11.5742 4.66211 11.4102C4.66211 11.2461 4.60514 11.1071 4.49121 10.9932C4.37728 10.8792 4.24284 10.8223 4.08789 10.8223C3.92383 10.8223 3.78483 10.8792 3.6709 10.9932C3.55697 11.1071 3.5 11.2461 3.5 11.4102C3.5 11.5742 3.55697 11.7132 3.6709 11.8271C3.78483 11.9411 3.92383 11.998 4.08789 11.998Z" fill="#AAB0BC"/>
</svg>
