<svg width="439" height="59" viewBox="0 0 439 59" fill="none" xmlns="http://www.w3.org/2000/svg">
<path d="M5.198 17.63L0.46 1.07H1.449L5.704 15.882L9.936 1.07H10.948L15.203 15.882L19.435 1.07H20.447L15.709 17.63H14.697L10.442 2.841L6.21 17.63H5.198ZM26.142 17.975C24.969 17.975 23.957 17.7105 23.106 17.1815C22.2627 16.6525 21.611 15.8973 21.151 14.916C20.691 13.9347 20.461 12.7693 20.461 11.42C20.461 10.063 20.6872 8.89384 21.1395 7.9125C21.5995 6.93117 22.2512 6.17984 23.0945 5.6585C23.9455 5.1295 24.9613 4.865 26.142 4.865C27.3303 4.865 28.3462 5.13334 29.1895 5.67C30.0328 6.20667 30.6768 6.98484 31.1215 8.0045C31.5739 9.02417 31.8 10.2547 31.8 11.696H30.765V11.374C30.719 9.58767 30.2973 8.21917 29.5 7.2685C28.7103 6.31017 27.591 5.831 26.142 5.831C24.67 5.831 23.5277 6.32167 22.715 7.303C21.9023 8.27667 21.496 9.649 21.496 11.42C21.496 13.191 21.9023 14.5672 22.715 15.5485C23.5277 16.5222 24.67 17.009 26.142 17.009C27.1693 17.009 28.0702 16.7675 28.8445 16.2845C29.6188 15.8015 30.236 15.1077 30.696 14.203L31.501 14.663C30.995 15.721 30.2782 16.5375 29.3505 17.1125C28.4228 17.6875 27.3533 17.975 26.142 17.975ZM21.082 11.696V10.73H31.202V11.696H21.082ZM42.5511 17.975C41.5851 17.975 40.7839 17.8063 40.1476 17.469C39.5112 17.1317 39.0359 16.687 38.7216 16.135C38.4072 15.583 38.2501 14.985 38.2501 14.341C38.2501 13.6127 38.4072 13.0108 38.7216 12.5355C39.0436 12.0525 39.4614 11.673 39.9751 11.397C40.4887 11.121 41.0407 10.9217 41.6311 10.799C42.3517 10.6533 43.1222 10.5268 43.9426 10.4195C44.7706 10.3045 45.5334 10.2087 46.2311 10.132C46.9287 10.0553 47.4501 9.994 47.7951 9.948L47.4501 10.178C47.4884 8.71367 47.2201 7.625 46.6451 6.912C46.0777 6.19134 45.0734 5.831 43.6321 5.831C42.5894 5.831 41.7499 6.06484 41.1136 6.5325C40.4849 6.9925 40.0441 7.70167 39.7911 8.66L38.7331 8.384C39.0091 7.234 39.5726 6.36 40.4236 5.762C41.2822 5.164 42.3671 4.865 43.6781 4.865C44.8281 4.865 45.7864 5.09884 46.5531 5.5665C47.3197 6.03417 47.8411 6.66667 48.1171 7.464C48.2244 7.77067 48.3011 8.1425 48.3471 8.5795C48.3931 9.0165 48.4161 9.442 48.4161 9.856V17.63H47.5191V14.226L47.9791 14.249C47.6494 15.4297 46.9939 16.3458 46.0126 16.9975C45.0312 17.6492 43.8774 17.975 42.5511 17.975ZM42.5051 17.009C43.4021 17.009 44.1917 16.848 44.8741 16.526C45.5641 16.204 46.1199 15.7402 46.5416 15.1345C46.9709 14.5212 47.2431 13.789 47.3581 12.938C47.4194 12.5087 47.4501 12.0487 47.4501 11.558C47.4501 11.0673 47.4501 10.7147 47.4501 10.5L47.9561 10.891C47.5497 10.9293 46.9862 10.983 46.2656 11.052C45.5526 11.1133 44.7974 11.1977 44.0001 11.305C43.2027 11.4047 42.4821 11.535 41.8381 11.696C41.4624 11.788 41.0752 11.9337 40.6766 12.133C40.2779 12.3323 39.9406 12.6122 39.6646 12.9725C39.3962 13.3328 39.2621 13.7967 39.2621 14.364C39.2621 14.7627 39.3617 15.1652 39.5611 15.5715C39.7604 15.9778 40.0939 16.319 40.5616 16.595C41.0369 16.871 41.6847 17.009 42.5051 17.009ZM51.4059 17.63V5.21H52.3029V8.177L52.0039 7.786C52.1342 7.44867 52.2991 7.13434 52.4984 6.843C52.6977 6.55167 52.8932 6.314 53.0849 6.13C53.4222 5.80034 53.8209 5.55117 54.2809 5.3825C54.7486 5.20617 55.2162 5.1065 55.6839 5.0835C56.1516 5.05284 56.5656 5.095 56.9259 5.21V6.13C56.4122 6.015 55.8679 5.99584 55.2929 6.0725C54.7179 6.1415 54.1812 6.406 53.6829 6.866C53.2459 7.27234 52.9354 7.74 52.7514 8.269C52.5751 8.798 52.4677 9.34617 52.4294 9.9135C52.3911 10.4732 52.3719 11.006 52.3719 11.512V17.63H51.4059ZM63.8764 17.975C62.7034 17.975 61.6914 17.7105 60.8404 17.1815C59.9971 16.6525 59.3454 15.8973 58.8854 14.916C58.4254 13.9347 58.1954 12.7693 58.1954 11.42C58.1954 10.063 58.4216 8.89384 58.8739 7.9125C59.3339 6.93117 59.9856 6.17984 60.8289 5.6585C61.6799 5.1295 62.6957 4.865 63.8764 4.865C65.0647 4.865 66.0806 5.13334 66.9239 5.67C67.7672 6.20667 68.4112 6.98484 68.8559 8.0045C69.3082 9.02417 69.5344 10.2547 69.5344 11.696H68.4994V11.374C68.4534 9.58767 68.0317 8.21917 67.2344 7.2685C66.4447 6.31017 65.3254 5.831 63.8764 5.831C62.4044 5.831 61.2621 6.32167 60.4494 7.303C59.6367 8.27667 59.2304 9.649 59.2304 11.42C59.2304 13.191 59.6367 14.5672 60.4494 15.5485C61.2621 16.5222 62.4044 17.009 63.8764 17.009C64.9037 17.009 65.8046 16.7675 66.5789 16.2845C67.3532 15.8015 67.9704 15.1077 68.4304 14.203L69.2354 14.663C68.7294 15.721 68.0126 16.5375 67.0849 17.1125C66.1572 17.6875 65.0877 17.975 63.8764 17.975ZM58.8164 11.696V10.73H68.9364V11.696H58.8164ZM80.2855 17.975C79.3195 17.975 78.5183 17.8063 77.882 17.469C77.2456 17.1317 76.7703 16.687 76.456 16.135C76.1416 15.583 75.9845 14.985 75.9845 14.341C75.9845 13.6127 76.1416 13.0108 76.456 12.5355C76.778 12.0525 77.1958 11.673 77.7095 11.397C78.2231 11.121 78.7751 10.9217 79.3655 10.799C80.0861 10.6533 80.8566 10.5268 81.677 10.4195C82.505 10.3045 83.2678 10.2087 83.9655 10.132C84.6631 10.0553 85.1845 9.994 85.5295 9.948L85.1845 10.178C85.2228 8.71367 84.9545 7.625 84.3795 6.912C83.8121 6.19134 82.8078 5.831 81.3665 5.831C80.3238 5.831 79.4843 6.06484 78.848 6.5325C78.2193 6.9925 77.7785 7.70167 77.5255 8.66L76.4675 8.384C76.7435 7.234 77.307 6.36 78.158 5.762C79.0166 5.164 80.1015 4.865 81.4125 4.865C82.5625 4.865 83.5208 5.09884 84.2875 5.5665C85.0541 6.03417 85.5755 6.66667 85.8515 7.464C85.9588 7.77067 86.0355 8.1425 86.0815 8.5795C86.1275 9.0165 86.1505 9.442 86.1505 9.856V17.63H85.2535V14.226L85.7135 14.249C85.3838 15.4297 84.7283 16.3458 83.747 16.9975C82.7656 17.6492 81.6118 17.975 80.2855 17.975ZM80.2395 17.009C81.1365 17.009 81.9261 16.848 82.6085 16.526C83.2985 16.204 83.8543 15.7402 84.276 15.1345C84.7053 14.5212 84.9775 13.789 85.0925 12.938C85.1538 12.5087 85.1845 12.0487 85.1845 11.558C85.1845 11.0673 85.1845 10.7147 85.1845 10.5L85.6905 10.891C85.2841 10.9293 84.7206 10.983 84 11.052C83.287 11.1133 82.5318 11.1977 81.7345 11.305C80.9371 11.4047 80.2165 11.535 79.5725 11.696C79.1968 11.788 78.8096 11.9337 78.411 12.133C78.0123 12.3323 77.675 12.6122 77.399 12.9725C77.1306 13.3328 76.9965 13.7967 76.9965 14.364C76.9965 14.7627 77.0961 15.1652 77.2955 15.5715C77.4948 15.9778 77.8283 16.319 78.296 16.595C78.7713 16.871 79.4191 17.009 80.2395 17.009ZM98.7358 17.975C97.5014 17.975 96.4664 17.699 95.6308 17.147C94.7951 16.595 94.1626 15.8283 93.7333 14.847C93.3039 13.858 93.0778 12.7157 93.0548 11.42C93.0778 10.0937 93.3039 8.93984 93.7333 7.9585C94.1703 6.97717 94.8066 6.21817 95.6423 5.6815C96.4779 5.13717 97.5091 4.865 98.7358 4.865C99.8858 4.865 100.909 5.141 101.806 5.693C102.711 6.23734 103.351 6.98867 103.727 7.947L102.807 8.338C102.462 7.54067 101.929 6.9235 101.208 6.4865C100.495 6.0495 99.6711 5.831 98.7358 5.831C97.6931 5.831 96.8306 6.06867 96.1483 6.544C95.4659 7.01167 94.9561 7.66717 94.6188 8.5105C94.2814 9.34617 94.1051 10.316 94.0898 11.42C94.1128 13.1067 94.5114 14.4598 95.2858 15.4795C96.0601 16.4992 97.2101 17.009 98.7358 17.009C99.6481 17.009 100.457 16.7982 101.162 16.3765C101.868 15.9548 102.408 15.3377 102.784 14.525L103.727 14.939C103.213 15.9357 102.535 16.6908 101.691 17.2045C100.848 17.7182 99.8628 17.975 98.7358 17.975ZM106.143 17.63V5.21H107.04V8.177L106.741 7.786C106.872 7.44867 107.036 7.13434 107.236 6.843C107.435 6.55167 107.631 6.314 107.822 6.13C108.16 5.80034 108.558 5.55117 109.018 5.3825C109.486 5.20617 109.954 5.1065 110.421 5.0835C110.889 5.05284 111.303 5.095 111.663 5.21V6.13C111.15 6.015 110.605 5.99584 110.03 6.0725C109.455 6.1415 108.919 6.406 108.42 6.866C107.983 7.27234 107.673 7.74 107.489 8.269C107.312 8.798 107.205 9.34617 107.167 9.9135C107.128 10.4732 107.109 11.006 107.109 11.512V17.63H106.143ZM118.614 17.975C117.441 17.975 116.429 17.7105 115.578 17.1815C114.734 16.6525 114.083 15.8973 113.623 14.916C113.163 13.9347 112.933 12.7693 112.933 11.42C112.933 10.063 113.159 8.89384 113.611 7.9125C114.071 6.93117 114.723 6.17984 115.566 5.6585C116.417 5.1295 117.433 4.865 118.614 4.865C119.802 4.865 120.818 5.13334 121.661 5.67C122.505 6.20667 123.149 6.98484 123.593 8.0045C124.046 9.02417 124.272 10.2547 124.272 11.696H123.237V11.374C123.191 9.58767 122.769 8.21917 121.972 7.2685C121.182 6.31017 120.063 5.831 118.614 5.831C117.142 5.831 115.999 6.32167 115.187 7.303C114.374 8.27667 113.968 9.649 113.968 11.42C113.968 13.191 114.374 14.5672 115.187 15.5485C115.999 16.5222 117.142 17.009 118.614 17.009C119.641 17.009 120.542 16.7675 121.316 16.2845C122.091 15.8015 122.708 15.1077 123.168 14.203L123.973 14.663C123.467 15.721 122.75 16.5375 121.822 17.1125C120.895 17.6875 119.825 17.975 118.614 17.975ZM113.554 11.696V10.73H123.674V11.696H113.554ZM130.194 17.975C129.228 17.975 128.426 17.8063 127.79 17.469C127.154 17.1317 126.678 16.687 126.364 16.135C126.05 15.583 125.893 14.985 125.893 14.341C125.893 13.6127 126.05 13.0108 126.364 12.5355C126.686 12.0525 127.104 11.673 127.618 11.397C128.131 11.121 128.683 10.9217 129.274 10.799C129.994 10.6533 130.765 10.5268 131.585 10.4195C132.413 10.3045 133.176 10.2087 133.874 10.132C134.571 10.0553 135.093 9.994 135.438 9.948L135.093 10.178C135.131 8.71367 134.863 7.625 134.288 6.912C133.72 6.19134 132.716 5.831 131.275 5.831C130.232 5.831 129.392 6.06484 128.756 6.5325C128.127 6.9925 127.687 7.70167 127.434 8.66L126.376 8.384C126.652 7.234 127.215 6.36 128.066 5.762C128.925 5.164 130.01 4.865 131.321 4.865C132.471 4.865 133.429 5.09884 134.196 5.5665C134.962 6.03417 135.484 6.66667 135.76 7.464C135.867 7.77067 135.944 8.1425 135.99 8.5795C136.036 9.0165 136.059 9.442 136.059 9.856V17.63H135.162V14.226L135.622 14.249C135.292 15.4297 134.636 16.3458 133.655 16.9975C132.674 17.6492 131.52 17.975 130.194 17.975ZM130.148 17.009C131.045 17.009 131.834 16.848 132.517 16.526C133.207 16.204 133.762 15.7402 134.184 15.1345C134.613 14.5212 134.886 13.789 135.001 12.938C135.062 12.5087 135.093 12.0487 135.093 11.558C135.093 11.0673 135.093 10.7147 135.093 10.5L135.599 10.891C135.192 10.9293 134.629 10.983 133.908 11.052C133.195 11.1133 132.44 11.1977 131.643 11.305C130.845 11.4047 130.125 11.535 129.481 11.696C129.105 11.788 128.718 11.9337 128.319 12.133C127.92 12.3323 127.583 12.6122 127.307 12.9725C127.039 13.3328 126.905 13.7967 126.905 14.364C126.905 14.7627 127.004 15.1652 127.204 15.5715C127.403 15.9778 127.736 16.319 128.204 16.595C128.679 16.871 129.327 17.009 130.148 17.009ZM145.465 17.63C144.844 17.768 144.231 17.8178 143.625 17.7795C143.02 17.7488 142.479 17.607 142.004 17.354C141.529 17.0933 141.172 16.7023 140.934 16.181C140.75 15.7747 140.647 15.3645 140.624 14.9505C140.601 14.5288 140.589 14.0497 140.589 13.513V1.76H141.555V13.513C141.555 14.0497 141.559 14.4828 141.567 14.8125C141.582 15.1422 141.663 15.4527 141.808 15.744C142.084 16.296 142.521 16.6372 143.119 16.7675C143.717 16.8902 144.499 16.871 145.465 16.71V17.63ZM137.668 6.176V5.21H145.465V6.176H137.668ZM147.993 2.542V1.07H148.959V2.542H147.993ZM147.993 17.63V5.21H148.959V17.63H147.993ZM155.771 17.63L151.263 5.21H152.275L156.3 16.227L160.302 5.21H161.337L156.829 17.63H155.771ZM167.938 17.975C166.765 17.975 165.753 17.7105 164.902 17.1815C164.059 16.6525 163.407 15.8973 162.947 14.916C162.487 13.9347 162.257 12.7693 162.257 11.42C162.257 10.063 162.483 8.89384 162.935 7.9125C163.395 6.93117 164.047 6.17984 164.89 5.6585C165.741 5.1295 166.757 4.865 167.938 4.865C169.126 4.865 170.142 5.13334 170.985 5.67C171.829 6.20667 172.473 6.98484 172.917 8.0045C173.37 9.02417 173.596 10.2547 173.596 11.696H172.561V11.374C172.515 9.58767 172.093 8.21917 171.296 7.2685C170.506 6.31017 169.387 5.831 167.938 5.831C166.466 5.831 165.324 6.32167 164.511 7.303C163.698 8.27667 163.292 9.649 163.292 11.42C163.292 13.191 163.698 14.5672 164.511 15.5485C165.324 16.5222 166.466 17.009 167.938 17.009C168.965 17.009 169.866 16.7675 170.64 16.2845C171.415 15.8015 172.032 15.1077 172.492 14.203L173.297 14.663C172.791 15.721 172.074 16.5375 171.146 17.1125C170.219 17.6875 169.149 17.975 167.938 17.975ZM162.878 11.696V10.73H172.998V11.696H162.878ZM185.727 17.975C184.493 17.975 183.458 17.699 182.622 17.147C181.786 16.595 181.154 15.8283 180.724 14.847C180.295 13.858 180.069 12.7157 180.046 11.42C180.069 10.0937 180.295 8.93984 180.724 7.9585C181.161 6.97717 181.798 6.21817 182.633 5.6815C183.469 5.13717 184.5 4.865 185.727 4.865C186.877 4.865 187.9 5.141 188.797 5.693C189.702 6.23734 190.342 6.98867 190.718 7.947L189.798 8.338C189.453 7.54067 188.92 6.9235 188.199 6.4865C187.486 6.0495 186.662 5.831 185.727 5.831C184.684 5.831 183.822 6.06867 183.139 6.544C182.457 7.01167 181.947 7.66717 181.61 8.5105C181.273 9.34617 181.096 10.316 181.081 11.42C181.104 13.1067 181.503 14.4598 182.277 15.4795C183.051 16.4992 184.201 17.009 185.727 17.009C186.639 17.009 187.448 16.7982 188.153 16.3765C188.859 15.9548 189.399 15.3377 189.775 14.525L190.718 14.939C190.204 15.9357 189.526 16.6908 188.682 17.2045C187.839 17.7182 186.854 17.975 185.727 17.975ZM197.789 17.975C196.562 17.975 195.527 17.6952 194.684 17.1355C193.84 16.5758 193.2 15.8015 192.763 14.8125C192.326 13.8235 192.108 12.685 192.108 11.397C192.108 10.0937 192.33 8.95134 192.775 7.97C193.219 6.98867 193.863 6.22584 194.707 5.6815C195.558 5.13717 196.585 4.865 197.789 4.865C199.023 4.865 200.062 5.14484 200.905 5.7045C201.748 6.2565 202.385 7.02317 202.814 8.0045C203.251 8.98584 203.47 10.1167 203.47 11.397C203.47 12.708 203.251 13.858 202.814 14.847C202.377 15.8283 201.733 16.595 200.882 17.147C200.039 17.699 199.008 17.975 197.789 17.975ZM197.789 17.009C199.353 17.009 200.518 16.4915 201.285 15.4565C202.051 14.4138 202.435 13.0607 202.435 11.397C202.435 9.70267 202.047 8.35334 201.273 7.349C200.506 6.337 199.345 5.831 197.789 5.831C196.738 5.831 195.868 6.06867 195.178 6.544C194.496 7.01934 193.986 7.67484 193.649 8.5105C193.311 9.34617 193.143 10.3083 193.143 11.397C193.143 13.0837 193.534 14.4407 194.316 15.468C195.105 16.4953 196.263 17.009 197.789 17.009ZM220.748 17.63L220.771 9.074C220.771 8.039 220.468 7.22634 219.862 6.636C219.256 6.038 218.509 5.739 217.62 5.739C217.129 5.739 216.631 5.85017 216.125 6.0725C215.626 6.29484 215.205 6.6705 214.86 7.1995C214.522 7.7285 214.354 8.453 214.354 9.373H213.503C213.464 8.46067 213.621 7.66717 213.974 6.9925C214.334 6.31784 214.837 5.7965 215.481 5.4285C216.125 5.05284 216.861 4.865 217.689 4.865C218.862 4.865 219.828 5.233 220.587 5.969C221.353 6.705 221.737 7.717 221.737 9.005L221.714 17.63H220.748ZM206.005 17.63V5.21H206.902V7.74H206.971V17.63H206.005ZM213.388 17.63L213.411 9.235C213.411 8.16167 213.112 7.31067 212.514 6.682C211.923 6.05334 211.157 5.739 210.214 5.739C209.248 5.739 208.466 6.06867 207.868 6.728C207.27 7.38734 206.971 8.269 206.971 9.373L206.12 9.005C206.12 8.20767 206.3 7.4985 206.66 6.8775C207.02 6.24884 207.515 5.75817 208.144 5.4055C208.78 5.04517 209.508 4.865 210.329 4.865C211.026 4.865 211.682 5.0145 212.295 5.3135C212.908 5.60484 213.403 6.061 213.779 6.682C214.162 7.303 214.354 8.10034 214.354 9.074L214.331 17.63H213.388ZM230.05 17.975C228.954 17.975 228.022 17.6837 227.255 17.101C226.489 16.5183 225.902 15.7325 225.496 14.7435C225.097 13.7468 224.898 12.6313 224.898 11.397C224.898 10.1397 225.101 9.02034 225.507 8.039C225.914 7.05 226.512 6.27567 227.301 5.716C228.099 5.14867 229.076 4.865 230.234 4.865C231.346 4.865 232.289 5.15634 233.063 5.739C233.845 6.314 234.439 7.096 234.845 8.085C235.252 9.074 235.455 10.178 235.455 11.397C235.455 12.639 235.248 13.7583 234.834 14.755C234.42 15.744 233.81 16.5298 233.005 17.1125C232.208 17.6875 231.223 17.975 230.05 17.975ZM224.737 23.15V5.21H225.634V14.985H225.703V23.15H224.737ZM230.05 17.009C231.008 17.009 231.809 16.7637 232.453 16.273C233.105 15.7823 233.596 15.1153 233.925 14.272C234.255 13.421 234.42 12.4627 234.42 11.397C234.42 10.339 234.259 9.39217 233.937 8.5565C233.623 7.71317 233.143 7.05 232.499 6.567C231.855 6.07634 231.039 5.831 230.05 5.831C229.084 5.831 228.271 6.06867 227.612 6.544C226.96 7.01934 226.466 7.67867 226.128 8.522C225.799 9.35767 225.634 10.316 225.634 11.397C225.634 12.4627 225.799 13.421 226.128 14.272C226.458 15.1153 226.949 15.7823 227.6 16.273C228.26 16.7637 229.076 17.009 230.05 17.009ZM241.6 17.975C240.634 17.975 239.833 17.8063 239.196 17.469C238.56 17.1317 238.085 16.687 237.77 16.135C237.456 15.583 237.299 14.985 237.299 14.341C237.299 13.6127 237.456 13.0108 237.77 12.5355C238.092 12.0525 238.51 11.673 239.024 11.397C239.538 11.121 240.09 10.9217 240.68 10.799C241.401 10.6533 242.171 10.5268 242.991 10.4195C243.819 10.3045 244.582 10.2087 245.28 10.132C245.978 10.0553 246.499 9.994 246.844 9.948L246.499 10.178C246.537 8.71367 246.269 7.625 245.694 6.912C245.127 6.19134 244.122 5.831 242.681 5.831C241.638 5.831 240.799 6.06484 240.162 6.5325C239.534 6.9925 239.093 7.70167 238.84 8.66L237.782 8.384C238.058 7.234 238.621 6.36 239.472 5.762C240.331 5.164 241.416 4.865 242.727 4.865C243.877 4.865 244.835 5.09884 245.602 5.5665C246.369 6.03417 246.89 6.66667 247.166 7.464C247.273 7.77067 247.35 8.1425 247.396 8.5795C247.442 9.0165 247.465 9.442 247.465 9.856V17.63H246.568V14.226L247.028 14.249C246.698 15.4297 246.043 16.3458 245.061 16.9975C244.08 17.6492 242.926 17.975 241.6 17.975ZM241.554 17.009C242.451 17.009 243.241 16.848 243.923 16.526C244.613 16.204 245.169 15.7402 245.59 15.1345C246.02 14.5212 246.292 13.789 246.407 12.938C246.468 12.5087 246.499 12.0487 246.499 11.558C246.499 11.0673 246.499 10.7147 246.499 10.5L247.005 10.891C246.599 10.9293 246.035 10.983 245.314 11.052C244.601 11.1133 243.846 11.1977 243.049 11.305C242.252 11.4047 241.531 11.535 240.887 11.696C240.511 11.788 240.124 11.9337 239.725 12.133C239.327 12.3323 238.989 12.6122 238.713 12.9725C238.445 13.3328 238.311 13.7967 238.311 14.364C238.311 14.7627 238.411 15.1652 238.61 15.5715C238.809 15.9778 239.143 16.319 239.61 16.595C240.086 16.871 240.734 17.009 241.554 17.009ZM259.678 17.63V11.052C259.678 10.1627 259.586 9.396 259.402 8.752C259.225 8.10034 258.961 7.56367 258.608 7.142C258.256 6.71267 257.826 6.3945 257.32 6.1875C256.822 5.9805 256.251 5.877 255.607 5.877C254.848 5.877 254.2 6.01117 253.663 6.2795C253.134 6.54017 252.705 6.9005 252.375 7.3605C252.046 7.8205 251.804 8.3495 251.651 8.9475C251.497 9.5455 251.421 10.178 251.421 10.845L250.524 10.868C250.524 9.44967 250.758 8.30734 251.225 7.441C251.693 6.567 252.31 5.93067 253.077 5.532C253.851 5.13334 254.694 4.934 255.607 4.934C256.235 4.934 256.81 5.02217 257.332 5.1985C257.861 5.37484 258.328 5.63167 258.735 5.969C259.149 6.29867 259.498 6.705 259.781 7.188C260.065 7.671 260.28 8.223 260.425 8.844C260.571 9.45734 260.644 10.132 260.644 10.868V17.63H259.678ZM250.455 17.63V5.21H251.352V7.74H251.421V17.63H250.455ZM265.053 23.15L267.468 16.664L267.491 18.596L262.04 5.21H263.098L267.974 17.262H267.238L271.608 5.21H272.643L266.134 23.15H265.053ZM285.846 17.63C285.225 17.768 284.612 17.8178 284.006 17.7795C283.401 17.7488 282.86 17.607 282.385 17.354C281.91 17.0933 281.553 16.7023 281.315 16.181C281.131 15.7747 281.028 15.3645 281.005 14.9505C280.982 14.5288 280.97 14.0497 280.97 13.513V1.76H281.936V13.513C281.936 14.0497 281.94 14.4828 281.948 14.8125C281.963 15.1422 282.044 15.4527 282.189 15.744C282.465 16.296 282.902 16.6372 283.5 16.7675C284.098 16.8902 284.88 16.871 285.846 16.71V17.63ZM278.049 6.176V5.21H285.846V6.176H278.049ZM297.367 17.63V11.052C297.367 10.1627 297.275 9.396 297.091 8.752C296.915 8.10034 296.65 7.56367 296.298 7.142C295.945 6.71267 295.516 6.3945 295.01 6.1875C294.511 5.9805 293.94 5.877 293.296 5.877C292.537 5.877 291.889 6.01117 291.353 6.2795C290.824 6.54017 290.394 6.9005 290.065 7.3605C289.735 7.8205 289.494 8.3495 289.34 8.9475C289.187 9.5455 289.11 10.178 289.11 10.845L288.213 10.868C288.213 9.44967 288.447 8.30734 288.915 7.441C289.382 6.567 290 5.93067 290.766 5.532C291.541 5.13334 292.384 4.934 293.296 4.934C293.925 4.934 294.5 5.02217 295.021 5.1985C295.55 5.37484 296.018 5.63167 296.424 5.969C296.838 6.29867 297.187 6.705 297.471 7.188C297.754 7.671 297.969 8.223 298.115 8.844C298.26 9.45734 298.333 10.132 298.333 10.868V17.63H297.367ZM288.144 17.63V1.07H289.041V10.845H289.11V17.63H288.144ZM304.94 17.975C303.974 17.975 303.173 17.8063 302.536 17.469C301.9 17.1317 301.425 16.687 301.11 16.135C300.796 15.583 300.639 14.985 300.639 14.341C300.639 13.6127 300.796 13.0108 301.11 12.5355C301.432 12.0525 301.85 11.673 302.364 11.397C302.877 11.121 303.429 10.9217 304.02 10.799C304.74 10.6533 305.511 10.5268 306.331 10.4195C307.159 10.3045 307.922 10.2087 308.62 10.132C309.317 10.0553 309.839 9.994 310.184 9.948L309.839 10.178C309.877 8.71367 309.609 7.625 309.034 6.912C308.466 6.19134 307.462 5.831 306.021 5.831C304.978 5.831 304.139 6.06484 303.502 6.5325C302.874 6.9925 302.433 7.70167 302.18 8.66L301.122 8.384C301.398 7.234 301.961 6.36 302.812 5.762C303.671 5.164 304.756 4.865 306.067 4.865C307.217 4.865 308.175 5.09884 308.942 5.5665C309.708 6.03417 310.23 6.66667 310.506 7.464C310.613 7.77067 310.69 8.1425 310.736 8.5795C310.782 9.0165 310.805 9.442 310.805 9.856V17.63H309.908V14.226L310.368 14.249C310.038 15.4297 309.383 16.3458 308.401 16.9975C307.42 17.6492 306.266 17.975 304.94 17.975ZM304.894 17.009C305.791 17.009 306.58 16.848 307.263 16.526C307.953 16.204 308.509 15.7402 308.93 15.1345C309.36 14.5212 309.632 13.789 309.747 12.938C309.808 12.5087 309.839 12.0487 309.839 11.558C309.839 11.0673 309.839 10.7147 309.839 10.5L310.345 10.891C309.938 10.9293 309.375 10.983 308.654 11.052C307.941 11.1133 307.186 11.1977 306.389 11.305C305.591 11.4047 304.871 11.535 304.227 11.696C303.851 11.788 303.464 11.9337 303.065 12.133C302.667 12.3323 302.329 12.6122 302.053 12.9725C301.785 13.3328 301.651 13.7967 301.651 14.364C301.651 14.7627 301.75 15.1652 301.95 15.5715C302.149 15.9778 302.483 16.319 302.95 16.595C303.426 16.871 304.073 17.009 304.894 17.009ZM320.212 17.63C319.591 17.768 318.977 17.8178 318.372 17.7795C317.766 17.7488 317.225 17.607 316.75 17.354C316.275 17.0933 315.918 16.7023 315.681 16.181C315.497 15.7747 315.393 15.3645 315.37 14.9505C315.347 14.5288 315.336 14.0497 315.336 13.513V1.76H316.302V13.513C316.302 14.0497 316.305 14.4828 316.313 14.8125C316.328 15.1422 316.409 15.4527 316.555 15.744C316.831 16.296 317.268 16.6372 317.866 16.7675C318.464 16.8902 319.246 16.871 320.212 16.71V17.63ZM312.415 6.176V5.21H320.212V6.176H312.415ZM328.448 17.63V3.807C328.448 3.485 328.467 3.18984 328.505 2.9215C328.551 2.6455 328.628 2.3925 328.735 2.1625C328.843 1.9325 328.992 1.714 329.184 1.507C329.368 1.31534 329.571 1.162 329.793 1.047C330.023 0.932005 330.276 0.851505 330.552 0.805504C330.828 0.751838 331.131 0.725005 331.461 0.725005H333.071V1.599H331.576C330.855 1.599 330.315 1.7715 329.954 2.1165C329.594 2.4615 329.414 3.05567 329.414 3.899V17.63H328.448ZM326.194 6.176V5.21H333.071V6.176H326.194ZM339.45 17.975C338.223 17.975 337.188 17.6952 336.345 17.1355C335.501 16.5758 334.861 15.8015 334.424 14.8125C333.987 13.8235 333.769 12.685 333.769 11.397C333.769 10.0937 333.991 8.95134 334.436 7.97C334.88 6.98867 335.524 6.22584 336.368 5.6815C337.219 5.13717 338.246 4.865 339.45 4.865C340.684 4.865 341.723 5.14484 342.566 5.7045C343.409 6.2565 344.046 7.02317 344.475 8.0045C344.912 8.98584 345.131 10.1167 345.131 11.397C345.131 12.708 344.912 13.858 344.475 14.847C344.038 15.8283 343.394 16.595 342.543 17.147C341.7 17.699 340.669 17.975 339.45 17.975ZM339.45 17.009C341.014 17.009 342.179 16.4915 342.946 15.4565C343.712 14.4138 344.096 13.0607 344.096 11.397C344.096 9.70267 343.708 8.35334 342.934 7.349C342.167 6.337 341.006 5.831 339.45 5.831C338.399 5.831 337.529 6.06867 336.839 6.544C336.157 7.01934 335.647 7.67484 335.31 8.5105C334.972 9.34617 334.804 10.3083 334.804 11.397C334.804 13.0837 335.195 14.4407 335.977 15.468C336.766 16.4953 337.924 17.009 339.45 17.009ZM352.657 17.975C351.422 17.975 350.387 17.699 349.552 17.147C348.716 16.595 348.083 15.8283 347.654 14.847C347.225 13.858 346.999 12.7157 346.976 11.42C346.999 10.0937 347.225 8.93984 347.654 7.9585C348.091 6.97717 348.727 6.21817 349.563 5.6815C350.399 5.13717 351.43 4.865 352.657 4.865C353.807 4.865 354.83 5.141 355.727 5.693C356.632 6.23734 357.272 6.98867 357.648 7.947L356.728 8.338C356.383 7.54067 355.85 6.9235 355.129 6.4865C354.416 6.0495 353.592 5.831 352.657 5.831C351.614 5.831 350.751 6.06867 350.069 6.544C349.387 7.01167 348.877 7.66717 348.54 8.5105C348.202 9.34617 348.026 10.316 348.011 11.42C348.034 13.1067 348.432 14.4598 349.207 15.4795C349.981 16.4992 351.131 17.009 352.657 17.009C353.569 17.009 354.378 16.7982 355.083 16.3765C355.788 15.9548 356.329 15.3377 356.705 14.525L357.648 14.939C357.134 15.9357 356.455 16.6908 355.612 17.2045C354.769 17.7182 353.784 17.975 352.657 17.975ZM364.871 17.906C364.242 17.906 363.664 17.8178 363.135 17.6415C362.613 17.4652 362.146 17.2122 361.732 16.8825C361.325 16.5452 360.98 16.135 360.697 15.652C360.413 15.169 360.198 14.6208 360.053 14.0075C359.907 13.3865 359.834 12.708 359.834 11.972V5.21H360.8V11.788C360.8 12.6697 360.888 13.4363 361.065 14.088C361.249 14.7397 361.517 15.2802 361.87 15.7095C362.222 16.1312 362.648 16.4455 363.146 16.6525C363.652 16.8595 364.227 16.963 364.871 16.963C365.63 16.963 366.274 16.8327 366.803 16.572C367.34 16.3037 367.773 15.9395 368.103 15.4795C368.432 15.0195 368.674 14.4905 368.827 13.8925C368.98 13.2945 369.057 12.662 369.057 11.995L369.954 11.972C369.954 13.3903 369.72 14.5365 369.253 15.4105C368.785 16.2768 368.164 16.9093 367.39 17.308C366.623 17.7067 365.783 17.906 364.871 17.906ZM369.126 17.63V15.1H369.057V5.21H370.023V17.63H369.126ZM377.78 17.952C376.377 17.952 375.211 17.6607 374.284 17.078C373.356 16.4877 372.781 15.675 372.559 14.64L373.548 14.456C373.755 15.2227 374.238 15.836 374.997 16.296C375.763 16.756 376.699 16.986 377.803 16.986C378.93 16.986 379.823 16.7445 380.482 16.2615C381.149 15.7785 381.483 15.123 381.483 14.295C381.483 13.8427 381.383 13.4747 381.184 13.191C380.984 12.8997 380.593 12.6352 380.011 12.3975C379.436 12.1598 378.585 11.8877 377.458 11.581C376.277 11.259 375.357 10.9485 374.698 10.6495C374.046 10.3428 373.586 10.0017 373.318 9.626C373.057 9.24267 372.927 8.775 372.927 8.223C372.927 7.56367 373.122 6.981 373.513 6.475C373.904 5.969 374.445 5.57417 375.135 5.2905C375.825 5.00684 376.622 4.865 377.527 4.865C378.439 4.865 379.259 5.01834 379.988 5.325C380.724 5.624 381.314 6.04567 381.759 6.59C382.211 7.12667 382.472 7.74767 382.541 8.453L381.552 8.637C381.406 7.77067 380.961 7.08834 380.218 6.59C379.482 6.084 378.562 5.831 377.458 5.831C376.423 5.81567 375.576 6.0265 374.916 6.4635C374.265 6.9005 373.939 7.47167 373.939 8.177C373.939 8.568 374.05 8.90534 374.272 9.189C374.495 9.465 374.882 9.718 375.434 9.948C375.986 10.178 376.752 10.4157 377.734 10.661C378.976 10.9753 379.942 11.2935 380.632 11.6155C381.329 11.9375 381.816 12.3132 382.092 12.7425C382.376 13.1718 382.518 13.7047 382.518 14.341C382.518 15.468 382.096 16.3535 381.253 16.9975C380.409 17.6338 379.252 17.952 377.78 17.952ZM390.054 17.975C388.881 17.975 387.869 17.7105 387.018 17.1815C386.175 16.6525 385.523 15.8973 385.063 14.916C384.603 13.9347 384.373 12.7693 384.373 11.42C384.373 10.063 384.599 8.89384 385.052 7.9125C385.512 6.93117 386.163 6.17984 387.007 5.6585C387.858 5.1295 388.873 4.865 390.054 4.865C391.242 4.865 392.258 5.13334 393.102 5.67C393.945 6.20667 394.589 6.98484 395.034 8.0045C395.486 9.02417 395.712 10.2547 395.712 11.696H394.677V11.374C394.631 9.58767 394.209 8.21917 393.412 7.2685C392.622 6.31017 391.503 5.831 390.054 5.831C388.582 5.831 387.44 6.32167 386.627 7.303C385.814 8.27667 385.408 9.649 385.408 11.42C385.408 13.191 385.814 14.5672 386.627 15.5485C387.44 16.5222 388.582 17.009 390.054 17.009C391.081 17.009 391.982 16.7675 392.757 16.2845C393.531 15.8015 394.148 15.1077 394.608 14.203L395.413 14.663C394.907 15.721 394.19 16.5375 393.263 17.1125C392.335 17.6875 391.265 17.975 390.054 17.975ZM384.994 11.696V10.73H395.114V11.696H384.994ZM402.779 17.952C401.376 17.952 400.21 17.6607 399.283 17.078C398.355 16.4877 397.78 15.675 397.558 14.64L398.547 14.456C398.754 15.2227 399.237 15.836 399.996 16.296C400.762 16.756 401.698 16.986 402.802 16.986C403.929 16.986 404.822 16.7445 405.481 16.2615C406.148 15.7785 406.482 15.123 406.482 14.295C406.482 13.8427 406.382 13.4747 406.183 13.191C405.983 12.8997 405.592 12.6352 405.01 12.3975C404.435 12.1598 403.584 11.8877 402.457 11.581C401.276 11.259 400.356 10.9485 399.697 10.6495C399.045 10.3428 398.585 10.0017 398.317 9.626C398.056 9.24267 397.926 8.775 397.926 8.223C397.926 7.56367 398.121 6.981 398.512 6.475C398.903 5.969 399.444 5.57417 400.134 5.2905C400.824 5.00684 401.621 4.865 402.526 4.865C403.438 4.865 404.258 5.01834 404.987 5.325C405.723 5.624 406.313 6.04567 406.758 6.59C407.21 7.12667 407.471 7.74767 407.54 8.453L406.551 8.637C406.405 7.77067 405.96 7.08834 405.217 6.59C404.481 6.084 403.561 5.831 402.457 5.831C401.422 5.81567 400.575 6.0265 399.915 6.4635C399.264 6.9005 398.938 7.47167 398.938 8.177C398.938 8.568 399.049 8.90534 399.271 9.189C399.494 9.465 399.881 9.718 400.433 9.948C400.985 10.178 401.751 10.4157 402.733 10.661C403.975 10.9753 404.941 11.2935 405.631 11.6155C406.328 11.9375 406.815 12.3132 407.091 12.7425C407.375 13.1718 407.517 13.7047 407.517 14.341C407.517 15.468 407.095 16.3535 406.252 16.9975C405.408 17.6338 404.251 17.952 402.779 17.952ZM419.658 17.975C418.431 17.975 417.396 17.6952 416.553 17.1355C415.709 16.5758 415.069 15.8015 414.632 14.8125C414.195 13.8235 413.977 12.685 413.977 11.397C413.977 10.0937 414.199 8.95134 414.644 7.97C415.088 6.98867 415.732 6.22584 416.576 5.6815C417.427 5.13717 418.454 4.865 419.658 4.865C420.892 4.865 421.931 5.14484 422.774 5.7045C423.617 6.2565 424.254 7.02317 424.683 8.0045C425.12 8.98584 425.339 10.1167 425.339 11.397C425.339 12.708 425.12 13.858 424.683 14.847C424.246 15.8283 423.602 16.595 422.751 17.147C421.908 17.699 420.877 17.975 419.658 17.975ZM419.658 17.009C421.222 17.009 422.387 16.4915 423.154 15.4565C423.92 14.4138 424.304 13.0607 424.304 11.397C424.304 9.70267 423.916 8.35334 423.142 7.349C422.375 6.337 421.214 5.831 419.658 5.831C418.607 5.831 417.737 6.06867 417.047 6.544C416.365 7.01934 415.855 7.67484 415.518 8.5105C415.18 9.34617 415.012 10.3083 415.012 11.397C415.012 13.0837 415.403 14.4407 416.185 15.468C416.974 16.4953 418.132 17.009 419.658 17.009ZM437.097 17.63V11.052C437.097 10.1627 437.005 9.396 436.821 8.752C436.644 8.10034 436.38 7.56367 436.027 7.142C435.675 6.71267 435.245 6.3945 434.739 6.1875C434.241 5.9805 433.67 5.877 433.026 5.877C432.267 5.877 431.619 6.01117 431.082 6.2795C430.553 6.54017 430.124 6.9005 429.794 7.3605C429.465 7.8205 429.223 8.3495 429.07 8.9475C428.916 9.5455 428.84 10.178 428.84 10.845L427.943 10.868C427.943 9.44967 428.177 8.30734 428.644 7.441C429.112 6.567 429.729 5.93067 430.496 5.532C431.27 5.13334 432.113 4.934 433.026 4.934C433.654 4.934 434.229 5.02217 434.751 5.1985C435.28 5.37484 435.747 5.63167 436.154 5.969C436.568 6.29867 436.917 6.705 437.2 7.188C437.484 7.671 437.699 8.223 437.844 8.844C437.99 9.45734 438.063 10.132 438.063 10.868V17.63H437.097ZM427.874 17.63V5.21H428.771V7.74H428.84V17.63H427.874ZM1.84 52.63V35.725H2.806V52.63H1.84ZM11.2504 52.975C10.0237 52.975 8.98875 52.6952 8.14541 52.1355C7.30208 51.5758 6.66191 50.8015 6.22491 49.8125C5.78791 48.8235 5.56941 47.685 5.56941 46.397C5.56941 45.0937 5.79175 43.9513 6.23641 42.97C6.68108 41.9887 7.32508 41.2258 8.16841 40.6815C9.01941 40.1372 10.0467 39.865 11.2504 39.865C12.4847 39.865 13.5236 40.1448 14.3669 40.7045C15.2102 41.2565 15.8466 42.0232 16.2759 43.0045C16.7129 43.9858 16.9314 45.1167 16.9314 46.397C16.9314 47.708 16.7129 48.858 16.2759 49.847C15.8389 50.8283 15.1949 51.595 14.3439 52.147C13.5006 52.699 12.4694 52.975 11.2504 52.975ZM11.2504 52.009C12.8144 52.009 13.9797 51.4915 14.7464 50.4565C15.5131 49.4138 15.8964 48.0607 15.8964 46.397C15.8964 44.7027 15.5092 43.3533 14.7349 42.349C13.9682 41.337 12.8067 40.831 11.2504 40.831C10.2001 40.831 9.32991 41.0687 8.63991 41.544C7.95758 42.0193 7.44775 42.6748 7.11041 43.5105C6.77308 44.3462 6.60441 45.3083 6.60441 46.397C6.60441 48.0837 6.99541 49.4407 7.77741 50.468C8.56708 51.4953 9.72475 52.009 11.2504 52.009ZM28.6894 52.63V46.052C28.6894 45.1627 28.5974 44.396 28.4134 43.752C28.2371 43.1003 27.9726 42.5637 27.6199 42.142C27.2673 41.7127 26.8379 41.3945 26.3319 41.1875C25.8336 40.9805 25.2624 40.877 24.6184 40.877C23.8594 40.877 23.2116 41.0112 22.6749 41.2795C22.1459 41.5402 21.7166 41.9005 21.3869 42.3605C21.0573 42.8205 20.8158 43.3495 20.6624 43.9475C20.5091 44.5455 20.4324 45.178 20.4324 45.845L19.5354 45.868C19.5354 44.4497 19.7693 43.3073 20.2369 42.441C20.7046 41.567 21.3218 40.9307 22.0884 40.532C22.8628 40.1333 23.7061 39.934 24.6184 39.934C25.2471 39.934 25.8221 40.0222 26.3434 40.1985C26.8724 40.3748 27.3401 40.6317 27.7464 40.969C28.1604 41.2987 28.5093 41.705 28.7929 42.188C29.0766 42.671 29.2913 43.223 29.4369 43.844C29.5826 44.4573 29.6554 45.132 29.6554 45.868V52.63H28.6894ZM19.4664 52.63V40.21H20.3634V42.74H20.4324V52.63H19.4664ZM37.389 58.495C36.791 58.495 36.1892 58.4107 35.5835 58.242C34.9778 58.0733 34.4067 57.7858 33.87 57.3795C33.341 56.9808 32.8887 56.4327 32.513 55.735L33.364 55.16C33.778 56.011 34.3607 56.6128 35.112 56.9655C35.8633 57.3258 36.6223 57.506 37.389 57.506C38.5007 57.506 39.367 57.2952 39.988 56.8735C40.6167 56.4595 41.0575 55.8385 41.3105 55.0105C41.5635 54.1902 41.69 53.1667 41.69 51.94V48.766H41.782V40.21H42.679V51.94C42.679 52.3157 42.6713 52.6798 42.656 53.0325C42.6407 53.3852 42.61 53.734 42.564 54.079C42.4413 55.0833 42.173 55.9113 41.759 56.563C41.3527 57.2147 40.7892 57.6977 40.0685 58.012C39.3478 58.334 38.4547 58.495 37.389 58.495ZM37.366 52.975C36.193 52.975 35.204 52.6875 34.399 52.1125C33.6017 51.5298 32.996 50.744 32.582 49.755C32.168 48.7583 31.961 47.639 31.961 46.397C31.961 45.178 32.1642 44.074 32.5705 43.085C32.9768 42.096 33.5672 41.314 34.3415 40.739C35.1235 40.1563 36.0703 39.865 37.182 39.865C38.3397 39.865 39.3133 40.1487 40.103 40.716C40.9003 41.2757 41.5022 42.05 41.9085 43.039C42.3148 44.0203 42.518 45.1397 42.518 46.397C42.518 47.6313 42.3148 48.7468 41.9085 49.7435C41.5098 50.7325 40.9272 51.5183 40.1605 52.101C39.3938 52.6837 38.4623 52.975 37.366 52.975ZM37.366 52.009C38.3397 52.009 39.1523 51.7637 39.804 51.273C40.4633 50.7823 40.9578 50.1153 41.2875 49.272C41.6172 48.421 41.782 47.4627 41.782 46.397C41.782 45.316 41.6133 44.3577 41.276 43.522C40.9463 42.6787 40.4518 42.0193 39.7925 41.544C39.1408 41.0687 38.332 40.831 37.366 40.831C36.377 40.831 35.5567 41.0763 34.905 41.567C34.261 42.05 33.7818 42.7132 33.4675 43.5565C33.1532 44.3922 32.996 45.339 32.996 46.397C32.996 47.4627 33.1608 48.421 33.4905 49.272C33.8202 50.1153 34.307 50.7823 34.951 51.273C35.6027 51.7637 36.4077 52.009 37.366 52.009ZM56.9245 52.63C56.3035 52.768 55.6901 52.8178 55.0845 52.7795C54.4788 52.7488 53.9383 52.607 53.463 52.354C52.9876 52.0933 52.6311 51.7023 52.3935 51.181C52.2095 50.7747 52.106 50.3645 52.083 49.9505C52.06 49.5288 52.0485 49.0497 52.0485 48.513V36.76H53.0145V48.513C53.0145 49.0497 53.0183 49.4828 53.026 49.8125C53.0413 50.1422 53.1218 50.4527 53.2675 50.744C53.5435 51.296 53.9805 51.6372 54.5785 51.7675C55.1765 51.8902 55.9585 51.871 56.9245 51.71V52.63ZM49.1275 41.176V40.21H56.9245V41.176H49.1275ZM63.8764 52.975C62.7034 52.975 61.6914 52.7105 60.8404 52.1815C59.9971 51.6525 59.3454 50.8973 58.8854 49.916C58.4254 48.9347 58.1954 47.7693 58.1954 46.42C58.1954 45.063 58.4216 43.8938 58.8739 42.9125C59.3339 41.9312 59.9856 41.1798 60.8289 40.6585C61.6799 40.1295 62.6957 39.865 63.8764 39.865C65.0647 39.865 66.0806 40.1333 66.9239 40.67C67.7672 41.2067 68.4112 41.9848 68.8559 43.0045C69.3082 44.0242 69.5344 45.2547 69.5344 46.696H68.4994V46.374C68.4534 44.5877 68.0317 43.2192 67.2344 42.2685C66.4447 41.3102 65.3254 40.831 63.8764 40.831C62.4044 40.831 61.2621 41.3217 60.4494 42.303C59.6367 43.2767 59.2304 44.649 59.2304 46.42C59.2304 48.191 59.6367 49.5672 60.4494 50.5485C61.2621 51.5222 62.4044 52.009 63.8764 52.009C64.9037 52.009 65.8046 51.7675 66.5789 51.2845C67.3532 50.8015 67.9704 50.1077 68.4304 49.203L69.2354 49.663C68.7294 50.721 68.0126 51.5375 67.0849 52.1125C66.1572 52.6875 65.0877 52.975 63.8764 52.975ZM58.8164 46.696V45.73H68.9364V46.696H58.8164ZM72.07 52.63V40.21H72.967V43.177L72.668 42.786C72.7983 42.4487 72.9631 42.1343 73.1625 41.843C73.3618 41.5517 73.5573 41.314 73.749 41.13C74.0863 40.8003 74.485 40.5512 74.945 40.3825C75.4126 40.2062 75.8803 40.1065 76.348 40.0835C76.8156 40.0528 77.2296 40.095 77.59 40.21V41.13C77.0763 41.015 76.532 40.9958 75.957 41.0725C75.382 41.1415 74.8453 41.406 74.347 41.866C73.91 42.2723 73.5995 42.74 73.4155 43.269C73.2391 43.798 73.1318 44.3462 73.0935 44.9135C73.0551 45.4732 73.036 46.006 73.036 46.512V52.63H72.07ZM94.5171 52.63L94.5401 44.074C94.5401 43.039 94.2372 42.2263 93.6316 41.636C93.0259 41.038 92.2784 40.739 91.3891 40.739C90.8984 40.739 90.4001 40.8502 89.8941 41.0725C89.3957 41.2948 88.9741 41.6705 88.6291 42.1995C88.2917 42.7285 88.1231 43.453 88.1231 44.373H87.2721C87.2337 43.4607 87.3909 42.6672 87.7436 41.9925C88.1039 41.3178 88.6061 40.7965 89.2501 40.4285C89.8941 40.0528 90.6301 39.865 91.4581 39.865C92.6311 39.865 93.5971 40.233 94.3561 40.969C95.1227 41.705 95.5061 42.717 95.5061 44.005L95.4831 52.63H94.5171ZM79.7741 52.63V40.21H80.6711V42.74H80.7401V52.63H79.7741ZM87.1571 52.63L87.1801 44.235C87.1801 43.1617 86.8811 42.3107 86.2831 41.682C85.6927 41.0533 84.9261 40.739 83.9831 40.739C83.0171 40.739 82.2351 41.0687 81.6371 41.728C81.0391 42.3873 80.7401 43.269 80.7401 44.373L79.8891 44.005C79.8891 43.2077 80.0692 42.4985 80.4296 41.8775C80.7899 41.2488 81.2844 40.7582 81.9131 40.4055C82.5494 40.0452 83.2777 39.865 84.0981 39.865C84.7957 39.865 85.4512 40.0145 86.0646 40.3135C86.6779 40.6048 87.1724 41.061 87.5481 41.682C87.9314 42.303 88.1231 43.1003 88.1231 44.074L88.1001 52.63H87.1571ZM103.111 52.63V40.21H104.008V43.177L103.709 42.786C103.839 42.4487 104.004 42.1343 104.203 41.843C104.403 41.5517 104.598 41.314 104.79 41.13C105.127 40.8003 105.526 40.5512 105.986 40.3825C106.454 40.2062 106.921 40.1065 107.389 40.0835C107.857 40.0528 108.271 40.095 108.631 40.21V41.13C108.117 41.015 107.573 40.9958 106.998 41.0725C106.423 41.1415 105.886 41.406 105.388 41.866C104.951 42.2723 104.64 42.74 104.456 43.269C104.28 43.798 104.173 44.3462 104.134 44.9135C104.096 45.4732 104.077 46.006 104.077 46.512V52.63H103.111ZM115.581 52.975C114.408 52.975 113.396 52.7105 112.545 52.1815C111.702 51.6525 111.05 50.8973 110.59 49.916C110.13 48.9347 109.9 47.7693 109.9 46.42C109.9 45.063 110.127 43.8938 110.579 42.9125C111.039 41.9312 111.691 41.1798 112.534 40.6585C113.385 40.1295 114.401 39.865 115.581 39.865C116.77 39.865 117.786 40.1333 118.629 40.67C119.472 41.2067 120.116 41.9848 120.561 43.0045C121.013 44.0242 121.239 45.2547 121.239 46.696H120.204V46.374C120.158 44.5877 119.737 43.2192 118.939 42.2685C118.15 41.3102 117.03 40.831 115.581 40.831C114.109 40.831 112.967 41.3217 112.154 42.303C111.342 43.2767 110.935 44.649 110.935 46.42C110.935 48.191 111.342 49.5672 112.154 50.5485C112.967 51.5222 114.109 52.009 115.581 52.009C116.609 52.009 117.51 51.7675 118.284 51.2845C119.058 50.8015 119.675 50.1077 120.135 49.203L120.94 49.663C120.434 50.721 119.718 51.5375 118.79 52.1125C117.862 52.6875 116.793 52.975 115.581 52.975ZM110.521 46.696V45.73H120.641V46.696H110.521ZM124.005 52.63V35.725H124.971V52.63H124.005ZM132.035 52.975C131.069 52.975 130.268 52.8063 129.632 52.469C128.996 52.1317 128.52 51.687 128.206 51.135C127.892 50.583 127.734 49.985 127.734 49.341C127.734 48.6127 127.892 48.0108 128.206 47.5355C128.528 47.0525 128.946 46.673 129.459 46.397C129.973 46.121 130.525 45.9217 131.115 45.799C131.836 45.6533 132.607 45.5268 133.427 45.4195C134.255 45.3045 135.018 45.2087 135.715 45.132C136.413 45.0553 136.934 44.994 137.279 44.948L136.934 45.178C136.973 43.7137 136.704 42.625 136.129 41.912C135.562 41.1913 134.558 40.831 133.116 40.831C132.074 40.831 131.234 41.0648 130.598 41.5325C129.969 41.9925 129.528 42.7017 129.275 43.66L128.217 43.384C128.493 42.234 129.057 41.36 129.908 40.762C130.767 40.164 131.851 39.865 133.162 39.865C134.312 39.865 135.271 40.0988 136.037 40.5665C136.804 41.0342 137.325 41.6667 137.601 42.464C137.709 42.7707 137.785 43.1425 137.831 43.5795C137.877 44.0165 137.9 44.442 137.9 44.856V52.63H137.003V49.226L137.463 49.249C137.134 50.4297 136.478 51.3458 135.497 51.9975C134.516 52.6492 133.362 52.975 132.035 52.975ZM131.989 52.009C132.886 52.009 133.676 51.848 134.358 51.526C135.048 51.204 135.604 50.7402 136.026 50.1345C136.455 49.5212 136.727 48.789 136.842 47.938C136.904 47.5087 136.934 47.0487 136.934 46.558C136.934 46.0673 136.934 45.7147 136.934 45.5L137.44 45.891C137.034 45.9293 136.471 45.983 135.75 46.052C135.037 46.1133 134.282 46.1977 133.484 46.305C132.687 46.4047 131.966 46.535 131.322 46.696C130.947 46.788 130.56 46.9337 130.161 47.133C129.762 47.3323 129.425 47.6122 129.149 47.9725C128.881 48.3328 128.746 48.7967 128.746 49.364C128.746 49.7627 128.846 50.1652 129.045 50.5715C129.245 50.9778 129.578 51.319 130.046 51.595C130.521 51.871 131.169 52.009 131.989 52.009ZM147.307 52.63C146.686 52.768 146.073 52.8178 145.467 52.7795C144.862 52.7488 144.321 52.607 143.846 52.354C143.37 52.0933 143.014 51.7023 142.776 51.181C142.592 50.7747 142.489 50.3645 142.466 49.9505C142.443 49.5288 142.431 49.0497 142.431 48.513V36.76H143.397V48.513C143.397 49.0497 143.401 49.4828 143.409 49.8125C143.424 50.1422 143.505 50.4527 143.65 50.744C143.926 51.296 144.363 51.6372 144.961 51.7675C145.559 51.8902 146.341 51.871 147.307 51.71V52.63ZM139.51 41.176V40.21H147.307V41.176H139.51ZM149.835 37.542V36.07H150.801V37.542H149.835ZM149.835 52.63V40.21H150.801V52.63H149.835ZM159.246 52.975C158.019 52.975 156.984 52.6952 156.141 52.1355C155.297 51.5758 154.657 50.8015 154.22 49.8125C153.783 48.8235 153.565 47.685 153.565 46.397C153.565 45.0937 153.787 43.9513 154.232 42.97C154.676 41.9887 155.32 41.2258 156.164 40.6815C157.015 40.1372 158.042 39.865 159.246 39.865C160.48 39.865 161.519 40.1448 162.362 40.7045C163.205 41.2565 163.842 42.0232 164.271 43.0045C164.708 43.9858 164.927 45.1167 164.927 46.397C164.927 47.708 164.708 48.858 164.271 49.847C163.834 50.8283 163.19 51.595 162.339 52.147C161.496 52.699 160.465 52.975 159.246 52.975ZM159.246 52.009C160.81 52.009 161.975 51.4915 162.742 50.4565C163.508 49.4138 163.892 48.0607 163.892 46.397C163.892 44.7027 163.504 43.3533 162.73 42.349C161.963 41.337 160.802 40.831 159.246 40.831C158.195 40.831 157.325 41.0687 156.635 41.544C155.953 42.0193 155.443 42.6748 155.106 43.5105C154.768 44.3462 154.6 45.3083 154.6 46.397C154.6 48.0837 154.991 49.4407 155.773 50.468C156.562 51.4953 157.72 52.009 159.246 52.009ZM176.685 52.63V46.052C176.685 45.1627 176.593 44.396 176.409 43.752C176.232 43.1003 175.968 42.5637 175.615 42.142C175.262 41.7127 174.833 41.3945 174.327 41.1875C173.829 40.9805 173.258 40.877 172.614 40.877C171.855 40.877 171.207 41.0112 170.67 41.2795C170.141 41.5402 169.712 41.9005 169.382 42.3605C169.052 42.8205 168.811 43.3495 168.658 43.9475C168.504 44.5455 168.428 45.178 168.428 45.845L167.531 45.868C167.531 44.4497 167.764 43.3073 168.232 42.441C168.7 41.567 169.317 40.9307 170.084 40.532C170.858 40.1333 171.701 39.934 172.614 39.934C173.242 39.934 173.817 40.0222 174.339 40.1985C174.868 40.3748 175.335 40.6317 175.742 40.969C176.156 41.2987 176.504 41.705 176.788 42.188C177.072 42.671 177.286 43.223 177.432 43.844C177.578 44.4573 177.651 45.132 177.651 45.868V52.63H176.685ZM167.462 52.63V40.21H168.359V42.74H168.428V52.63H167.462ZM185.177 52.952C183.774 52.952 182.609 52.6607 181.681 52.078C180.753 51.4877 180.178 50.675 179.956 49.64L180.945 49.456C181.152 50.2227 181.635 50.836 182.394 51.296C183.161 51.756 184.096 51.986 185.2 51.986C186.327 51.986 187.22 51.7445 187.88 51.2615C188.547 50.7785 188.88 50.123 188.88 49.295C188.88 48.8427 188.78 48.4747 188.581 48.191C188.382 47.8997 187.991 47.6352 187.408 47.3975C186.833 47.1598 185.982 46.8877 184.855 46.581C183.674 46.259 182.754 45.9485 182.095 45.6495C181.443 45.3428 180.983 45.0017 180.715 44.626C180.454 44.2427 180.324 43.775 180.324 43.223C180.324 42.5637 180.52 41.981 180.911 41.475C181.302 40.969 181.842 40.5742 182.532 40.2905C183.222 40.0068 184.019 39.865 184.924 39.865C185.836 39.865 186.657 40.0183 187.385 40.325C188.121 40.624 188.711 41.0457 189.156 41.59C189.608 42.1267 189.869 42.7477 189.938 43.453L188.949 43.637C188.803 42.7707 188.359 42.0883 187.615 41.59C186.879 41.084 185.959 40.831 184.855 40.831C183.82 40.8157 182.973 41.0265 182.314 41.4635C181.662 41.9005 181.336 42.4717 181.336 43.177C181.336 43.568 181.447 43.9053 181.67 44.189C181.892 44.465 182.279 44.718 182.831 44.948C183.383 45.178 184.15 45.4157 185.131 45.661C186.373 45.9753 187.339 46.2935 188.029 46.6155C188.727 46.9375 189.214 47.3132 189.49 47.7425C189.773 48.1718 189.915 48.7047 189.915 49.341C189.915 50.468 189.493 51.3535 188.65 51.9975C187.807 52.6338 186.649 52.952 185.177 52.952ZM201.684 52.63V46.052C201.684 45.1627 201.592 44.396 201.408 43.752C201.231 43.1003 200.967 42.5637 200.614 42.142C200.261 41.7127 199.832 41.3945 199.326 41.1875C198.828 40.9805 198.257 40.877 197.613 40.877C196.854 40.877 196.206 41.0112 195.669 41.2795C195.14 41.5402 194.711 41.9005 194.381 42.3605C194.051 42.8205 193.81 43.3495 193.657 43.9475C193.503 44.5455 193.427 45.178 193.427 45.845L192.53 45.868C192.53 44.4497 192.763 43.3073 193.231 42.441C193.699 41.567 194.316 40.9307 195.083 40.532C195.857 40.1333 196.7 39.934 197.613 39.934C198.241 39.934 198.816 40.0222 199.338 40.1985C199.867 40.3748 200.334 40.6317 200.741 40.969C201.155 41.2987 201.503 41.705 201.787 42.188C202.071 42.671 202.285 43.223 202.431 43.844C202.577 44.4573 202.65 45.132 202.65 45.868V52.63H201.684ZM192.461 52.63V36.07H193.358V45.845H193.427V52.63H192.461ZM205.875 37.542V36.07H206.841V37.542H205.875ZM205.875 52.63V40.21H206.841V52.63H205.875ZM215.608 52.975C214.511 52.975 213.58 52.6837 212.813 52.101C212.046 51.5183 211.46 50.7325 211.054 49.7435C210.655 48.7468 210.456 47.6313 210.456 46.397C210.456 45.1397 210.659 44.0203 211.065 43.039C211.471 42.05 212.069 41.2757 212.859 40.716C213.656 40.1487 214.634 39.865 215.792 39.865C216.903 39.865 217.846 40.1563 218.621 40.739C219.403 41.314 219.997 42.096 220.403 43.085C220.809 44.074 221.013 45.178 221.013 46.397C221.013 47.639 220.806 48.7583 220.392 49.755C219.978 50.744 219.368 51.5298 218.563 52.1125C217.766 52.6875 216.781 52.975 215.608 52.975ZM210.295 58.15V40.21H211.192V49.985H211.261V58.15H210.295ZM215.608 52.009C216.566 52.009 217.367 51.7637 218.011 51.273C218.663 50.7823 219.153 50.1153 219.483 49.272C219.813 48.421 219.978 47.4627 219.978 46.397C219.978 45.339 219.817 44.3922 219.495 43.5565C219.18 42.7132 218.701 42.05 218.057 41.567C217.413 41.0763 216.597 40.831 215.608 40.831C214.642 40.831 213.829 41.0687 213.17 41.544C212.518 42.0193 212.023 42.6787 211.686 43.522C211.356 44.3577 211.192 45.316 211.192 46.397C211.192 47.4627 211.356 48.421 211.686 49.272C212.016 50.1153 212.506 50.7823 213.158 51.273C213.817 51.7637 214.634 52.009 215.608 52.009ZM228.078 52.952C226.675 52.952 225.509 52.6607 224.582 52.078C223.654 51.4877 223.079 50.675 222.857 49.64L223.846 49.456C224.053 50.2227 224.536 50.836 225.295 51.296C226.061 51.756 226.997 51.986 228.101 51.986C229.228 51.986 230.121 51.7445 230.78 51.2615C231.447 50.7785 231.781 50.123 231.781 49.295C231.781 48.8427 231.681 48.4747 231.482 48.191C231.282 47.8997 230.891 47.6352 230.309 47.3975C229.734 47.1598 228.883 46.8877 227.756 46.581C226.575 46.259 225.655 45.9485 224.996 45.6495C224.344 45.3428 223.884 45.0017 223.616 44.626C223.355 44.2427 223.225 43.775 223.225 43.223C223.225 42.5637 223.42 41.981 223.811 41.475C224.202 40.969 224.743 40.5742 225.433 40.2905C226.123 40.0068 226.92 39.865 227.825 39.865C228.737 39.865 229.557 40.0183 230.286 40.325C231.022 40.624 231.612 41.0457 232.057 41.59C232.509 42.1267 232.77 42.7477 232.839 43.453L231.85 43.637C231.704 42.7707 231.259 42.0883 230.516 41.59C229.78 41.084 228.86 40.831 227.756 40.831C226.721 40.8157 225.873 41.0265 225.214 41.4635C224.562 41.9005 224.237 42.4717 224.237 43.177C224.237 43.568 224.348 43.9053 224.57 44.189C224.792 44.465 225.18 44.718 225.732 44.948C226.284 45.178 227.05 45.4157 228.032 45.661C229.274 45.9753 230.24 46.2935 230.93 46.6155C231.627 46.9375 232.114 47.3132 232.39 47.7425C232.674 48.1718 232.816 48.7047 232.816 49.341C232.816 50.468 232.394 51.3535 231.551 51.9975C230.707 52.6338 229.55 52.952 228.078 52.952ZM242.61 52.63L238.815 40.21H239.827L243.116 50.974L246.405 40.21H247.417L250.706 50.974L254.018 40.21H255.007L251.212 52.63H250.2L246.911 41.843L243.622 52.63H242.61ZM257.311 37.542V36.07H258.277V37.542H257.311ZM257.311 52.63V40.21H258.277V52.63H257.311ZM268.147 52.63C267.526 52.768 266.913 52.8178 266.307 52.7795C265.701 52.7488 265.161 52.607 264.686 52.354C264.21 52.0933 263.854 51.7023 263.616 51.181C263.432 50.7747 263.329 50.3645 263.306 49.9505C263.283 49.5288 263.271 49.0497 263.271 48.513V36.76H264.237V48.513C264.237 49.0497 264.241 49.4828 264.249 49.8125C264.264 50.1422 264.344 50.4527 264.49 50.744C264.766 51.296 265.203 51.6372 265.801 51.7675C266.399 51.8902 267.181 51.871 268.147 51.71V52.63ZM260.35 41.176V40.21H268.147V41.176H260.35ZM279.668 52.63V46.052C279.668 45.1627 279.576 44.396 279.392 43.752C279.216 43.1003 278.951 42.5637 278.598 42.142C278.246 41.7127 277.816 41.3945 277.31 41.1875C276.812 40.9805 276.241 40.877 275.597 40.877C274.838 40.877 274.19 41.0112 273.653 41.2795C273.124 41.5402 272.695 41.9005 272.365 42.3605C272.036 42.8205 271.794 43.3495 271.641 43.9475C271.488 44.5455 271.411 45.178 271.411 45.845L270.514 45.868C270.514 44.4497 270.748 43.3073 271.215 42.441C271.683 41.567 272.3 40.9307 273.067 40.532C273.841 40.1333 274.685 39.934 275.597 39.934C276.226 39.934 276.801 40.0222 277.322 40.1985C277.851 40.3748 278.319 40.6317 278.725 40.969C279.139 41.2987 279.488 41.705 279.771 42.188C280.055 42.671 280.27 43.223 280.415 43.844C280.561 44.4573 280.634 45.132 280.634 45.868V52.63H279.668ZM270.445 52.63V36.07H271.342V45.845H271.411V52.63H270.445ZM293.225 52.975C291.991 52.975 290.956 52.699 290.12 52.147C289.284 51.595 288.652 50.8283 288.223 49.847C287.793 48.858 287.567 47.7157 287.544 46.42C287.567 45.0937 287.793 43.9398 288.223 42.9585C288.66 41.9772 289.296 41.2182 290.132 40.6815C290.967 40.1372 291.998 39.865 293.225 39.865C294.375 39.865 295.399 40.141 296.296 40.693C297.2 41.2373 297.84 41.9887 298.216 42.947L297.296 43.338C296.951 42.5407 296.418 41.9235 295.698 41.4865C294.985 41.0495 294.16 40.831 293.225 40.831C292.182 40.831 291.32 41.0687 290.638 41.544C289.955 42.0117 289.445 42.6672 289.108 43.5105C288.771 44.3462 288.594 45.316 288.579 46.42C288.602 48.1067 289.001 49.4598 289.775 50.4795C290.549 51.4992 291.699 52.009 293.225 52.009C294.137 52.009 294.946 51.7982 295.652 51.3765C296.357 50.9548 296.897 50.3377 297.273 49.525L298.216 49.939C297.702 50.9357 297.024 51.6908 296.181 52.2045C295.337 52.7182 294.352 52.975 293.225 52.975ZM305.439 52.906C304.811 52.906 304.232 52.8178 303.703 52.6415C303.182 52.4652 302.714 52.2122 302.3 51.8825C301.894 51.5452 301.549 51.135 301.265 50.652C300.981 50.169 300.767 49.6208 300.621 49.0075C300.475 48.3865 300.402 47.708 300.402 46.972V40.21H301.368V46.788C301.368 47.6697 301.457 48.4363 301.633 49.088C301.817 49.7397 302.085 50.2802 302.438 50.7095C302.791 51.1312 303.216 51.4455 303.714 51.6525C304.22 51.8595 304.795 51.963 305.439 51.963C306.198 51.963 306.842 51.8327 307.371 51.572C307.908 51.3037 308.341 50.9395 308.671 50.4795C309.001 50.0195 309.242 49.4905 309.395 48.8925C309.549 48.2945 309.625 47.662 309.625 46.995L310.522 46.972C310.522 48.3903 310.289 49.5365 309.821 50.4105C309.353 51.2768 308.732 51.9093 307.958 52.308C307.191 52.7067 306.352 52.906 305.439 52.906ZM309.694 52.63V50.1H309.625V40.21H310.591V52.63H309.694ZM318.348 52.952C316.945 52.952 315.78 52.6607 314.852 52.078C313.924 51.4877 313.349 50.675 313.127 49.64L314.116 49.456C314.323 50.2227 314.806 50.836 315.565 51.296C316.332 51.756 317.267 51.986 318.371 51.986C319.498 51.986 320.391 51.7445 321.051 51.2615C321.718 50.7785 322.051 50.123 322.051 49.295C322.051 48.8427 321.951 48.4747 321.752 48.191C321.553 47.8997 321.162 47.6352 320.579 47.3975C320.004 47.1598 319.153 46.8877 318.026 46.581C316.845 46.259 315.925 45.9485 315.266 45.6495C314.614 45.3428 314.154 45.0017 313.886 44.626C313.625 44.2427 313.495 43.775 313.495 43.223C313.495 42.5637 313.691 41.981 314.082 41.475C314.473 40.969 315.013 40.5742 315.703 40.2905C316.393 40.0068 317.19 39.865 318.095 39.865C319.007 39.865 319.828 40.0183 320.556 40.325C321.292 40.624 321.882 41.0457 322.327 41.59C322.779 42.1267 323.04 42.7477 323.109 43.453L322.12 43.637C321.974 42.7707 321.53 42.0883 320.786 41.59C320.05 41.084 319.13 40.831 318.026 40.831C316.991 40.8157 316.144 41.0265 315.485 41.4635C314.833 41.9005 314.507 42.4717 314.507 43.177C314.507 43.568 314.618 43.9053 314.841 44.189C315.063 44.465 315.45 44.718 316.002 44.948C316.554 45.178 317.321 45.4157 318.302 45.661C319.544 45.9753 320.51 46.2935 321.2 46.6155C321.898 46.9375 322.385 47.3132 322.661 47.7425C322.944 48.1718 323.086 48.7047 323.086 49.341C323.086 50.468 322.664 51.3535 321.821 51.9975C320.978 52.6338 319.82 52.952 318.348 52.952ZM332.048 52.63C331.427 52.768 330.814 52.8178 330.208 52.7795C329.603 52.7488 329.062 52.607 328.587 52.354C328.112 52.0933 327.755 51.7023 327.517 51.181C327.333 50.7747 327.23 50.3645 327.207 49.9505C327.184 49.5288 327.172 49.0497 327.172 48.513V36.76H328.138V48.513C328.138 49.0497 328.142 49.4828 328.15 49.8125C328.165 50.1422 328.246 50.4527 328.391 50.744C328.667 51.296 329.104 51.6372 329.702 51.7675C330.3 51.8902 331.082 51.871 332.048 51.71V52.63ZM324.251 41.176V40.21H332.048V41.176H324.251ZM339 52.975C337.774 52.975 336.739 52.6952 335.895 52.1355C335.052 51.5758 334.412 50.8015 333.975 49.8125C333.538 48.8235 333.319 47.685 333.319 46.397C333.319 45.0937 333.542 43.9513 333.986 42.97C334.431 41.9887 335.075 41.2258 335.918 40.6815C336.769 40.1372 337.797 39.865 339 39.865C340.235 39.865 341.274 40.1448 342.117 40.7045C342.96 41.2565 343.597 42.0232 344.026 43.0045C344.463 43.9858 344.681 45.1167 344.681 46.397C344.681 47.708 344.463 48.858 344.026 49.847C343.589 50.8283 342.945 51.595 342.094 52.147C341.251 52.699 340.219 52.975 339 52.975ZM339 52.009C340.564 52.009 341.73 51.4915 342.496 50.4565C343.263 49.4138 343.646 48.0607 343.646 46.397C343.646 44.7027 343.259 43.3533 342.485 42.349C341.718 41.337 340.557 40.831 339 40.831C337.95 40.831 337.08 41.0687 336.39 41.544C335.708 42.0193 335.198 42.6748 334.86 43.5105C334.523 44.3462 334.354 45.3083 334.354 46.397C334.354 48.0837 334.745 49.4407 335.527 50.468C336.317 51.4953 337.475 52.009 339 52.009ZM361.959 52.63L361.982 44.074C361.982 43.039 361.68 42.2263 361.074 41.636C360.468 41.038 359.721 40.739 358.831 40.739C358.341 40.739 357.842 40.8502 357.336 41.0725C356.838 41.2948 356.416 41.6705 356.071 42.1995C355.734 42.7285 355.565 43.453 355.565 44.373H354.714C354.676 43.4607 354.833 42.6672 355.186 41.9925C355.546 41.3178 356.048 40.7965 356.692 40.4285C357.336 40.0528 358.072 39.865 358.9 39.865C360.073 39.865 361.039 40.233 361.798 40.969C362.565 41.705 362.948 42.717 362.948 44.005L362.925 52.63H361.959ZM347.216 52.63V40.21H348.113V42.74H348.182V52.63H347.216ZM354.599 52.63L354.622 44.235C354.622 43.1617 354.323 42.3107 353.725 41.682C353.135 41.0533 352.368 40.739 351.425 40.739C350.459 40.739 349.677 41.0687 349.079 41.728C348.481 42.3873 348.182 43.269 348.182 44.373L347.331 44.005C347.331 43.2077 347.512 42.4985 347.872 41.8775C348.232 41.2488 348.727 40.7582 349.355 40.4055C349.992 40.0452 350.72 39.865 351.54 39.865C352.238 39.865 352.894 40.0145 353.507 40.3135C354.12 40.6048 354.615 41.061 354.99 41.682C355.374 42.303 355.565 43.1003 355.565 44.074L355.542 52.63H354.599ZM370.94 52.975C369.767 52.975 368.755 52.7105 367.904 52.1815C367.061 51.6525 366.409 50.8973 365.949 49.916C365.489 48.9347 365.259 47.7693 365.259 46.42C365.259 45.063 365.485 43.8938 365.937 42.9125C366.397 41.9312 367.049 41.1798 367.892 40.6585C368.743 40.1295 369.759 39.865 370.94 39.865C372.128 39.865 373.144 40.1333 373.987 40.67C374.831 41.2067 375.475 41.9848 375.919 43.0045C376.372 44.0242 376.598 45.2547 376.598 46.696H375.563V46.374C375.517 44.5877 375.095 43.2192 374.298 42.2685C373.508 41.3102 372.389 40.831 370.94 40.831C369.468 40.831 368.326 41.3217 367.513 42.303C366.7 43.2767 366.294 44.649 366.294 46.42C366.294 48.191 366.7 49.5672 367.513 50.5485C368.326 51.5222 369.468 52.009 370.94 52.009C371.967 52.009 372.868 51.7675 373.642 51.2845C374.417 50.8015 375.034 50.1077 375.494 49.203L376.299 49.663C375.793 50.721 375.076 51.5375 374.148 52.1125C373.221 52.6875 372.151 52.975 370.94 52.975ZM365.88 46.696V45.73H376V46.696H365.88ZM379.133 52.63V40.21H380.03V43.177L379.731 42.786C379.862 42.4487 380.027 42.1343 380.226 41.843C380.425 41.5517 380.621 41.314 380.812 41.13C381.15 40.8003 381.548 40.5512 382.008 40.3825C382.476 40.2062 382.944 40.1065 383.411 40.0835C383.879 40.0528 384.293 40.095 384.653 40.21V41.13C384.14 41.015 383.595 40.9958 383.02 41.0725C382.445 41.1415 381.909 41.406 381.41 41.866C380.973 42.2723 380.663 42.74 380.479 43.269C380.303 43.798 380.195 44.3462 380.157 44.9135C380.119 45.4732 380.099 46.006 380.099 46.512V52.63H379.133ZM390.919 52.952C389.516 52.952 388.351 52.6607 387.423 52.078C386.496 51.4877 385.921 50.675 385.698 49.64L386.687 49.456C386.894 50.2227 387.377 50.836 388.136 51.296C388.903 51.756 389.838 51.986 390.942 51.986C392.069 51.986 392.962 51.7445 393.622 51.2615C394.289 50.7785 394.622 50.123 394.622 49.295C394.622 48.8427 394.523 48.4747 394.323 48.191C394.124 47.8997 393.733 47.6352 393.15 47.3975C392.575 47.1598 391.724 46.8877 390.597 46.581C389.417 46.259 388.497 45.9485 387.837 45.6495C387.186 45.3428 386.726 45.0017 386.457 44.626C386.197 44.2427 386.066 43.775 386.066 43.223C386.066 42.5637 386.262 41.981 386.653 41.475C387.044 40.969 387.584 40.5742 388.274 40.2905C388.964 40.0068 389.762 39.865 390.666 39.865C391.579 39.865 392.399 40.0183 393.127 40.325C393.863 40.624 394.454 41.0457 394.898 41.59C395.351 42.1267 395.611 42.7477 395.68 43.453L394.691 43.637C394.546 42.7707 394.101 42.0883 393.357 41.59C392.621 41.084 391.701 40.831 390.597 40.831C389.562 40.8157 388.715 41.0265 388.056 41.4635C387.404 41.9005 387.078 42.4717 387.078 43.177C387.078 43.568 387.189 43.9053 387.412 44.189C387.634 44.465 388.021 44.718 388.573 44.948C389.125 45.178 389.892 45.4157 390.873 45.661C392.115 45.9753 393.081 46.2935 393.771 46.6155C394.469 46.9375 394.956 47.3132 395.232 47.7425C395.515 48.1718 395.657 48.7047 395.657 49.341C395.657 50.468 395.236 51.3535 394.392 51.9975C393.549 52.6338 392.391 52.952 390.919 52.952ZM398.433 52.63V51.25H399.813V52.63H398.433Z" fill="#60697B"/>
</svg>
