<svg width="52" height="53" viewBox="0 0 52 53" fill="none" xmlns="http://www.w3.org/2000/svg">
<path d="M10.4 48.9792C4.65156 48.9792 0 44.3175 0 38.5792C0 32.8409 4.66172 28.1792 10.4 28.1792C14.0867 28.1792 17.4992 30.1292 19.368 33.3081C19.7844 34.0089 19.5508 34.9128 18.8398 35.3292C18.1391 35.7456 17.2352 35.512 16.8188 34.8011C14.7367 31.2565 10.1766 30.0683 6.63203 32.1503C3.0875 34.2323 1.89922 38.7925 3.98125 42.337C6.06328 45.8815 10.6234 47.0698 14.168 44.9878C15.2039 44.3784 16.0773 43.5354 16.707 42.5198C17.1437 41.8292 18.0477 41.6159 18.7484 42.0526C19.4391 42.4894 19.6523 43.3933 19.2156 44.094C17.3164 47.1409 13.9852 48.9894 10.4 48.9792ZM50.5273 36.812H25.8273C25.0148 36.7917 24.3648 36.1112 24.3852 35.2987C24.4055 34.5167 25.0352 33.8769 25.8273 33.8565H50.5172C51.3297 33.8769 51.9797 34.5573 51.9594 35.3698C51.9391 36.162 51.3094 36.7917 50.5273 36.812ZM41.2648 43.3019H25.8273C25.0148 43.2815 24.3648 42.6011 24.3852 41.7886C24.4055 41.0065 25.0352 40.3667 25.8273 40.3464H41.2648C42.0773 40.3667 42.7273 41.0472 42.707 41.8597C42.6867 42.6417 42.0469 43.2815 41.2648 43.3019Z" fill="#343F52"/>
<path d="M10.4 22.898C15.3248 22.898 19.3172 18.9056 19.3172 13.9808C19.3172 9.05596 15.3248 5.0636 10.4 5.0636C5.47517 5.0636 1.48281 9.05596 1.48281 13.9808C1.48281 18.9056 5.47517 22.898 10.4 22.898Z" fill="#8CAEEC"/>
<path d="M10.4 24.3808C4.65156 24.3808 0 19.7191 0 13.9808C0 8.24253 4.65156 3.58081 10.4 3.58081C16.1484 3.58081 20.8 8.23237 20.8 13.9808C20.7898 19.7191 16.1383 24.3707 10.4 24.3808ZM10.4 6.53628C6.28672 6.53628 2.95547 9.86753 2.95547 13.9808C2.95547 18.0941 6.28672 21.4253 10.4 21.4253C14.5133 21.4253 17.8445 18.0941 17.8445 13.9808C17.8344 9.86753 14.5031 6.54644 10.4 6.53628ZM50.5273 12.2136H25.8273C25.0148 12.1933 24.3648 11.5128 24.3852 10.7003C24.4055 9.91831 25.0352 9.27847 25.8273 9.25815H50.5172C51.3297 9.27847 51.9797 9.95894 51.9594 10.7714C51.9391 11.5636 51.3094 12.1933 50.5273 12.2136ZM41.2648 18.6933H25.8273C25.0148 18.673 24.3648 17.9925 24.3852 17.18C24.4055 16.398 25.0352 15.7582 25.8273 15.7378H41.2648C42.0773 15.7582 42.7273 16.4386 42.707 17.2511C42.6867 18.0433 42.0469 18.673 41.2648 18.6933Z" fill="#343F52"/>
</svg>
