<svg width="20" height="21" viewBox="0 0 20 21" fill="none" xmlns="http://www.w3.org/2000/svg">
<path d="M10 1.81006C8.85417 1.81006 7.77344 2.03141 6.75781 2.47412C5.74219 2.90381 4.85677 3.49626 4.10156 4.25146C3.34635 5.00667 2.75391 5.89209 2.32422 6.90771C1.88151 7.92334 1.66016 9.00407 1.66016 10.1499C1.66016 11.2957 1.88151 12.3765 2.32422 13.3921C2.75391 14.4077 3.34635 15.2931 4.10156 16.0483C4.85677 16.8035 5.74219 17.396 6.75781 17.8257C7.77344 18.2684 8.85417 18.4897 10 18.4897C11.1458 18.4897 12.2266 18.2684 13.2422 17.8257C14.2578 17.396 15.1432 16.8035 15.8984 16.0483C16.6536 15.2931 17.2461 14.4077 17.6758 13.3921C18.1185 12.3765 18.3398 11.2957 18.3398 10.1499C18.3398 9.00407 18.1185 7.92334 17.6758 6.90771C17.2461 5.89209 16.6536 5.00667 15.8984 4.25146C15.1432 3.49626 14.2578 2.90381 13.2422 2.47412C12.2266 2.03141 11.1458 1.81006 10 1.81006ZM10 3.48975C10.8984 3.48975 11.7415 3.65251 12.5293 3.97803C13.3171 4.30355 14.0039 4.75277 14.5898 5.32568C14.0169 5.67725 13.4017 6.00277 12.7441 6.30225C12.0866 6.60173 11.4128 6.86865 10.7227 7.10303L10.5664 7.14209C10.1888 6.50407 9.80143 5.90186 9.4043 5.33545C9.00716 4.76904 8.58724 4.22542 8.14453 3.70459L8.18359 3.74365C8.45703 3.66553 8.74674 3.60368 9.05273 3.55811C9.35872 3.51253 9.67448 3.48975 10 3.48975ZM6.58203 4.44678C6.9987 4.91553 7.39909 5.41032 7.7832 5.93115C8.16732 6.45199 8.52865 6.99235 8.86719 7.55225L8.92578 7.6499C8.17057 7.84521 7.36979 7.99495 6.52344 8.09912C5.67708 8.20329 4.8112 8.26188 3.92578 8.2749H3.61328C3.86068 7.45459 4.23828 6.71891 4.74609 6.06787C5.25391 5.41683 5.85286 4.88298 6.54297 4.46631L6.58203 4.44678ZM5 14.5835C4.47917 13.9976 4.07227 13.3302 3.7793 12.5815C3.48633 11.8328 3.33984 11.0353 3.33984 10.189C3.33984 10.189 3.33984 10.1857 3.33984 10.1792C3.33984 10.1727 3.33984 10.1629 3.33984 10.1499C3.33984 10.1108 3.33984 10.0718 3.33984 10.0327C3.33984 9.99365 3.33984 9.95459 3.33984 9.91553H3.90625C4.94792 9.90251 5.9668 9.82113 6.96289 9.67139C7.95898 9.52165 8.93229 9.31006 9.88281 9.03662L9.72656 9.07568C9.86979 9.32308 10.0033 9.58024 10.127 9.84717C10.2507 10.1141 10.3711 10.3843 10.4883 10.6577C9.8112 10.8921 9.17318 11.1818 8.57422 11.5269C7.97526 11.8719 7.41536 12.2528 6.89453 12.6694L6.91406 12.6499L6.66016 12.8647C6.36068 13.1252 6.07422 13.3953 5.80078 13.6753C5.52734 13.9552 5.26693 14.245 5.01953 14.5444L5 14.5835ZM10 16.8101C10 16.8101 9.99674 16.8101 9.99023 16.8101C9.98372 16.8101 9.98047 16.8101 9.98047 16.8101C9.29036 16.8101 8.62956 16.7091 7.99805 16.5073C7.36654 16.3055 6.78385 16.0223 6.25 15.6577L6.26953 15.6772C6.47786 15.4429 6.68945 15.2183 6.9043 15.0034C7.11914 14.7886 7.33724 14.577 7.55859 14.3687L7.57812 14.3491L7.83203 14.1343C8.3138 13.7306 8.82812 13.3726 9.375 13.0601C9.92188 12.7476 10.4948 12.4806 11.0938 12.2593L11.1719 12.2397C11.3932 12.8257 11.6016 13.4572 11.7969 14.1343C11.9922 14.8114 12.1615 15.5145 12.3047 16.2437L12.3438 16.3999C12.0052 16.5301 11.6374 16.631 11.2402 16.7026C10.8431 16.7743 10.4427 16.8101 10.0391 16.8101C10.026 16.8101 10.0163 16.8101 10.0098 16.8101C10.0033 16.8101 10 16.8101 10 16.8101ZM13.8672 15.5796C13.6979 14.8374 13.5221 14.1473 13.3398 13.5093C13.1576 12.8713 12.9557 12.2528 12.7344 11.6538L12.793 11.8491H13.0664C13.0794 11.8491 13.0892 11.8491 13.0957 11.8491C13.1022 11.8491 13.112 11.8491 13.125 11.8491C13.138 11.8491 13.1478 11.8491 13.1543 11.8491C13.1608 11.8491 13.1706 11.8491 13.1836 11.8491H13.75C14.2057 11.8621 14.6549 11.9077 15.0977 11.9858C15.5404 12.064 15.9701 12.1746 16.3867 12.3179L16.3281 12.2983C16.0938 12.9754 15.765 13.5907 15.3418 14.144C14.9186 14.6974 14.4336 15.1694 13.8867 15.5601L13.8672 15.5796ZM13.75 10.1499C13.6589 10.1499 13.571 10.1499 13.4863 10.1499C13.4017 10.1499 13.3203 10.1499 13.2422 10.1499C13.2161 10.1499 13.1868 10.1466 13.1543 10.1401C13.1217 10.1336 13.0924 10.1304 13.0664 10.1304C13.0404 10.1304 13.0143 10.1336 12.9883 10.1401C12.9622 10.1466 12.9362 10.1499 12.9102 10.1499C12.7799 10.1629 12.6562 10.1759 12.5391 10.189C12.4219 10.202 12.3112 10.2215 12.207 10.2476L12.2266 10.228H12.1484C12.0312 9.95459 11.9076 9.68115 11.7773 9.40771C11.6471 9.13428 11.5169 8.85433 11.3867 8.56787C12.207 8.28141 12.9753 7.96891 13.6914 7.63037C14.4076 7.29183 15.0977 6.92074 15.7617 6.51709L15.6641 6.57568C15.9766 7.07048 16.2207 7.61735 16.3965 8.21631C16.5723 8.81527 16.6602 9.44027 16.6602 10.0913C16.6602 10.1043 16.6602 10.1141 16.6602 10.1206C16.6602 10.1271 16.6602 10.1369 16.6602 10.1499C16.6602 10.215 16.6602 10.2834 16.6602 10.355C16.6602 10.4266 16.6602 10.5015 16.6602 10.5796C16.2435 10.4364 15.7975 10.3289 15.3223 10.2573C14.847 10.1857 14.3555 10.1499 13.8477 10.1499C13.8346 10.1499 13.8184 10.1499 13.7988 10.1499C13.7793 10.1499 13.763 10.1499 13.75 10.1499Z" fill="#E94D88"/>
</svg>
