<svg width="20" height="21" viewBox="0 0 20 21" fill="none" xmlns="http://www.w3.org/2000/svg">
<path d="M12.5977 4.82373H14.1602V2.16748C13.8216 2.12842 13.4635 2.09912 13.0859 2.07959C12.7083 2.06006 12.3177 2.05029 11.9141 2.05029C11.9141 2.05029 11.9108 2.05029 11.9043 2.05029C11.8978 2.05029 11.888 2.05029 11.875 2.05029C10.7422 2.05029 9.82422 2.38883 9.12109 3.06592C8.41797 3.743 8.06641 4.71305 8.06641 5.97607V8.16357H5.50781V11.1323H8.06641V18.73H11.1328V11.1323H13.6914L14.0625 8.16357H11.1328V6.26904C11.1328 5.82633 11.224 5.47477 11.4062 5.21436C11.5885 4.95394 11.9857 4.82373 12.5977 4.82373Z" fill="#4470CF"/>
</svg>
