<svg width="16" height="16" viewBox="0 0 16 16" fill="none" xmlns="http://www.w3.org/2000/svg">
<path d="M6.435 6.56494H7.06488C7.2309 6.56494 7.37494 6.50391 7.49701 6.38184C7.61908 6.25977 7.68011 6.11084 7.68011 5.93506C7.68011 5.75928 7.61908 5.61035 7.49701 5.48828C7.37494 5.36621 7.2309 5.30518 7.06488 5.30518H6.435C6.25922 5.30518 6.11029 5.36621 5.98822 5.48828C5.86615 5.61035 5.80511 5.75928 5.80511 5.93506C5.80511 6.11084 5.86615 6.25977 5.98822 6.38184C6.11029 6.50391 6.25922 6.56494 6.435 6.56494ZM6.435 7.81006C6.25922 7.81006 6.11029 7.87109 5.98822 7.99316C5.86615 8.11523 5.80511 8.26416 5.80511 8.43994C5.80511 8.60596 5.86615 8.75 5.98822 8.87207C6.11029 8.99414 6.25922 9.05518 6.435 9.05518H10.185C10.3608 9.05518 10.5097 8.99414 10.6318 8.87207C10.7538 8.75 10.8149 8.60596 10.8149 8.43994C10.8149 8.26416 10.7538 8.11523 10.6318 7.99316C10.5097 7.87109 10.3608 7.81006 10.185 7.81006H6.435ZM13.3051 5.89111C13.3051 5.86182 13.3027 5.83252 13.2978 5.80322C13.2929 5.77393 13.2856 5.74951 13.2758 5.72998V5.67139C13.2563 5.64209 13.2368 5.61279 13.2172 5.5835C13.1977 5.5542 13.1782 5.5249 13.1586 5.49561L9.40863 1.74561C9.37933 1.72607 9.35004 1.70654 9.32074 1.68701C9.29144 1.66748 9.26215 1.64795 9.23285 1.62842C9.22308 1.62842 9.21576 1.62842 9.21088 1.62842C9.20599 1.62842 9.20355 1.62842 9.20355 1.62842C9.19379 1.62842 9.18646 1.62842 9.18158 1.62842C9.1767 1.62842 9.17426 1.62842 9.17426 1.62842C9.14496 1.60889 9.11322 1.59424 9.07904 1.58447C9.04486 1.57471 9.00824 1.56494 8.96918 1.55518H5.18988C4.6723 1.55518 4.23041 1.73828 3.8642 2.10449C3.49799 2.4707 3.31488 2.9126 3.31488 3.43018V12.1899C3.31488 12.7075 3.49799 13.1494 3.8642 13.5156C4.23041 13.8818 4.6723 14.0649 5.18988 14.0649H11.4301C11.9477 14.0649 12.3896 13.8818 12.7558 13.5156C13.122 13.1494 13.3051 12.7075 13.3051 12.1899V5.93506C13.3051 5.93506 13.3051 5.93262 13.3051 5.92773C13.3051 5.92285 13.3051 5.91064 13.3051 5.89111ZM9.55511 3.69385L11.1811 5.30518H10.185C10.0092 5.30518 9.86029 5.24414 9.73822 5.12207C9.61615 5 9.55511 4.85596 9.55511 4.68994V3.69385ZM12.06 12.1899C12.06 12.356 11.999 12.5 11.8769 12.6221C11.7548 12.7441 11.6059 12.8052 11.4301 12.8052H5.18988C5.0141 12.8052 4.86517 12.7441 4.7431 12.6221C4.62103 12.5 4.56 12.356 4.56 12.1899V3.43018C4.56 3.26416 4.62103 3.12012 4.7431 2.99805C4.86517 2.87598 5.0141 2.81494 5.18988 2.81494H8.31V4.68994C8.31 5.20752 8.4931 5.64941 8.85931 6.01562C9.22552 6.38184 9.66742 6.56494 10.185 6.56494H12.06V12.1899ZM10.185 10.3149H6.435C6.25922 10.3149 6.11029 10.376 5.98822 10.498C5.86615 10.6201 5.80511 10.7642 5.80511 10.9302C5.80511 11.106 5.86615 11.2549 5.98822 11.377C6.11029 11.499 6.25922 11.5601 6.435 11.5601H10.185C10.3608 11.5601 10.5097 11.499 10.6318 11.377C10.7538 11.2549 10.8149 11.106 10.8149 10.9302C10.8149 10.7642 10.7538 10.6201 10.6318 10.498C10.5097 10.376 10.3608 10.3149 10.185 10.3149Z" fill="#AAB0BC"/>
</svg>
