<svg width="29" height="29" viewBox="0 0 29 29" fill="none" xmlns="http://www.w3.org/2000/svg">
<path d="M14.98 13.5757C15.618 13.5757 16.1649 13.3478 16.6206 12.8921C17.0763 12.4364 17.3042 11.8804 17.3042 11.2241C17.3042 10.5861 17.0763 10.0392 16.6206 9.5835C16.1649 9.12777 15.618 8.8999 14.98 8.8999C14.342 8.8999 13.7951 9.12777 13.3394 9.5835C12.8836 10.0392 12.6558 10.5861 12.6558 11.2241C12.6558 11.8804 12.8836 12.4364 13.3394 12.8921C13.7951 13.3478 14.342 13.5757 14.98 13.5757ZM14.1597 21.6421C14.269 21.7332 14.3921 21.8107 14.5288 21.8745C14.6655 21.9383 14.8159 21.9702 14.98 21.9702C15.144 21.9702 15.2944 21.9383 15.4312 21.8745C15.5679 21.8107 15.6909 21.7332 15.8003 21.6421L20.5854 16.8569C21.2964 16.1278 21.8615 15.2847 22.2808 14.3276C22.7 13.3706 22.9097 12.3452 22.9097 11.2515C22.9097 10.1577 22.7 9.12777 22.2808 8.16162C21.8615 7.19547 21.2964 6.35693 20.5854 5.646C19.8745 4.93506 19.036 4.36996 18.0698 3.95068C17.1037 3.53141 16.0737 3.32178 14.98 3.32178C13.8862 3.32178 12.8563 3.53141 11.8901 3.95068C10.924 4.36996 10.0854 4.93506 9.37451 5.646C8.66357 6.35693 8.09847 7.19547 7.6792 8.16162C7.25993 9.12777 7.05029 10.1577 7.05029 11.2515C7.05029 12.3452 7.25993 13.3706 7.6792 14.3276C8.09847 15.2847 8.66357 16.1278 9.37451 16.8569L14.1597 21.6421ZM9.40186 10.7046C9.493 9.82959 9.75732 9.03662 10.1948 8.32568C10.6323 7.61475 11.1974 7.03141 11.8901 6.57568V6.54834C12.3276 6.2749 12.8107 6.05615 13.3394 5.89209C13.868 5.72803 14.4149 5.646 14.98 5.646C15.5451 5.646 16.092 5.72803 16.6206 5.89209C17.1493 6.05615 17.6323 6.28402 18.0698 6.57568V6.54834C18.8172 7.05876 19.4188 7.72412 19.8745 8.54443C20.3302 9.36475 20.5581 10.2671 20.5581 11.2515C20.5581 12.0171 20.4123 12.7417 20.1206 13.4253C19.8289 14.1089 19.437 14.7059 18.9448 15.2163L14.98 19.1538L11.0151 15.2163C10.5229 14.7059 10.1265 14.1134 9.82568 13.439C9.5249 12.7645 9.37451 12.0353 9.37451 11.2515C9.37451 11.1603 9.37907 11.0646 9.38818 10.9644C9.3973 10.8641 9.41097 10.7684 9.4292 10.6772L9.40186 10.7046ZM23.1558 24.2944H6.8042C6.4943 24.2944 6.22542 24.4084 5.99756 24.6362C5.76969 24.8641 5.65576 25.1421 5.65576 25.4702C5.65576 25.7983 5.76969 26.0763 5.99756 26.3042C6.22542 26.5321 6.4943 26.646 6.8042 26.646H23.1558C23.4657 26.646 23.7345 26.5321 23.9624 26.3042C24.1903 26.0763 24.3042 25.7983 24.3042 25.4702C24.3042 25.1421 24.1903 24.8641 23.9624 24.6362C23.7345 24.4084 23.4657 24.2944 23.1558 24.2944Z" fill="#3F78E0"/>
</svg>
