<svg width="53" height="53" viewBox="0 0 53 53" fill="none" xmlns="http://www.w3.org/2000/svg">
<path d="M26.33 52.02C25.6317 52.02 24.9462 51.8677 24.3241 51.5757C18.4462 48.8716 4.76065 41.5972 4.76065 32.4565V9.17334C4.76065 7.81494 5.86514 6.71045 7.22354 6.69775C7.49014 6.69775 7.75674 6.73584 7.99796 6.82471C9.16592 7.21826 10.3974 7.42139 11.6288 7.40869C15.6278 7.42139 19.3349 5.33936 21.3915 1.91162C22.1024 0.743652 23.372 0.0200195 24.7431 0.0200195H27.9169C29.288 0.0327148 30.5575 0.743652 31.2685 1.91162C33.3251 5.33936 37.0321 7.42139 41.0312 7.40869C42.2626 7.40869 43.494 7.20557 44.662 6.82471C45.9569 6.39307 47.3534 7.09131 47.7851 8.38623C47.8739 8.64014 47.912 8.90674 47.912 9.16064V15.2544C47.912 16.0796 47.2392 16.7524 46.4267 16.7524C45.6015 16.7524 44.9286 16.0796 44.9286 15.2671V9.87158C43.6591 10.2271 42.3515 10.4048 41.0439 10.4048C36.0038 10.4302 31.3319 7.78955 28.7294 3.47314C28.5644 3.19385 28.2597 3.01611 27.9296 3.01611H24.7558C24.4257 3.01611 24.121 3.19385 23.956 3.47314C21.3534 7.78955 16.6815 10.4302 11.6415 10.4048C10.3339 10.4048 9.02628 10.2271 7.75674 9.87158V32.4692C7.75674 38.5249 16.9608 44.9106 25.581 48.8843C26.0634 49.1001 26.622 49.1001 27.1044 48.8843C35.7245 44.9106 44.9286 38.5249 44.9286 32.4692V22.9604C44.9286 22.1353 45.6015 21.4624 46.4267 21.4751C47.2519 21.4751 47.912 22.1479 47.912 22.9604V32.4692C47.912 41.6099 34.2265 48.8843 28.3485 51.5884C27.7138 51.8677 27.0282 52.02 26.33 52.02Z" fill="#343F52"/>
<path d="M24.5653 34.1704L16.6688 30.2222C15.1708 29.4732 14.5614 27.6578 15.3104 26.1597C16.0595 24.6617 17.8749 24.0523 19.3729 24.8013L25.0731 27.6578L32.2587 18.6822C33.2997 17.3745 35.204 17.1587 36.5116 18.2124C37.8192 19.2535 38.0351 21.1578 36.9813 22.4654L28.2724 33.3579C27.3964 34.4751 25.8476 34.8179 24.5653 34.1704Z" fill="#FCD49B"/>
<path d="M25.9237 35.9859C25.2255 35.9859 24.5273 35.8208 23.9052 35.5034L16.0087 31.5552C13.7743 30.438 12.873 27.7212 13.9901 25.4868C15.1073 23.2525 17.8241 22.3511 20.0585 23.4683L24.6796 25.7788L31.1034 17.7427C32.6649 15.7876 35.5087 15.4702 37.4638 17.0318C39.4189 18.5933 39.7362 21.437 38.1747 23.3921L29.4657 34.2847C28.6024 35.3638 27.2948 35.9859 25.9237 35.9859ZM18.0273 25.982C17.1767 25.982 16.4911 26.6675 16.4911 27.5181C16.4911 28.1021 16.8212 28.6353 17.3417 28.8892L25.2382 32.8374C25.8856 33.1675 26.6728 32.9898 27.1298 32.4185L35.8388 21.5259C36.3847 20.8784 36.3085 19.9009 35.661 19.355C35.0136 18.8091 34.036 18.8853 33.4901 19.5327C33.4774 19.5581 33.4521 19.5708 33.4394 19.5962L26.2538 28.5718C25.8095 29.1177 25.0478 29.2827 24.4257 28.978L18.7255 26.1216C18.5097 26.0327 18.2685 25.982 18.0273 25.982Z" fill="#343F52"/>
</svg>
