<svg width="52" height="53" viewBox="0 0 52 53" fill="none" xmlns="http://www.w3.org/2000/svg">
<path d="M43.5957 41.5739L7.74412 41.5231C4.5322 41.4977 1.71384 39.3903 0.787085 36.3307L0.291968 34.693C-0.609399 31.6208 0.609351 28.3073 3.27537 26.5426L33.2744 6.90298C33.998 6.43326 34.9629 6.63638 35.4326 7.36002C35.5215 7.48697 35.5849 7.62662 35.623 7.76627L45.0556 39.4792C45.3603 40.2917 44.9414 41.193 44.1289 41.485C43.9638 41.5485 43.7734 41.5739 43.5957 41.5739ZM33.2363 10.6608L4.98923 29.1452C3.4658 30.1481 2.78025 32.0397 3.28806 33.7917L3.77048 35.4294C4.30369 37.1813 5.9033 38.3874 7.73142 38.4001L41.4756 38.4508L33.2363 10.6608Z" fill="#343F52"/>
<path d="M17.5195 49.1403C12.3906 49.1403 8.27734 45.192 8.17578 40.152C8.17578 39.2887 8.87402 38.5905 9.7373 38.5905C10.5752 38.5905 11.2734 39.2506 11.2988 40.0885C11.375 43.4147 14.1045 46.0172 17.5195 46.0172C19.3223 46.0172 21.0361 45.2301 22.2168 43.8717C22.7881 43.2242 23.7656 43.1481 24.4258 43.7194C25.0732 44.2906 25.1494 45.2682 24.5781 45.9283C22.8008 47.9723 20.2236 49.1403 17.5195 49.1403Z" fill="#343F52"/>
<path d="M23.2832 15.3073L30.6211 39.9996L43.583 40.0123L34.125 8.21057L23.2832 15.3073Z" fill="#8CAEEC"/>
<path d="M43.5957 41.5739L30.6338 41.5612C29.9482 41.5612 29.3389 41.1042 29.1357 40.444L21.7852 15.7516C21.582 15.0915 21.8486 14.3805 22.4326 13.9997L33.2744 6.90298C33.998 6.43326 34.9629 6.63638 35.4326 7.36002C35.5215 7.48697 35.585 7.62662 35.623 7.76627L45.0811 39.5807C45.3223 40.4059 44.8525 41.2819 44.0273 41.5231C43.8877 41.5485 43.7354 41.5739 43.5957 41.5739ZM31.8018 38.4381L41.501 38.4508L33.2363 10.6608L25.124 15.9674L31.8018 38.4381Z" fill="#343F52"/>
<path d="M44.6621 45.0905C43.9766 45.0905 43.3672 44.6334 43.1641 43.9733L31.6113 5.12561C31.3447 4.30041 31.7764 3.42443 32.6016 3.14514C33.4268 2.87854 34.3027 3.31018 34.582 4.13537C34.5947 4.17346 34.6074 4.19885 34.6074 4.23693L46.1602 43.0719C46.4014 43.8971 45.9316 44.7731 45.1064 45.0143C44.9668 45.0651 44.8144 45.0905 44.6621 45.0905ZM42.9102 14.7613C42.0469 14.7613 41.3486 14.0631 41.3486 13.1998C41.3486 12.9713 41.3994 12.7428 41.501 12.527L43.2021 8.90881C43.5703 8.1217 44.4971 7.79162 45.2842 8.15979C46.0713 8.52795 46.4014 9.45471 46.0332 10.2418L44.332 13.86C44.0654 14.4059 43.5195 14.7613 42.9102 14.7613ZM46.4902 23.0006C45.627 23.0006 44.9287 22.3024 44.9287 21.4391C44.9287 20.7155 45.4238 20.0934 46.1221 19.9156L50.0703 18.9635C50.9082 18.7731 51.7461 19.2936 51.9365 20.1442C52.1269 20.9694 51.6191 21.7946 50.7939 22.0104L46.833 22.9498C46.7314 22.9879 46.6045 23.0006 46.4902 23.0006ZM50.1846 34.4264C49.8418 34.4264 49.499 34.3121 49.2324 34.0963L46.0713 31.6334C45.3857 31.1002 45.2715 30.1227 45.792 29.4371C46.3125 28.7516 47.3027 28.6373 47.9883 29.1578L51.1494 31.6207C51.835 32.1539 51.9492 33.1315 51.416 33.817C51.124 34.1979 50.667 34.4137 50.1846 34.4264Z" fill="#343F52"/>
</svg>
