<svg width="17" height="17" viewBox="0 0 17 17" fill="none" xmlns="http://www.w3.org/2000/svg">
<path d="M10.5625 9.10693L9.17188 8.29443V5.35693C9.17188 5.16943 9.10677 5.01058 8.97656 4.88037C8.84635 4.75016 8.6875 4.68506 8.5 4.68506C8.3125 4.68506 8.15365 4.75016 8.02344 4.88037C7.89323 5.01058 7.82812 5.16943 7.82812 5.35693V8.68506C7.82812 8.81006 7.85938 8.92204 7.92188 9.021C7.98438 9.11995 8.0625 9.20068 8.15625 9.26318H8.17188L9.90625 10.2632C9.94792 10.2944 9.9974 10.3179 10.0547 10.3335C10.112 10.3491 10.1719 10.3569 10.2344 10.3569C10.4219 10.3569 10.5807 10.2918 10.7109 10.1616C10.8411 10.0314 10.9062 9.87256 10.9062 9.68506C10.9062 9.56006 10.875 9.44808 10.8125 9.34912C10.75 9.25016 10.6667 9.16943 10.5625 9.10693ZM8.5 2.01318C7.58333 2.01318 6.71875 2.19027 5.90625 2.54443C5.09375 2.88818 4.38542 3.36214 3.78125 3.96631C3.17708 4.57048 2.70312 5.27881 2.35938 6.09131C2.00521 6.90381 1.82812 7.76839 1.82812 8.68506C1.82812 9.60173 2.00521 10.4663 2.35938 11.2788C2.70312 12.0913 3.17708 12.7996 3.78125 13.4038C4.38542 14.008 5.09375 14.4819 5.90625 14.8257C6.71875 15.1799 7.58333 15.3569 8.5 15.3569C9.41667 15.3569 10.2812 15.1799 11.0938 14.8257C11.9062 14.4819 12.6146 14.008 13.2188 13.4038C13.8229 12.7996 14.2969 12.0913 14.6406 11.2788C14.9948 10.4663 15.1719 9.60173 15.1719 8.68506C15.1719 7.76839 14.9948 6.90381 14.6406 6.09131C14.2865 5.27881 13.8099 4.57308 13.2109 3.97412C12.612 3.37516 11.9062 2.8986 11.0938 2.54443C10.2812 2.19027 9.41667 2.01318 8.5 2.01318ZM8.5 14.0132C7.76042 14.0132 7.06771 13.8778 6.42188 13.6069C5.77604 13.3257 5.21094 12.9429 4.72656 12.4585C4.24219 11.9741 3.85938 11.409 3.57812 10.7632C3.30729 10.1174 3.17188 9.42464 3.17188 8.68506C3.17188 7.94548 3.30729 7.25277 3.57812 6.60693C3.85938 5.9611 4.24219 5.396 4.72656 4.91162C5.21094 4.42725 5.77604 4.04443 6.42188 3.76318C7.06771 3.49235 7.76042 3.35693 8.5 3.35693C9.23958 3.35693 9.93229 3.49235 10.5781 3.76318C11.224 4.04443 11.7891 4.42725 12.2734 4.91162C12.7578 5.396 13.1406 5.9611 13.4219 6.60693C13.6927 7.25277 13.8281 7.94548 13.8281 8.68506C13.8281 9.42464 13.6875 10.1174 13.4062 10.7632C13.1354 11.409 12.7578 11.9741 12.2734 12.4585C11.7891 12.9429 11.224 13.3205 10.5781 13.5913C9.93229 13.8726 9.23958 14.0132 8.5 14.0132Z" fill="#60697B"/>
</svg>
