<svg width="20" height="21" viewBox="0 0 20 21" fill="none" xmlns="http://www.w3.org/2000/svg">
<path d="M18.3398 5.21436C18.0534 5.34456 17.7441 5.45524 17.4121 5.54639C17.0801 5.63753 16.7448 5.70915 16.4062 5.76123H16.3672C16.7188 5.53988 17.0247 5.26969 17.2852 4.95068C17.5456 4.63167 17.7409 4.27686 17.8711 3.88623V3.8667C17.5586 4.04899 17.2233 4.21175 16.8652 4.35498C16.5072 4.49821 16.1328 4.60889 15.7422 4.68701L15.7031 4.70654C15.3906 4.368 15.0163 4.09782 14.5801 3.896C14.1439 3.69417 13.6784 3.59326 13.1836 3.59326C12.2461 3.59326 11.4421 3.92855 10.7715 4.59912C10.1009 5.26969 9.76562 6.07373 9.76562 7.01123C9.76562 7.15446 9.77539 7.29443 9.79492 7.43115C9.81445 7.56787 9.83724 7.70133 9.86328 7.83154V7.81201C9.16016 7.77295 8.47656 7.66227 7.8125 7.47998C7.14844 7.29769 6.51693 7.05355 5.91797 6.74756C5.31901 6.44157 4.75911 6.08024 4.23828 5.66357C3.73047 5.23389 3.26172 4.76514 2.83203 4.25732V4.23779C2.6888 4.48519 2.57487 4.75537 2.49023 5.04834C2.4056 5.34131 2.36328 5.64404 2.36328 5.95654C2.36328 5.96956 2.36328 5.97607 2.36328 5.97607C2.36328 6.56201 2.5 7.10238 2.77344 7.59717C3.04688 8.09196 3.41146 8.49561 3.86719 8.80811H3.88672C3.60026 8.79508 3.32357 8.75277 3.05664 8.68115C2.78971 8.60954 2.54557 8.50863 2.32422 8.37842V8.41748C2.33724 9.23779 2.60417 9.96045 3.125 10.5854C3.64583 11.2104 4.29036 11.6011 5.05859 11.7573H5.07812C4.94792 11.7964 4.80469 11.8289 4.64844 11.855C4.49219 11.881 4.32943 11.894 4.16016 11.894C4.05599 11.894 3.94857 11.8908 3.83789 11.8843C3.72721 11.8778 3.61328 11.8615 3.49609 11.8354H3.51562C3.75 12.5256 4.1569 13.0887 4.73633 13.5249C5.31576 13.9611 5.97656 14.1857 6.71875 14.1987C6.14583 14.6545 5.49805 15.0125 4.77539 15.2729C4.05273 15.5334 3.29427 15.6701 2.5 15.6831C2.5 15.6831 2.49674 15.6831 2.49023 15.6831C2.48372 15.6831 2.48047 15.6831 2.48047 15.6831C2.33724 15.6831 2.19401 15.6766 2.05078 15.6636C1.90755 15.6506 1.77083 15.6375 1.64062 15.6245H1.66016C2.40234 16.1063 3.21615 16.4839 4.10156 16.7573C4.98698 17.0308 5.91797 17.1675 6.89453 17.1675C6.89453 17.1675 6.89779 17.1675 6.9043 17.1675C6.91081 17.1675 6.91406 17.1675 6.91406 17.1675C6.92708 17.1675 6.9401 17.1675 6.95312 17.1675C6.96615 17.1675 6.98568 17.1675 7.01172 17.1675C8.33984 17.1675 9.58984 16.9136 10.7617 16.4058C11.9336 15.8979 12.959 15.2078 13.8379 14.3354C14.7168 13.4631 15.4036 12.4409 15.8984 11.269C16.4062 10.0972 16.6602 8.84066 16.6602 7.49951C16.6602 7.48649 16.6602 7.47347 16.6602 7.46045C16.6602 7.44743 16.6602 7.43441 16.6602 7.42139V7.44092C16.6602 7.36279 16.6602 7.28792 16.6602 7.21631C16.6602 7.14469 16.6602 7.06982 16.6602 6.9917C16.9857 6.7443 17.2884 6.47412 17.5684 6.18115C17.8483 5.88818 18.099 5.57894 18.3203 5.25342L18.3398 5.21436Z" fill="#5DAED5"/>
</svg>
