<svg width="52" height="53" viewBox="0 0 52 53" fill="none" xmlns="http://www.w3.org/2000/svg">
<path d="M33.668 26.6387H18.332V24.4043C18.332 20.1768 21.7598 16.7363 26 16.7363C30.2402 16.7363 33.668 20.1641 33.668 24.4043V26.6387Z" fill="#8CAEEC"/>
<path d="M33.668 28.0349H18.332C17.5576 28.0349 16.9229 27.4002 16.9229 26.6257V24.3914C16.8594 19.3767 20.8711 15.2761 25.8858 15.2127C30.9004 15.1492 35.001 19.1609 35.0645 24.1755V26.6257C35.0645 27.4129 34.4424 28.0349 33.668 28.0349ZM19.7412 25.2293H32.2588V24.4041C32.3096 20.9509 29.542 18.1072 26.0889 18.0564C22.6358 18.0056 19.792 20.7732 19.7412 24.2263V25.2293Z" fill="#343F52"/>
<path d="M31.7891 10.8965C31.7891 14.0957 29.1992 16.6855 26 16.6855C22.8008 16.6855 20.2109 14.0957 20.2109 10.8965C20.2109 7.69727 22.8008 5.10742 26 5.10742C29.1992 5.10742 31.7891 7.69727 31.7891 10.8965Z" fill="#8CAEEC"/>
<path d="M26 18.082C22.0264 18.082 18.8018 14.8574 18.8018 10.8838C18.8018 6.91016 22.0264 3.68555 26 3.68555C29.9736 3.68555 33.1982 6.91016 33.1982 10.8838C33.1855 14.8574 29.9736 18.082 26 18.082ZM26 6.50391C23.5752 6.50391 21.6201 8.45898 21.6201 10.8838C21.6201 13.3086 23.5752 15.2637 26 15.2637C28.4248 15.2637 30.3799 13.3086 30.3799 10.8838C30.3799 8.47168 28.4121 6.5166 26 6.50391ZM50.5908 48.9189H37.6797C36.9053 48.9189 36.2705 48.2842 36.2705 47.5098V45.6309C36.2705 41.2891 39.7998 37.7598 44.1416 37.7598C44.916 37.7344 45.5635 38.3438 45.5889 39.1182C45.6143 39.8926 45.0049 40.54 44.2305 40.5654H44.1416C41.3486 40.5654 39.0889 42.8252 39.0889 45.6182V46.1006H49.1943V45.6309C49.1943 45.2246 49.1436 44.8057 49.042 44.4121C48.8643 43.6504 49.334 42.9014 50.0957 42.7236C50.832 42.5459 51.5811 43.0029 51.7715 43.7393C51.9238 44.3613 52 44.9961 52 45.6309V47.5098C52 48.2842 51.3779 48.9189 50.5908 48.9189Z" fill="#343F52"/>
<path d="M44.1289 40.5781C40.6631 40.5781 37.8447 37.7598 37.8447 34.2939C37.8447 30.8281 40.6631 28.0098 44.1289 28.0098C47.5947 28.0098 50.4131 30.8281 50.4131 34.2939C50.4131 37.7598 47.5947 40.5781 44.1289 40.5781ZM44.1289 30.8154C42.2119 30.8154 40.6631 32.377 40.6631 34.2939C40.6631 36.2109 42.2246 37.7598 44.1416 37.7598C46.0586 37.7598 47.6074 36.1982 47.6074 34.2939C47.6074 32.377 46.0459 30.8281 44.1289 30.8154ZM14.3203 48.9189H1.40918C0.634766 48.9189 0 48.2842 0 47.5098V45.6309C0 41.2891 3.5293 37.7598 7.87109 37.7598C8.64551 37.7852 9.25488 38.4326 9.22949 39.207C9.2041 39.9561 8.60742 40.5527 7.87109 40.5654C5.07812 40.5654 2.81836 42.8252 2.81836 45.6182V46.1006H12.9238V45.6309C12.9238 45.2246 12.873 44.8057 12.7715 44.4121C12.5811 43.6631 13.0508 42.9014 13.7998 42.7109C14.5488 42.5205 15.3105 42.9902 15.501 43.7393C15.6533 44.3613 15.7295 44.9961 15.7295 45.6309V47.5098C15.7422 48.2842 15.1074 48.9189 14.3203 48.9189C14.333 48.9189 14.333 48.9189 14.3203 48.9189Z" fill="#343F52"/>
<path d="M7.8584 40.5781C4.39258 40.5781 1.57422 37.7598 1.57422 34.2939C1.57422 30.8281 4.39258 28.0098 7.8584 28.0098C11.3242 28.0098 14.1426 30.8281 14.1426 34.2939C14.1426 37.7598 11.3369 40.5781 7.8584 40.5781ZM7.8584 30.8154C5.94141 30.8154 4.39258 32.3643 4.39258 34.2939C4.39258 36.2109 5.94141 37.7725 7.87109 37.7725C9.78809 37.7725 11.3369 36.2236 11.3369 34.3066C11.3369 32.377 9.77539 30.8281 7.8584 30.8154ZM26 39.9688C25.2256 39.9688 24.5908 39.334 24.5908 38.5596V31.3994C24.5654 30.625 25.1748 29.9775 25.9492 29.9521C26.7236 29.9268 27.3711 30.5361 27.3965 31.3105V38.5596C27.4092 39.3467 26.7744 39.9688 26 39.9688Z" fill="#343F52"/>
<path d="M35.4834 39.9685H16.5166C15.7422 39.9939 15.0947 39.3846 15.0693 38.6101C15.0439 37.8357 15.6533 37.1883 16.4277 37.1629H35.4961C36.2705 37.1375 36.9179 37.7469 36.9433 38.5213C36.9687 39.2957 36.3593 39.9431 35.5849 39.9685H35.4834Z" fill="#343F52"/>
</svg>
