<svg width="520" height="146" viewBox="0 0 520 146" fill="none" xmlns="http://www.w3.org/2000/svg">
<path d="M12.432 55.5L0.644 15.18H7.728L15.764 44.3L23.772 15.236L30.856 15.18L38.892 44.3L46.9 15.18H53.984L42.224 55.5H35.56L27.3 26.828L19.096 55.5H12.432ZM67.0049 56.34C63.9435 56.34 61.2555 55.6773 58.9409 54.352C56.6262 53.0267 54.8155 51.188 53.5089 48.836C52.2209 46.484 51.5769 43.7773 51.5769 40.716C51.5769 37.412 52.2115 34.5467 53.4809 32.12C54.7502 29.6747 56.5142 27.78 58.7729 26.436C61.0315 25.092 63.6449 24.42 66.6129 24.42C69.7489 24.42 72.4089 25.1573 74.5929 26.632C76.7955 28.088 78.4289 30.1507 79.4929 32.82C80.5569 35.4893 80.9582 38.6347 80.6969 42.256H74.0049V39.792C73.9862 36.5067 73.4075 34.108 72.2689 32.596C71.1302 31.084 69.3382 30.328 66.8929 30.328C64.1302 30.328 62.0769 31.1867 60.7329 32.904C59.3889 34.6027 58.7169 37.0947 58.7169 40.38C58.7169 43.4413 59.3889 45.812 60.7329 47.492C62.0769 49.172 64.0369 50.012 66.6129 50.012C68.2742 50.012 69.7022 49.648 70.8969 48.92C72.1102 48.1733 73.0435 47.1 73.6969 45.7L80.3609 47.716C79.2035 50.4413 77.4115 52.56 74.9849 54.072C72.5769 55.584 69.9169 56.34 67.0049 56.34ZM56.5889 42.256V37.16H77.3929V42.256H56.5889ZM108.767 56.34C105.818 56.34 103.345 55.64 101.347 54.24C99.35 52.84 97.8473 50.936 96.8393 48.528C95.8313 46.1013 95.3273 43.3853 95.3273 40.38C95.3273 37.3373 95.8313 34.612 96.8393 32.204C97.8473 29.796 99.322 27.9013 101.263 26.52C103.223 25.12 105.641 24.42 108.515 24.42C111.371 24.42 113.845 25.12 115.935 26.52C118.045 27.9013 119.678 29.796 120.835 32.204C121.993 34.5933 122.571 37.3187 122.571 40.38C122.571 43.404 122.002 46.12 120.863 48.528C119.725 50.936 118.119 52.84 116.047 54.24C113.975 55.64 111.549 56.34 108.767 56.34ZM94.1793 55.5V15.18H100.983V34.276H100.143V55.5H94.1793ZM107.731 50.292C109.486 50.292 110.933 49.8533 112.071 48.976C113.21 48.0987 114.05 46.9133 114.591 45.42C115.151 43.908 115.431 42.228 115.431 40.38C115.431 38.5507 115.151 36.8893 114.591 35.396C114.031 33.884 113.163 32.6893 111.987 31.812C110.811 30.916 109.318 30.468 107.507 30.468C105.79 30.468 104.39 30.888 103.307 31.728C102.225 32.5493 101.422 33.7067 100.899 35.2C100.395 36.6747 100.143 38.4013 100.143 40.38C100.143 42.34 100.395 44.0667 100.899 45.56C101.422 47.0533 102.234 48.22 103.335 49.06C104.455 49.8813 105.921 50.292 107.731 50.292ZM126.783 55.5V25.26H132.747V32.624L132.019 31.672C132.392 30.664 132.887 29.7493 133.503 28.928C134.138 28.088 134.894 27.3973 135.771 26.856C136.518 26.352 137.339 25.96 138.235 25.68C139.15 25.3813 140.083 25.204 141.035 25.148C141.987 25.0733 142.911 25.1107 143.807 25.26V31.56C142.911 31.2987 141.875 31.2147 140.699 31.308C139.542 31.4013 138.496 31.728 137.563 32.288C136.63 32.792 135.864 33.436 135.267 34.22C134.688 35.004 134.259 35.9 133.979 36.908C133.699 37.8973 133.559 38.9707 133.559 40.128V55.5H126.783ZM147.75 20.668V14.48H154.498V20.668H147.75ZM147.75 55.5V25.26H154.498V55.5H147.75ZM181.842 55.5V40.94C181.842 39.988 181.776 38.9333 181.646 37.776C181.515 36.6187 181.207 35.508 180.722 34.444C180.255 33.3613 179.546 32.4747 178.594 31.784C177.66 31.0933 176.391 30.748 174.786 30.748C173.927 30.748 173.078 30.888 172.238 31.168C171.398 31.448 170.632 31.9333 169.942 32.624C169.27 33.296 168.728 34.2293 168.318 35.424C167.907 36.6 167.702 38.112 167.702 39.96L163.698 38.252C163.698 35.676 164.192 33.3427 165.182 31.252C166.19 29.1613 167.664 27.5 169.606 26.268C171.547 25.0173 173.936 24.392 176.774 24.392C179.014 24.392 180.862 24.7653 182.318 25.512C183.774 26.2587 184.931 27.2107 185.79 28.368C186.648 29.5253 187.283 30.7573 187.694 32.064C188.104 33.3707 188.366 34.612 188.478 35.788C188.608 36.9453 188.674 37.888 188.674 38.616V55.5H181.842ZM160.87 55.5V25.26H166.89V34.64H167.702V55.5H160.87ZM206.732 69.78C205.052 69.78 203.438 69.5187 201.888 68.996C200.358 68.4733 198.976 67.7173 197.744 66.728C196.512 65.7573 195.504 64.5813 194.72 63.2L200.936 60.12C201.515 61.2213 202.327 62.0333 203.372 62.556C204.436 63.0973 205.566 63.368 206.76 63.368C208.16 63.368 209.411 63.116 210.512 62.612C211.614 62.1267 212.463 61.3987 213.06 60.428C213.676 59.476 213.966 58.2813 213.928 56.844V48.248H214.768V25.26H220.676V56.956C220.676 57.7213 220.639 58.4493 220.564 59.14C220.508 59.8493 220.406 60.54 220.256 61.212C219.808 63.172 218.95 64.7773 217.68 66.028C216.411 67.2973 214.834 68.24 212.948 68.856C211.082 69.472 209.01 69.78 206.732 69.78ZM206.144 56.34C203.363 56.34 200.936 55.64 198.864 54.24C196.792 52.84 195.187 50.936 194.048 48.528C192.91 46.12 192.34 43.404 192.34 40.38C192.34 37.3187 192.91 34.5933 194.048 32.204C195.206 29.796 196.839 27.9013 198.948 26.52C201.058 25.12 203.54 24.42 206.396 24.42C209.271 24.42 211.679 25.12 213.62 26.52C215.58 27.9013 217.064 29.796 218.072 32.204C219.08 34.612 219.584 37.3373 219.584 40.38C219.584 43.3853 219.08 46.1013 218.072 48.528C217.064 50.936 215.562 52.84 213.564 54.24C211.567 55.64 209.094 56.34 206.144 56.34ZM207.18 50.292C208.991 50.292 210.447 49.8813 211.548 49.06C212.668 48.22 213.48 47.0533 213.984 45.56C214.507 44.0667 214.768 42.34 214.768 40.38C214.768 38.4013 214.507 36.6747 213.984 35.2C213.48 33.7067 212.687 32.5493 211.604 31.728C210.522 30.888 209.122 30.468 207.404 30.468C205.594 30.468 204.1 30.916 202.924 31.812C201.748 32.6893 200.88 33.884 200.32 35.396C199.76 36.8893 199.48 38.5507 199.48 40.38C199.48 42.228 199.751 43.908 200.292 45.42C200.852 46.9133 201.702 48.0987 202.84 48.976C203.979 49.8533 205.426 50.292 207.18 50.292ZM247.495 56.34C243.762 56.34 240.728 55.5 238.395 53.82C236.062 52.14 234.643 49.7787 234.139 46.736L241.027 45.672C241.382 47.1653 242.166 48.3413 243.379 49.2C244.592 50.0587 246.123 50.488 247.971 50.488C249.595 50.488 250.846 50.1707 251.723 49.536C252.619 48.8827 253.067 47.996 253.067 46.876C253.067 46.1853 252.899 45.6347 252.563 45.224C252.246 44.7947 251.536 44.384 250.435 43.992C249.334 43.6 247.644 43.1053 245.367 42.508C242.828 41.836 240.812 41.1173 239.319 40.352C237.826 39.568 236.752 38.644 236.099 37.58C235.446 36.516 235.119 35.228 235.119 33.716C235.119 31.8307 235.614 30.188 236.603 28.788C237.592 27.388 238.974 26.3147 240.747 25.568C242.52 24.8027 244.611 24.42 247.019 24.42C249.371 24.42 251.452 24.784 253.263 25.512C255.092 26.24 256.567 27.276 257.687 28.62C258.807 29.964 259.498 31.5413 259.759 33.352L252.871 34.584C252.703 33.296 252.115 32.2787 251.107 31.532C250.118 30.7853 248.792 30.3653 247.131 30.272C245.544 30.1787 244.266 30.4213 243.295 31C242.324 31.56 241.839 32.3533 241.839 33.38C241.839 33.9587 242.035 34.4533 242.427 34.864C242.819 35.2747 243.603 35.6853 244.779 36.096C245.974 36.5067 247.747 37.0107 250.099 37.608C252.507 38.224 254.43 38.9333 255.867 39.736C257.323 40.52 258.368 41.4627 259.003 42.564C259.656 43.6653 259.983 45 259.983 46.568C259.983 49.6107 258.872 52 256.651 53.736C254.448 55.472 251.396 56.34 247.495 56.34ZM277.512 56.34C274.488 56.34 271.847 55.6587 269.588 54.296C267.329 52.9333 265.575 51.0573 264.324 48.668C263.092 46.26 262.476 43.4973 262.476 40.38C262.476 37.2067 263.111 34.4253 264.38 32.036C265.649 29.6467 267.413 27.78 269.672 26.436C271.931 25.092 274.544 24.42 277.512 24.42C280.555 24.42 283.205 25.1013 285.464 26.464C287.723 27.8267 289.477 29.712 290.728 32.12C291.979 34.5093 292.604 37.2627 292.604 40.38C292.604 43.516 291.969 46.288 290.7 48.696C289.449 51.0853 287.695 52.9613 285.436 54.324C283.177 55.668 280.536 56.34 277.512 56.34ZM277.512 50.012C280.2 50.012 282.197 49.116 283.504 47.324C284.811 45.532 285.464 43.2173 285.464 40.38C285.464 37.4493 284.801 35.116 283.476 33.38C282.151 31.6253 280.163 30.748 277.512 30.748C275.701 30.748 274.208 31.1587 273.032 31.98C271.875 32.7827 271.016 33.912 270.456 35.368C269.896 36.8053 269.616 38.476 269.616 40.38C269.616 43.3107 270.279 45.6533 271.604 47.408C272.948 49.144 274.917 50.012 277.512 50.012ZM297.373 55.5V14.34H304.121V55.5H297.373ZM321.888 56.368C319.648 56.368 317.8 55.9947 316.344 55.248C314.888 54.5013 313.731 53.5493 312.872 52.392C312.014 51.2347 311.379 50.0027 310.968 48.696C310.558 47.3893 310.287 46.1573 310.156 45C310.044 43.824 309.988 42.872 309.988 42.144V25.26H316.82V39.82C316.82 40.7533 316.886 41.808 317.016 42.984C317.147 44.1413 317.446 45.2613 317.912 46.344C318.398 47.408 319.107 48.2853 320.04 48.976C320.992 49.6667 322.271 50.012 323.876 50.012C324.735 50.012 325.584 49.872 326.424 49.592C327.264 49.312 328.02 48.836 328.692 48.164C329.383 47.4733 329.934 46.5307 330.344 45.336C330.755 44.1413 330.96 42.6293 330.96 40.8L334.964 42.508C334.964 45.084 334.46 47.4173 333.452 49.508C332.463 51.5987 330.998 53.2693 329.056 54.52C327.115 55.752 324.726 56.368 321.888 56.368ZM331.772 55.5V46.12H330.96V25.26H337.736V55.5H331.772ZM361.367 55.5C359.37 55.8733 357.41 56.032 355.487 55.976C353.583 55.9387 351.875 55.5933 350.363 54.94C348.851 54.268 347.703 53.2133 346.919 51.776C346.228 50.4693 345.864 49.1347 345.827 47.772C345.79 46.4093 345.771 44.8693 345.771 43.152V16.86H352.491V42.76C352.491 43.9733 352.5 45.0373 352.519 45.952C352.556 46.8667 352.752 47.6133 353.107 48.192C353.779 49.312 354.852 49.9373 356.327 50.068C357.802 50.1987 359.482 50.124 361.367 49.844V55.5ZM340.283 30.552V25.26H361.367V30.552H340.283ZM366.47 20.668V14.48H373.218V20.668H366.47ZM366.47 55.5V25.26H373.218V55.5H366.47ZM393.001 56.34C389.977 56.34 387.336 55.6587 385.077 54.296C382.818 52.9333 381.064 51.0573 379.813 48.668C378.581 46.26 377.965 43.4973 377.965 40.38C377.965 37.2067 378.6 34.4253 379.869 32.036C381.138 29.6467 382.902 27.78 385.161 26.436C387.42 25.092 390.033 24.42 393.001 24.42C396.044 24.42 398.694 25.1013 400.953 26.464C403.212 27.8267 404.966 29.712 406.217 32.12C407.468 34.5093 408.093 37.2627 408.093 40.38C408.093 43.516 407.458 46.288 406.189 48.696C404.938 51.0853 403.184 52.9613 400.925 54.324C398.666 55.668 396.025 56.34 393.001 56.34ZM393.001 50.012C395.689 50.012 397.686 49.116 398.993 47.324C400.3 45.532 400.953 43.2173 400.953 40.38C400.953 37.4493 400.29 35.116 398.965 33.38C397.64 31.6253 395.652 30.748 393.001 30.748C391.19 30.748 389.697 31.1587 388.521 31.98C387.364 32.7827 386.505 33.912 385.945 35.368C385.385 36.8053 385.105 38.476 385.105 40.38C385.105 43.3107 385.768 45.6533 387.093 47.408C388.437 49.144 390.406 50.012 393.001 50.012ZM433.218 55.5V40.94C433.218 39.988 433.153 38.9333 433.022 37.776C432.892 36.6187 432.584 35.508 432.098 34.444C431.632 33.3613 430.922 32.4747 429.97 31.784C429.037 31.0933 427.768 30.748 426.162 30.748C425.304 30.748 424.454 30.888 423.614 31.168C422.774 31.448 422.009 31.9333 421.318 32.624C420.646 33.296 420.105 34.2293 419.694 35.424C419.284 36.6 419.078 38.112 419.078 39.96L415.074 38.252C415.074 35.676 415.569 33.3427 416.558 31.252C417.566 29.1613 419.041 27.5 420.982 26.268C422.924 25.0173 425.313 24.392 428.15 24.392C430.39 24.392 432.238 24.7653 433.694 25.512C435.15 26.2587 436.308 27.2107 437.166 28.368C438.025 29.5253 438.66 30.7573 439.07 32.064C439.481 33.3707 439.742 34.612 439.854 35.788C439.985 36.9453 440.05 37.888 440.05 38.616V55.5H433.218ZM412.246 55.5V25.26H418.266V34.64H419.078V55.5H412.246ZM457.073 56.34C453.34 56.34 450.306 55.5 447.973 53.82C445.64 52.14 444.221 49.7787 443.717 46.736L450.605 45.672C450.96 47.1653 451.744 48.3413 452.957 49.2C454.17 50.0587 455.701 50.488 457.549 50.488C459.173 50.488 460.424 50.1707 461.301 49.536C462.197 48.8827 462.645 47.996 462.645 46.876C462.645 46.1853 462.477 45.6347 462.141 45.224C461.824 44.7947 461.114 44.384 460.013 43.992C458.912 43.6 457.222 43.1053 454.945 42.508C452.406 41.836 450.39 41.1173 448.897 40.352C447.404 39.568 446.33 38.644 445.677 37.58C445.024 36.516 444.697 35.228 444.697 33.716C444.697 31.8307 445.192 30.188 446.181 28.788C447.17 27.388 448.552 26.3147 450.325 25.568C452.098 24.8027 454.189 24.42 456.597 24.42C458.949 24.42 461.03 24.784 462.841 25.512C464.67 26.24 466.145 27.276 467.265 28.62C468.385 29.964 469.076 31.5413 469.337 33.352L462.449 34.584C462.281 33.296 461.693 32.2787 460.685 31.532C459.696 30.7853 458.37 30.3653 456.709 30.272C455.122 30.1787 453.844 30.4213 452.873 31C451.902 31.56 451.417 32.3533 451.417 33.38C451.417 33.9587 451.613 34.4533 452.005 34.864C452.397 35.2747 453.181 35.6853 454.357 36.096C455.552 36.5067 457.325 37.0107 459.677 37.608C462.085 38.224 464.008 38.9333 465.445 39.736C466.901 40.52 467.946 41.4627 468.581 42.564C469.234 43.6653 469.561 45 469.561 46.568C469.561 49.6107 468.45 52 466.229 53.736C464.026 55.472 460.974 56.34 457.073 56.34ZM21.644 122.5C19.6467 122.873 17.6867 123.032 15.764 122.976C13.86 122.939 12.152 122.593 10.64 121.94C9.128 121.268 7.98 120.213 7.196 118.776C6.50533 117.469 6.14133 116.135 6.104 114.772C6.06667 113.409 6.048 111.869 6.048 110.152V83.86H12.768V109.76C12.768 110.973 12.7773 112.037 12.796 112.952C12.8333 113.867 13.0293 114.613 13.384 115.192C14.056 116.312 15.1293 116.937 16.604 117.068C18.0787 117.199 19.7587 117.124 21.644 116.844V122.5ZM0.56 97.552V92.26H21.644V97.552H0.56ZM38.0113 123.34C34.9873 123.34 32.346 122.659 30.0873 121.296C27.8286 119.933 26.074 118.057 24.8233 115.668C23.5913 113.26 22.9753 110.497 22.9753 107.38C22.9753 104.207 23.61 101.425 24.8793 99.036C26.1486 96.6467 27.9126 94.78 30.1713 93.436C32.43 92.092 35.0433 91.42 38.0113 91.42C41.054 91.42 43.7046 92.1013 45.9633 93.464C48.222 94.8267 49.9766 96.712 51.2273 99.12C52.478 101.509 53.1033 104.263 53.1033 107.38C53.1033 110.516 52.4686 113.288 51.1993 115.696C49.9486 118.085 48.194 119.961 45.9353 121.324C43.6766 122.668 41.0353 123.34 38.0113 123.34ZM38.0113 117.012C40.6993 117.012 42.6966 116.116 44.0033 114.324C45.31 112.532 45.9633 110.217 45.9633 107.38C45.9633 104.449 45.3006 102.116 43.9753 100.38C42.65 98.6253 40.662 97.748 38.0113 97.748C36.2006 97.748 34.7073 98.1587 33.5313 98.98C32.374 99.7827 31.5153 100.912 30.9553 102.368C30.3953 103.805 30.1153 105.476 30.1153 107.38C30.1153 110.311 30.778 112.653 32.1033 114.408C33.4473 116.144 35.4166 117.012 38.0113 117.012ZM102.879 122.5V104.132C102.879 102.06 102.366 100.445 101.339 99.288C100.313 98.112 98.9221 97.524 97.1674 97.524C96.0848 97.524 95.1141 97.776 94.2554 98.28C93.3968 98.7653 92.7154 99.4933 92.2114 100.464C91.7074 101.416 91.4554 102.555 91.4554 103.88L88.4594 102.116C88.4408 100.025 88.9074 98.1867 89.8594 96.6C90.8301 94.9947 92.1368 93.744 93.7794 92.848C95.4221 91.952 97.2514 91.504 99.2674 91.504C102.609 91.504 105.166 92.512 106.939 94.528C108.731 96.5253 109.627 99.1573 109.627 102.424V122.5H102.879ZM66.5074 122.5V92.26H72.4714V101.64H73.3114V122.5H66.5074ZM84.7354 122.5V104.216C84.7354 102.107 84.2221 100.464 83.1954 99.288C82.1688 98.112 80.7688 97.524 78.9954 97.524C77.2781 97.524 75.8968 98.112 74.8514 99.288C73.8248 100.464 73.3114 101.995 73.3114 103.88L70.2874 101.864C70.2874 99.904 70.7728 98.14 71.7434 96.572C72.7141 95.004 74.0208 93.772 75.6634 92.876C77.3248 91.9613 79.1821 91.504 81.2354 91.504C83.4941 91.504 85.3794 91.9893 86.8914 92.96C88.4221 93.912 89.5608 95.2187 90.3074 96.88C91.0728 98.5227 91.4554 100.38 91.4554 102.452V122.5H84.7354ZM123.427 123.34C121.243 123.34 119.395 122.929 117.883 122.108C116.371 121.268 115.223 120.157 114.439 118.776C113.673 117.395 113.291 115.873 113.291 114.212C113.291 112.756 113.533 111.449 114.019 110.292C114.504 109.116 115.251 108.108 116.259 107.268C117.267 106.409 118.573 105.709 120.179 105.168C121.392 104.776 122.811 104.421 124.435 104.104C126.077 103.787 127.851 103.497 129.755 103.236C131.677 102.956 133.684 102.657 135.775 102.34L133.367 103.712C133.385 101.621 132.919 100.081 131.967 99.092C131.015 98.1027 129.409 97.608 127.151 97.608C125.788 97.608 124.472 97.9253 123.203 98.56C121.933 99.1947 121.047 100.287 120.543 101.836L114.383 99.904C115.129 97.3467 116.548 95.2933 118.639 93.744C120.748 92.1947 123.585 91.42 127.151 91.42C129.839 91.42 132.2 91.8587 134.235 92.736C136.288 93.6133 137.809 95.0507 138.799 97.048C139.34 98.112 139.667 99.204 139.779 100.324C139.891 101.425 139.947 102.629 139.947 103.936V122.5H134.039V115.948L135.019 117.012C133.656 119.196 132.06 120.801 130.231 121.828C128.42 122.836 126.152 123.34 123.427 123.34ZM124.771 117.964C126.301 117.964 127.608 117.693 128.691 117.152C129.773 116.611 130.632 115.948 131.267 115.164C131.92 114.38 132.359 113.643 132.583 112.952C132.937 112.093 133.133 111.113 133.171 110.012C133.227 108.892 133.255 107.987 133.255 107.296L135.327 107.912C133.292 108.229 131.547 108.509 130.091 108.752C128.635 108.995 127.384 109.228 126.339 109.452C125.293 109.657 124.369 109.891 123.567 110.152C122.783 110.432 122.12 110.759 121.579 111.132C121.037 111.505 120.617 111.935 120.319 112.42C120.039 112.905 119.899 113.475 119.899 114.128C119.899 114.875 120.085 115.537 120.459 116.116C120.832 116.676 121.373 117.124 122.083 117.46C122.811 117.796 123.707 117.964 124.771 117.964ZM145.22 122.5L145.276 82.18H152.108V106.82L163.168 92.26H171.596L159.864 107.38L172.604 122.5H163.672L152.108 107.94V122.5H145.22ZM186.65 123.34C183.589 123.34 180.901 122.677 178.586 121.352C176.272 120.027 174.461 118.188 173.154 115.836C171.866 113.484 171.222 110.777 171.222 107.716C171.222 104.412 171.857 101.547 173.126 99.12C174.396 96.6747 176.16 94.78 178.418 93.436C180.677 92.092 183.29 91.42 186.258 91.42C189.394 91.42 192.054 92.1573 194.238 93.632C196.441 95.088 198.074 97.1507 199.138 99.82C200.202 102.489 200.604 105.635 200.342 109.256H193.65V106.792C193.632 103.507 193.053 101.108 191.914 99.596C190.776 98.084 188.984 97.328 186.538 97.328C183.776 97.328 181.722 98.1867 180.378 99.904C179.034 101.603 178.362 104.095 178.362 107.38C178.362 110.441 179.034 112.812 180.378 114.492C181.722 116.172 183.682 117.012 186.258 117.012C187.92 117.012 189.348 116.648 190.542 115.92C191.756 115.173 192.689 114.1 193.342 112.7L200.006 114.716C198.849 117.441 197.057 119.56 194.63 121.072C192.222 122.584 189.562 123.34 186.65 123.34ZM176.234 109.256V104.16H197.038V109.256H176.234ZM214.441 122.5V81.34H221.189V122.5H214.441ZM228.176 87.668V81.48H234.924V87.668H228.176ZM228.176 122.5V92.26H234.924V122.5H228.176ZM243.983 122.5V91.784C243.983 91.0187 244.011 90.1787 244.067 89.264C244.123 88.3307 244.282 87.4067 244.543 86.492C244.805 85.5773 245.281 84.7467 245.971 84C246.83 83.048 247.754 82.3947 248.743 82.04C249.751 81.6667 250.741 81.4613 251.711 81.424C252.682 81.368 253.531 81.34 254.259 81.34H258.039V86.828H254.539C253.251 86.828 252.29 87.1547 251.655 87.808C251.039 88.4427 250.731 89.2827 250.731 90.328V122.5H243.983ZM239.111 97.552V92.26H258.039V97.552H239.111ZM273.21 123.34C270.148 123.34 267.46 122.677 265.146 121.352C262.831 120.027 261.02 118.188 259.714 115.836C258.426 113.484 257.782 110.777 257.782 107.716C257.782 104.412 258.416 101.547 259.686 99.12C260.955 96.6747 262.719 94.78 264.978 93.436C267.236 92.092 269.85 91.42 272.818 91.42C275.954 91.42 278.614 92.1573 280.798 93.632C283 95.088 284.634 97.1507 285.698 99.82C286.762 102.489 287.163 105.635 286.902 109.256H280.21V106.792C280.191 103.507 279.612 101.108 278.474 99.596C277.335 98.084 275.543 97.328 273.098 97.328C270.335 97.328 268.282 98.1867 266.938 99.904C265.594 101.603 264.922 104.095 264.922 107.38C264.922 110.441 265.594 112.812 266.938 114.492C268.282 116.172 270.242 117.012 272.818 117.012C274.479 117.012 275.907 116.648 277.102 115.92C278.315 115.173 279.248 114.1 279.902 112.7L286.566 114.716C285.408 117.441 283.616 119.56 281.19 121.072C278.782 122.584 276.122 123.34 273.21 123.34ZM262.794 109.256V104.16H283.598V109.256H262.794Z" fill="#343F52"/>
<g clip-path="url(#clip0_2_453)">
<g clip-path="url(#clip1_2_453)">
<path d="M463.916 145.28C408.16 140.037 352.061 139.509 296.216 143.7C296.032 143.714 295.847 143.691 295.672 143.633C295.497 143.574 295.335 143.482 295.196 143.361C295.057 143.24 294.943 143.092 294.861 142.926C294.78 142.761 294.732 142.581 294.72 142.397C294.729 142.032 294.874 141.684 295.126 141.42C295.377 141.156 295.718 140.995 296.082 140.968C352.071 136.196 407.918 136.43 463.882 140.742C464.185 140.761 464.481 140.84 464.753 140.974C465.025 141.108 465.268 141.295 465.468 141.523C465.668 141.752 465.82 142.017 465.917 142.305C466.013 142.593 466.052 142.896 466.03 143.199C466.007 143.749 465.776 144.27 465.383 144.656C464.991 145.043 464.466 145.265 463.916 145.28Z" fill="#FAB758"/>
</g>
</g>
<path d="M320.668 123.84C317.607 123.84 314.919 123.177 312.604 121.852C310.289 120.527 308.479 118.688 307.172 116.336C305.884 113.984 305.24 111.277 305.24 108.216C305.24 104.912 305.875 102.047 307.144 99.62C308.413 97.1747 310.177 95.28 312.436 93.936C314.695 92.592 317.308 91.92 320.276 91.92C323.412 91.92 326.072 92.6573 328.256 94.132C330.459 95.588 332.092 97.6507 333.156 100.32C334.22 102.989 334.621 106.135 334.36 109.756H327.668V107.292C327.649 104.007 327.071 101.608 325.932 100.096C324.793 98.584 323.001 97.828 320.556 97.828C317.793 97.828 315.74 98.6867 314.396 100.404C313.052 102.103 312.38 104.595 312.38 107.88C312.38 110.941 313.052 113.312 314.396 114.992C315.74 116.672 317.7 117.512 320.276 117.512C321.937 117.512 323.365 117.148 324.56 116.42C325.773 115.673 326.707 114.6 327.36 113.2L334.024 115.216C332.867 117.941 331.075 120.06 328.648 121.572C326.24 123.084 323.58 123.84 320.668 123.84ZM310.252 109.756V104.66H331.056V109.756H310.252ZM346.557 123.84C344.373 123.84 342.525 123.429 341.013 122.608C339.501 121.768 338.353 120.657 337.569 119.276C336.803 117.895 336.421 116.373 336.421 114.712C336.421 113.256 336.663 111.949 337.149 110.792C337.634 109.616 338.381 108.608 339.389 107.768C340.397 106.909 341.703 106.209 343.309 105.668C344.522 105.276 345.941 104.921 347.565 104.604C349.207 104.287 350.981 103.997 352.885 103.736C354.807 103.456 356.814 103.157 358.905 102.84L356.497 104.212C356.515 102.121 356.049 100.581 355.097 99.592C354.145 98.6027 352.539 98.108 350.281 98.108C348.918 98.108 347.602 98.4253 346.333 99.06C345.063 99.6947 344.177 100.787 343.673 102.336L337.513 100.404C338.259 97.8467 339.678 95.7933 341.769 94.244C343.878 92.6947 346.715 91.92 350.281 91.92C352.969 91.92 355.33 92.3587 357.365 93.236C359.418 94.1133 360.939 95.5507 361.929 97.548C362.47 98.612 362.797 99.704 362.909 100.824C363.021 101.925 363.077 103.129 363.077 104.436V123H357.169V116.448L358.149 117.512C356.786 119.696 355.19 121.301 353.361 122.328C351.55 123.336 349.282 123.84 346.557 123.84ZM347.901 118.464C349.431 118.464 350.738 118.193 351.821 117.652C352.903 117.111 353.762 116.448 354.397 115.664C355.05 114.88 355.489 114.143 355.713 113.452C356.067 112.593 356.263 111.613 356.301 110.512C356.357 109.392 356.385 108.487 356.385 107.796L358.457 108.412C356.422 108.729 354.677 109.009 353.221 109.252C351.765 109.495 350.514 109.728 349.469 109.952C348.423 110.157 347.499 110.391 346.697 110.652C345.913 110.932 345.25 111.259 344.709 111.632C344.167 112.005 343.747 112.435 343.449 112.92C343.169 113.405 343.029 113.975 343.029 114.628C343.029 115.375 343.215 116.037 343.589 116.616C343.962 117.176 344.503 117.624 345.213 117.96C345.941 118.296 346.837 118.464 347.901 118.464ZM380.082 123.84C376.349 123.84 373.316 123 370.982 121.32C368.649 119.64 367.23 117.279 366.726 114.236L373.614 113.172C373.969 114.665 374.753 115.841 375.966 116.7C377.18 117.559 378.71 117.988 380.558 117.988C382.182 117.988 383.433 117.671 384.31 117.036C385.206 116.383 385.654 115.496 385.654 114.376C385.654 113.685 385.486 113.135 385.15 112.724C384.833 112.295 384.124 111.884 383.022 111.492C381.921 111.1 380.232 110.605 377.954 110.008C375.416 109.336 373.4 108.617 371.906 107.852C370.413 107.068 369.34 106.144 368.686 105.08C368.033 104.016 367.706 102.728 367.706 101.216C367.706 99.3307 368.201 97.688 369.19 96.288C370.18 94.888 371.561 93.8147 373.334 93.068C375.108 92.3027 377.198 91.92 379.606 91.92C381.958 91.92 384.04 92.284 385.85 93.012C387.68 93.74 389.154 94.776 390.274 96.12C391.394 97.464 392.085 99.0413 392.346 100.852L385.458 102.084C385.29 100.796 384.702 99.7787 383.694 99.032C382.705 98.2853 381.38 97.8653 379.718 97.772C378.132 97.6787 376.853 97.9213 375.882 98.5C374.912 99.06 374.426 99.8533 374.426 100.88C374.426 101.459 374.622 101.953 375.014 102.364C375.406 102.775 376.19 103.185 377.366 103.596C378.561 104.007 380.334 104.511 382.686 105.108C385.094 105.724 387.017 106.433 388.454 107.236C389.91 108.02 390.956 108.963 391.59 110.064C392.244 111.165 392.57 112.5 392.57 114.068C392.57 117.111 391.46 119.5 389.238 121.236C387.036 122.972 383.984 123.84 380.082 123.84ZM397.303 88.168V81.98H404.051V88.168H397.303ZM397.303 123V92.76H404.051V123H397.303ZM424.226 123.84C421.165 123.84 418.477 123.177 416.162 121.852C413.848 120.527 412.037 118.688 410.73 116.336C409.442 113.984 408.798 111.277 408.798 108.216C408.798 104.912 409.433 102.047 410.702 99.62C411.972 97.1747 413.736 95.28 415.994 93.936C418.253 92.592 420.866 91.92 423.834 91.92C426.97 91.92 429.63 92.6573 431.814 94.132C434.017 95.588 435.65 97.6507 436.714 100.32C437.778 102.989 438.18 106.135 437.918 109.756H431.226V107.292C431.208 104.007 430.629 101.608 429.49 100.096C428.352 98.584 426.56 97.828 424.114 97.828C421.352 97.828 419.298 98.6867 417.954 100.404C416.61 102.103 415.938 104.595 415.938 107.88C415.938 110.941 416.61 113.312 417.954 114.992C419.298 116.672 421.258 117.512 423.834 117.512C425.496 117.512 426.924 117.148 428.118 116.42C429.332 115.673 430.265 114.6 430.918 113.2L437.582 115.216C436.425 117.941 434.633 120.06 432.206 121.572C429.798 123.084 427.138 123.84 424.226 123.84ZM413.81 109.756V104.66H434.614V109.756H413.81ZM442.206 123V92.76H448.17V100.124L447.442 99.172C447.815 98.164 448.31 97.2493 448.926 96.428C449.561 95.588 450.317 94.8973 451.194 94.356C451.941 93.852 452.762 93.46 453.658 93.18C454.573 92.8813 455.506 92.704 456.458 92.648C457.41 92.5733 458.334 92.6107 459.23 92.76V99.06C458.334 98.7987 457.298 98.7147 456.122 98.808C454.965 98.9013 453.919 99.228 452.986 99.788C452.053 100.292 451.287 100.936 450.69 101.72C450.111 102.504 449.682 103.4 449.402 104.408C449.122 105.397 448.982 106.471 448.982 107.628V123H442.206Z" fill="#343F52"/>
<defs>
<clipPath id="clip0_2_453">
<rect width="171.31" height="16.8" fill="white" transform="translate(294.72 128.48)"/>
</clipPath>
<clipPath id="clip1_2_453">
<rect width="171.31" height="7.83012" fill="white" transform="translate(294.72 137.45)"/>
</clipPath>
</defs>
</svg>
